%TF.GenerationSoftware,KiCad,Pcbnew,(6.0.0)*%
%TF.CreationDate,2022-01-31T22:28:38+01:00*%
%TF.ProjectId,RGBW-Controller,52474257-2d43-46f6-9e74-726f6c6c6572,rev?*%
%TF.SameCoordinates,Original*%
%TF.FileFunction,Legend,Top*%
%TF.FilePolarity,Positive*%
%FSLAX46Y46*%
G04 Gerber Fmt 4.6, Leading zero omitted, Abs format (unit mm)*
G04 Created by KiCad (PCBNEW (6.0.0)) date 2022-01-31 22:28:38*
%MOMM*%
%LPD*%
G01*
G04 APERTURE LIST*
G04 Aperture macros list*
%AMRoundRect*
0 Rectangle with rounded corners*
0 $1 Rounding radius*
0 $2 $3 $4 $5 $6 $7 $8 $9 X,Y pos of 4 corners*
0 Add a 4 corners polygon primitive as box body*
4,1,4,$2,$3,$4,$5,$6,$7,$8,$9,$2,$3,0*
0 Add four circle primitives for the rounded corners*
1,1,$1+$1,$2,$3*
1,1,$1+$1,$4,$5*
1,1,$1+$1,$6,$7*
1,1,$1+$1,$8,$9*
0 Add four rect primitives between the rounded corners*
20,1,$1+$1,$2,$3,$4,$5,0*
20,1,$1+$1,$4,$5,$6,$7,0*
20,1,$1+$1,$6,$7,$8,$9,0*
20,1,$1+$1,$8,$9,$2,$3,0*%
G04 Aperture macros list end*
%ADD10C,0.150000*%
%ADD11C,0.120000*%
%ADD12RoundRect,0.200000X0.275000X-0.200000X0.275000X0.200000X-0.275000X0.200000X-0.275000X-0.200000X0*%
%ADD13RoundRect,0.237500X-0.250000X-0.237500X0.250000X-0.237500X0.250000X0.237500X-0.250000X0.237500X0*%
%ADD14RoundRect,0.150000X-0.150000X0.587500X-0.150000X-0.587500X0.150000X-0.587500X0.150000X0.587500X0*%
%ADD15RoundRect,0.237500X-0.300000X-0.237500X0.300000X-0.237500X0.300000X0.237500X-0.300000X0.237500X0*%
%ADD16RoundRect,0.450000X-0.450000X0.450000X-0.450000X-0.450000X0.450000X-0.450000X0.450000X0.450000X0*%
%ADD17RoundRect,0.200000X-0.275000X0.200000X-0.275000X-0.200000X0.275000X-0.200000X0.275000X0.200000X0*%
%ADD18R,2.500000X1.000000*%
%ADD19R,1.000000X1.800000*%
%ADD20RoundRect,0.250001X0.924999X-0.499999X0.924999X0.499999X-0.924999X0.499999X-0.924999X-0.499999X0*%
%ADD21R,1.700000X1.700000*%
%ADD22O,1.700000X1.700000*%
G04 APERTURE END LIST*
D10*
X144602657Y-83498885D02*
X144352657Y-83141742D01*
X144174085Y-83498885D02*
X144174085Y-82748885D01*
X144459800Y-82748885D01*
X144531228Y-82784600D01*
X144566942Y-82820314D01*
X144602657Y-82891742D01*
X144602657Y-82998885D01*
X144566942Y-83070314D01*
X144531228Y-83106028D01*
X144459800Y-83141742D01*
X144174085Y-83141742D01*
X145316942Y-83498885D02*
X144888371Y-83498885D01*
X145102657Y-83498885D02*
X145102657Y-82748885D01*
X145031228Y-82856028D01*
X144959800Y-82927457D01*
X144888371Y-82963171D01*
X146031228Y-83498885D02*
X145602657Y-83498885D01*
X145816942Y-83498885D02*
X145816942Y-82748885D01*
X145745514Y-82856028D01*
X145674085Y-82927457D01*
X145602657Y-82963171D01*
X135162485Y-81355742D02*
X134805342Y-81605742D01*
X135162485Y-81784314D02*
X134412485Y-81784314D01*
X134412485Y-81498600D01*
X134448200Y-81427171D01*
X134483914Y-81391457D01*
X134555342Y-81355742D01*
X134662485Y-81355742D01*
X134733914Y-81391457D01*
X134769628Y-81427171D01*
X134805342Y-81498600D01*
X134805342Y-81784314D01*
X135162485Y-80641457D02*
X135162485Y-81070028D01*
X135162485Y-80855742D02*
X134412485Y-80855742D01*
X134519628Y-80927171D01*
X134591057Y-80998600D01*
X134626771Y-81070028D01*
X134412485Y-80177171D02*
X134412485Y-80105742D01*
X134448200Y-80034314D01*
X134483914Y-79998600D01*
X134555342Y-79962885D01*
X134698200Y-79927171D01*
X134876771Y-79927171D01*
X135019628Y-79962885D01*
X135091057Y-79998600D01*
X135126771Y-80034314D01*
X135162485Y-80105742D01*
X135162485Y-80177171D01*
X135126771Y-80248600D01*
X135091057Y-80284314D01*
X135019628Y-80320028D01*
X134876771Y-80355742D01*
X134698200Y-80355742D01*
X134555342Y-80320028D01*
X134483914Y-80284314D01*
X134448200Y-80248600D01*
X134412485Y-80177171D01*
X135162485Y-78865000D02*
X134805342Y-79115000D01*
X135162485Y-79293571D02*
X134412485Y-79293571D01*
X134412485Y-79007857D01*
X134448200Y-78936428D01*
X134483914Y-78900714D01*
X134555342Y-78865000D01*
X134662485Y-78865000D01*
X134733914Y-78900714D01*
X134769628Y-78936428D01*
X134805342Y-79007857D01*
X134805342Y-79293571D01*
X135162485Y-78507857D02*
X135162485Y-78365000D01*
X135126771Y-78293571D01*
X135091057Y-78257857D01*
X134983914Y-78186428D01*
X134841057Y-78150714D01*
X134555342Y-78150714D01*
X134483914Y-78186428D01*
X134448200Y-78222142D01*
X134412485Y-78293571D01*
X134412485Y-78436428D01*
X134448200Y-78507857D01*
X134483914Y-78543571D01*
X134555342Y-78579285D01*
X134733914Y-78579285D01*
X134805342Y-78543571D01*
X134841057Y-78507857D01*
X134876771Y-78436428D01*
X134876771Y-78293571D01*
X134841057Y-78222142D01*
X134805342Y-78186428D01*
X134733914Y-78150714D01*
X127687676Y-80614780D02*
X127354342Y-80138590D01*
X127116247Y-80614780D02*
X127116247Y-79614780D01*
X127497200Y-79614780D01*
X127592438Y-79662400D01*
X127640057Y-79710019D01*
X127687676Y-79805257D01*
X127687676Y-79948114D01*
X127640057Y-80043352D01*
X127592438Y-80090971D01*
X127497200Y-80138590D01*
X127116247Y-80138590D01*
X128640057Y-80614780D02*
X128068628Y-80614780D01*
X128354342Y-80614780D02*
X128354342Y-79614780D01*
X128259104Y-79757638D01*
X128163866Y-79852876D01*
X128068628Y-79900495D01*
X129116247Y-80567161D02*
X129116247Y-80614780D01*
X129068628Y-80710019D01*
X129021009Y-80757638D01*
X129449580Y-79614780D02*
X130068628Y-79614780D01*
X129735295Y-79995733D01*
X129878152Y-79995733D01*
X129973390Y-80043352D01*
X130021009Y-80090971D01*
X130068628Y-80186209D01*
X130068628Y-80424304D01*
X130021009Y-80519542D01*
X129973390Y-80567161D01*
X129878152Y-80614780D01*
X129592438Y-80614780D01*
X129497200Y-80567161D01*
X129449580Y-80519542D01*
X130544819Y-80567161D02*
X130544819Y-80614780D01*
X130497200Y-80710019D01*
X130449580Y-80757638D01*
X131449580Y-79614780D02*
X130973390Y-79614780D01*
X130925771Y-80090971D01*
X130973390Y-80043352D01*
X131068628Y-79995733D01*
X131306723Y-79995733D01*
X131401961Y-80043352D01*
X131449580Y-80090971D01*
X131497200Y-80186209D01*
X131497200Y-80424304D01*
X131449580Y-80519542D01*
X131401961Y-80567161D01*
X131306723Y-80614780D01*
X131068628Y-80614780D01*
X130973390Y-80567161D01*
X130925771Y-80519542D01*
X131973390Y-80567161D02*
X131973390Y-80614780D01*
X131925771Y-80710019D01*
X131878152Y-80757638D01*
X132306723Y-79614780D02*
X132973390Y-79614780D01*
X132544819Y-80614780D01*
X127687676Y-82087980D02*
X127354342Y-81611790D01*
X127116247Y-82087980D02*
X127116247Y-81087980D01*
X127497200Y-81087980D01*
X127592438Y-81135600D01*
X127640057Y-81183219D01*
X127687676Y-81278457D01*
X127687676Y-81421314D01*
X127640057Y-81516552D01*
X127592438Y-81564171D01*
X127497200Y-81611790D01*
X127116247Y-81611790D01*
X128068628Y-81183219D02*
X128116247Y-81135600D01*
X128211485Y-81087980D01*
X128449580Y-81087980D01*
X128544819Y-81135600D01*
X128592438Y-81183219D01*
X128640057Y-81278457D01*
X128640057Y-81373695D01*
X128592438Y-81516552D01*
X128021009Y-82087980D01*
X128640057Y-82087980D01*
X129116247Y-82040361D02*
X129116247Y-82087980D01*
X129068628Y-82183219D01*
X129021009Y-82230838D01*
X129973390Y-81421314D02*
X129973390Y-82087980D01*
X129735295Y-81040361D02*
X129497200Y-81754647D01*
X130116247Y-81754647D01*
X130544819Y-82040361D02*
X130544819Y-82087980D01*
X130497200Y-82183219D01*
X130449580Y-82230838D01*
X131401961Y-81087980D02*
X131211485Y-81087980D01*
X131116247Y-81135600D01*
X131068628Y-81183219D01*
X130973390Y-81326076D01*
X130925771Y-81516552D01*
X130925771Y-81897504D01*
X130973390Y-81992742D01*
X131021009Y-82040361D01*
X131116247Y-82087980D01*
X131306723Y-82087980D01*
X131401961Y-82040361D01*
X131449580Y-81992742D01*
X131497200Y-81897504D01*
X131497200Y-81659409D01*
X131449580Y-81564171D01*
X131401961Y-81516552D01*
X131306723Y-81468933D01*
X131116247Y-81468933D01*
X131021009Y-81516552D01*
X130973390Y-81564171D01*
X130925771Y-81659409D01*
X131973390Y-82040361D02*
X131973390Y-82087980D01*
X131925771Y-82183219D01*
X131878152Y-82230838D01*
X132544819Y-81516552D02*
X132449580Y-81468933D01*
X132401961Y-81421314D01*
X132354342Y-81326076D01*
X132354342Y-81278457D01*
X132401961Y-81183219D01*
X132449580Y-81135600D01*
X132544819Y-81087980D01*
X132735295Y-81087980D01*
X132830533Y-81135600D01*
X132878152Y-81183219D01*
X132925771Y-81278457D01*
X132925771Y-81326076D01*
X132878152Y-81421314D01*
X132830533Y-81468933D01*
X132735295Y-81516552D01*
X132544819Y-81516552D01*
X132449580Y-81564171D01*
X132401961Y-81611790D01*
X132354342Y-81707028D01*
X132354342Y-81897504D01*
X132401961Y-81992742D01*
X132449580Y-82040361D01*
X132544819Y-82087980D01*
X132735295Y-82087980D01*
X132830533Y-82040361D01*
X132878152Y-81992742D01*
X132925771Y-81897504D01*
X132925771Y-81707028D01*
X132878152Y-81611790D01*
X132830533Y-81564171D01*
X132735295Y-81516552D01*
%TO.C,Q1*%
X141433561Y-90819219D02*
X141338323Y-90771600D01*
X141243085Y-90676361D01*
X141100228Y-90533504D01*
X141004990Y-90485885D01*
X140909752Y-90485885D01*
X140957371Y-90723980D02*
X140862133Y-90676361D01*
X140766895Y-90581123D01*
X140719276Y-90390647D01*
X140719276Y-90057314D01*
X140766895Y-89866838D01*
X140862133Y-89771600D01*
X140957371Y-89723980D01*
X141147847Y-89723980D01*
X141243085Y-89771600D01*
X141338323Y-89866838D01*
X141385942Y-90057314D01*
X141385942Y-90390647D01*
X141338323Y-90581123D01*
X141243085Y-90676361D01*
X141147847Y-90723980D01*
X140957371Y-90723980D01*
X142338323Y-90723980D02*
X141766895Y-90723980D01*
X142052609Y-90723980D02*
X142052609Y-89723980D01*
X141957371Y-89866838D01*
X141862133Y-89962076D01*
X141766895Y-90009695D01*
%TO.C,Q2*%
X137928361Y-90819219D02*
X137833123Y-90771600D01*
X137737885Y-90676361D01*
X137595028Y-90533504D01*
X137499790Y-90485885D01*
X137404552Y-90485885D01*
X137452171Y-90723980D02*
X137356933Y-90676361D01*
X137261695Y-90581123D01*
X137214076Y-90390647D01*
X137214076Y-90057314D01*
X137261695Y-89866838D01*
X137356933Y-89771600D01*
X137452171Y-89723980D01*
X137642647Y-89723980D01*
X137737885Y-89771600D01*
X137833123Y-89866838D01*
X137880742Y-90057314D01*
X137880742Y-90390647D01*
X137833123Y-90581123D01*
X137737885Y-90676361D01*
X137642647Y-90723980D01*
X137452171Y-90723980D01*
X138261695Y-89819219D02*
X138309314Y-89771600D01*
X138404552Y-89723980D01*
X138642647Y-89723980D01*
X138737885Y-89771600D01*
X138785504Y-89819219D01*
X138833123Y-89914457D01*
X138833123Y-90009695D01*
X138785504Y-90152552D01*
X138214076Y-90723980D01*
X138833123Y-90723980D01*
%TO.C,J2*%
X143195380Y-97371333D02*
X143909666Y-97371333D01*
X144052523Y-97418952D01*
X144147761Y-97514190D01*
X144195380Y-97657047D01*
X144195380Y-97752285D01*
X143290619Y-96942761D02*
X143243000Y-96895142D01*
X143195380Y-96799904D01*
X143195380Y-96561809D01*
X143243000Y-96466571D01*
X143290619Y-96418952D01*
X143385857Y-96371333D01*
X143481095Y-96371333D01*
X143623952Y-96418952D01*
X144195380Y-96990380D01*
X144195380Y-96371333D01*
%TO.C,U1*%
X125203095Y-58073380D02*
X125203095Y-58882904D01*
X125250714Y-58978142D01*
X125298333Y-59025761D01*
X125393571Y-59073380D01*
X125584047Y-59073380D01*
X125679285Y-59025761D01*
X125726904Y-58978142D01*
X125774523Y-58882904D01*
X125774523Y-58073380D01*
X126774523Y-59073380D02*
X126203095Y-59073380D01*
X126488809Y-59073380D02*
X126488809Y-58073380D01*
X126393571Y-58216238D01*
X126298333Y-58311476D01*
X126203095Y-58359095D01*
%TO.C,Q4*%
X131121161Y-90819219D02*
X131025923Y-90771600D01*
X130930685Y-90676361D01*
X130787828Y-90533504D01*
X130692590Y-90485885D01*
X130597352Y-90485885D01*
X130644971Y-90723980D02*
X130549733Y-90676361D01*
X130454495Y-90581123D01*
X130406876Y-90390647D01*
X130406876Y-90057314D01*
X130454495Y-89866838D01*
X130549733Y-89771600D01*
X130644971Y-89723980D01*
X130835447Y-89723980D01*
X130930685Y-89771600D01*
X131025923Y-89866838D01*
X131073542Y-90057314D01*
X131073542Y-90390647D01*
X131025923Y-90581123D01*
X130930685Y-90676361D01*
X130835447Y-90723980D01*
X130644971Y-90723980D01*
X131930685Y-90057314D02*
X131930685Y-90723980D01*
X131692590Y-89676361D02*
X131454495Y-90390647D01*
X132073542Y-90390647D01*
%TO.C,C1*%
X144359333Y-80367142D02*
X144311714Y-80414761D01*
X144168857Y-80462380D01*
X144073619Y-80462380D01*
X143930761Y-80414761D01*
X143835523Y-80319523D01*
X143787904Y-80224285D01*
X143740285Y-80033809D01*
X143740285Y-79890952D01*
X143787904Y-79700476D01*
X143835523Y-79605238D01*
X143930761Y-79510000D01*
X144073619Y-79462380D01*
X144168857Y-79462380D01*
X144311714Y-79510000D01*
X144359333Y-79557619D01*
X145311714Y-80462380D02*
X144740285Y-80462380D01*
X145026000Y-80462380D02*
X145026000Y-79462380D01*
X144930761Y-79605238D01*
X144835523Y-79700476D01*
X144740285Y-79748095D01*
%TO.C,Q3*%
X134473961Y-90819219D02*
X134378723Y-90771600D01*
X134283485Y-90676361D01*
X134140628Y-90533504D01*
X134045390Y-90485885D01*
X133950152Y-90485885D01*
X133997771Y-90723980D02*
X133902533Y-90676361D01*
X133807295Y-90581123D01*
X133759676Y-90390647D01*
X133759676Y-90057314D01*
X133807295Y-89866838D01*
X133902533Y-89771600D01*
X133997771Y-89723980D01*
X134188247Y-89723980D01*
X134283485Y-89771600D01*
X134378723Y-89866838D01*
X134426342Y-90057314D01*
X134426342Y-90390647D01*
X134378723Y-90581123D01*
X134283485Y-90676361D01*
X134188247Y-90723980D01*
X133997771Y-90723980D01*
X134759676Y-89723980D02*
X135378723Y-89723980D01*
X135045390Y-90104933D01*
X135188247Y-90104933D01*
X135283485Y-90152552D01*
X135331104Y-90200171D01*
X135378723Y-90295409D01*
X135378723Y-90533504D01*
X135331104Y-90628742D01*
X135283485Y-90676361D01*
X135188247Y-90723980D01*
X134902533Y-90723980D01*
X134807295Y-90676361D01*
X134759676Y-90628742D01*
D11*
%TO.C,R7*%
X131027700Y-84057258D02*
X131027700Y-83582742D01*
X129982700Y-84057258D02*
X129982700Y-83582742D01*
%TO.C,R11*%
X143458476Y-83754700D02*
X143967924Y-83754700D01*
X143458476Y-84799700D02*
X143967924Y-84799700D01*
%TO.C,Q1*%
X141387000Y-88900000D02*
X141387000Y-87225000D01*
X138267000Y-88900000D02*
X138267000Y-89550000D01*
X138267000Y-88900000D02*
X138267000Y-88250000D01*
X141387000Y-88900000D02*
X141387000Y-89550000D01*
%TO.C,C2*%
X140569733Y-79377000D02*
X140862267Y-79377000D01*
X140569733Y-78357000D02*
X140862267Y-78357000D01*
%TO.C,Q2*%
X137958000Y-88900000D02*
X137958000Y-87225000D01*
X134838000Y-88900000D02*
X134838000Y-88250000D01*
X134838000Y-88900000D02*
X134838000Y-89550000D01*
X137958000Y-88900000D02*
X137958000Y-89550000D01*
%TO.C,J2*%
X134233000Y-96753000D02*
X134233000Y-102753000D01*
X136013000Y-102753000D02*
X136013000Y-96753000D01*
X136773000Y-96753000D02*
X136773000Y-102753000D01*
X129983000Y-96753000D02*
X142803000Y-96753000D01*
X130933000Y-102753000D02*
X130933000Y-96753000D01*
X141433000Y-96753000D02*
X141433000Y-102753000D01*
X139313000Y-96753000D02*
X139313000Y-102753000D01*
X133473000Y-93695929D02*
X133473000Y-94093000D01*
X142803000Y-96753000D02*
X142803000Y-94093000D01*
X138553000Y-93695929D02*
X138553000Y-94093000D01*
X130933000Y-93695929D02*
X130933000Y-94093000D01*
X139313000Y-93695929D02*
X139313000Y-94093000D01*
X141793000Y-96753000D02*
X141793000Y-102753000D01*
X142803000Y-94093000D02*
X129983000Y-94093000D01*
X131693000Y-102753000D02*
X130933000Y-102753000D01*
X131693000Y-93695929D02*
X131693000Y-94093000D01*
X136773000Y-102753000D02*
X136013000Y-102753000D01*
X138553000Y-102753000D02*
X138553000Y-96753000D01*
X137663000Y-94093000D02*
X137663000Y-96753000D01*
X134233000Y-102753000D02*
X133473000Y-102753000D01*
X141093000Y-102753000D02*
X141093000Y-96753000D01*
X136773000Y-93695929D02*
X136773000Y-94093000D01*
X129983000Y-94093000D02*
X129983000Y-96753000D01*
X132583000Y-94093000D02*
X132583000Y-96753000D01*
X141093000Y-93763000D02*
X141093000Y-94093000D01*
X141673000Y-96753000D02*
X141673000Y-102753000D01*
X141193000Y-96753000D02*
X141193000Y-102753000D01*
X136013000Y-93695929D02*
X136013000Y-94093000D01*
X141313000Y-96753000D02*
X141313000Y-102753000D01*
X135123000Y-94093000D02*
X135123000Y-96753000D01*
X140203000Y-94093000D02*
X140203000Y-96753000D01*
X141853000Y-96753000D02*
X141853000Y-102753000D01*
X133473000Y-102753000D02*
X133473000Y-96753000D01*
X141553000Y-96753000D02*
X141553000Y-102753000D01*
X142743000Y-91383000D02*
X142743000Y-92653000D01*
X141853000Y-93763000D02*
X141853000Y-94093000D01*
X139313000Y-102753000D02*
X138553000Y-102753000D01*
X131693000Y-96753000D02*
X131693000Y-102753000D01*
X134233000Y-93695929D02*
X134233000Y-94093000D01*
X141853000Y-102753000D02*
X141093000Y-102753000D01*
X141473000Y-91383000D02*
X142743000Y-91383000D01*
%TO.C,R4*%
X135955300Y-85208342D02*
X135955300Y-85682858D01*
X134910300Y-85208342D02*
X134910300Y-85682858D01*
%TO.C,R9*%
X136778276Y-79389500D02*
X137287724Y-79389500D01*
X136778276Y-78344500D02*
X137287724Y-78344500D01*
%TO.C,R1*%
X141289300Y-84057258D02*
X141289300Y-83582742D01*
X140244300Y-84057258D02*
X140244300Y-83582742D01*
%TO.C,R8*%
X129097300Y-85208342D02*
X129097300Y-85682858D01*
X128052300Y-85208342D02*
X128052300Y-85682858D01*
%TO.C,R3*%
X136840700Y-84057258D02*
X136840700Y-83582742D01*
X137885700Y-84057258D02*
X137885700Y-83582742D01*
%TO.C,U1*%
X144645000Y-76001000D02*
X142525000Y-76001000D01*
X130525000Y-76001000D02*
X128405000Y-76001000D01*
X128405000Y-76001000D02*
X128405000Y-75381000D01*
X144645000Y-51761000D02*
X144645000Y-59381000D01*
X128405000Y-59381000D02*
X127795000Y-59381000D01*
X128405000Y-51761000D02*
X144645000Y-51761000D01*
X128405000Y-59381000D02*
X128405000Y-51761000D01*
X144645000Y-75381000D02*
X144645000Y-76001000D01*
%TO.C,R10*%
X136778276Y-81421500D02*
X137287724Y-81421500D01*
X136778276Y-80376500D02*
X137287724Y-80376500D01*
%TO.C,Q4*%
X127980000Y-88900000D02*
X127980000Y-88250000D01*
X131100000Y-88900000D02*
X131100000Y-87225000D01*
X127980000Y-88900000D02*
X127980000Y-89550000D01*
X131100000Y-88900000D02*
X131100000Y-89550000D01*
%TO.C,R6*%
X132551700Y-85208342D02*
X132551700Y-85682858D01*
X131506700Y-85208342D02*
X131506700Y-85682858D01*
%TO.C,C1*%
X143016000Y-82518000D02*
X146036000Y-82518000D01*
X146036000Y-82518000D02*
X146036000Y-78133000D01*
X143016000Y-78133000D02*
X143016000Y-82518000D01*
%TO.C,R2*%
X138364700Y-85208342D02*
X138364700Y-85682858D01*
X139409700Y-85208342D02*
X139409700Y-85682858D01*
%TO.C,Q3*%
X134529000Y-88900000D02*
X134529000Y-89550000D01*
X131409000Y-88900000D02*
X131409000Y-88250000D01*
X131409000Y-88900000D02*
X131409000Y-89550000D01*
X134529000Y-88900000D02*
X134529000Y-87225000D01*
%TO.C,J1*%
X145957600Y-88290400D02*
X145957600Y-85690400D01*
X145957600Y-90890400D02*
X144627600Y-90890400D01*
X145957600Y-85690400D02*
X143297600Y-85690400D01*
X145957600Y-89560400D02*
X145957600Y-90890400D01*
X143297600Y-88290400D02*
X143297600Y-85690400D01*
X145957600Y-88290400D02*
X143297600Y-88290400D01*
%TO.C,R5*%
X134431300Y-84057258D02*
X134431300Y-83582742D01*
X133386300Y-84057258D02*
X133386300Y-83582742D01*
%TO.C,C3*%
X140569733Y-80389000D02*
X140862267Y-80389000D01*
X140569733Y-81409000D02*
X140862267Y-81409000D01*
%TD*%
%LPC*%
D12*
%TO.C,R7*%
X130505200Y-84645000D03*
X130505200Y-82995000D03*
%TD*%
D13*
%TO.C,R11*%
X142800700Y-84277200D03*
X144625700Y-84277200D03*
%TD*%
D14*
%TO.C,Q1*%
X139827000Y-89837500D03*
X138877000Y-87962500D03*
X140777000Y-87962500D03*
%TD*%
D15*
%TO.C,C2*%
X139853500Y-78867000D03*
X141578500Y-78867000D03*
%TD*%
D14*
%TO.C,Q2*%
X136398000Y-89837500D03*
X135448000Y-87962500D03*
X137348000Y-87962500D03*
%TD*%
D16*
%TO.C,J2*%
X141473000Y-92653000D03*
X138933000Y-92653000D03*
X136393000Y-92653000D03*
X133853000Y-92653000D03*
X131313000Y-92653000D03*
%TD*%
D17*
%TO.C,R4*%
X135432800Y-84620600D03*
X135432800Y-86270600D03*
%TD*%
D13*
%TO.C,R9*%
X136120500Y-78867000D03*
X137945500Y-78867000D03*
%TD*%
D12*
%TO.C,R1*%
X140766800Y-84645000D03*
X140766800Y-82995000D03*
%TD*%
D17*
%TO.C,R8*%
X128574800Y-84620600D03*
X128574800Y-86270600D03*
%TD*%
D12*
%TO.C,R3*%
X137363200Y-84645000D03*
X137363200Y-82995000D03*
%TD*%
D18*
%TO.C,U1*%
X128925000Y-60381000D03*
X128925000Y-62381000D03*
X128925000Y-64381000D03*
X128925000Y-66381000D03*
X128925000Y-68381000D03*
X128925000Y-70381000D03*
X128925000Y-72381000D03*
X128925000Y-74381000D03*
D19*
X131525000Y-75881000D03*
X133525000Y-75881000D03*
X135525000Y-75881000D03*
X137525000Y-75881000D03*
X139525000Y-75881000D03*
X141525000Y-75881000D03*
D18*
X144125000Y-74381000D03*
X144125000Y-72381000D03*
X144125000Y-70381000D03*
X144125000Y-68381000D03*
X144125000Y-66381000D03*
X144125000Y-64381000D03*
X144125000Y-62381000D03*
X144125000Y-60381000D03*
%TD*%
D13*
%TO.C,R10*%
X136120500Y-80899000D03*
X137945500Y-80899000D03*
%TD*%
D14*
%TO.C,Q4*%
X130490000Y-87962500D03*
X128590000Y-87962500D03*
X129540000Y-89837500D03*
%TD*%
D17*
%TO.C,R6*%
X132029200Y-84620600D03*
X132029200Y-86270600D03*
%TD*%
D20*
%TO.C,C1*%
X144526000Y-81508000D03*
X144526000Y-78258000D03*
%TD*%
D17*
%TO.C,R2*%
X138887200Y-84620600D03*
X138887200Y-86270600D03*
%TD*%
D14*
%TO.C,Q3*%
X133919000Y-87962500D03*
X132019000Y-87962500D03*
X132969000Y-89837500D03*
%TD*%
D21*
%TO.C,J1*%
X144627600Y-89560400D03*
D22*
X144627600Y-87020400D03*
%TD*%
D12*
%TO.C,R5*%
X133908800Y-84645000D03*
X133908800Y-82995000D03*
%TD*%
D15*
%TO.C,C3*%
X139853500Y-80899000D03*
X141578500Y-80899000D03*
%TD*%
M02*
