M48
; DRILL file {KiCad (6.0.0)} date Tue Feb  1 12:13:41 2022
; FORMAT={-:-/ absolute / metric / decimal}
; #@! TF.CreationDate,2022-02-01T12:13:41+01:00
; #@! TF.GenerationSoftware,Kicad,Pcbnew,(6.0.0)
; #@! TF.FileFunction,Plated,1,2,PTH
FMAT,2
METRIC
; #@! TA.AperFunction,Plated,PTH,ViaDrill
T1C0.400
; #@! TA.AperFunction,Plated,PTH,ComponentDrill
T2C1.000
%
G90
G05
T1
X128.575Y-83.007
X128.93Y-75.844
X129.54Y-87.02
X131.216Y-64.364
X131.216Y-66.396
X131.267Y-60.452
X132.029Y-83.007
X132.994Y-87.02
X134.823Y-72.39
X135.433Y-70.358
X135.433Y-83.007
X136.398Y-87.02
X137.109Y-70.358
X137.945Y-78.588
X137.945Y-80.569
X138.887Y-83.007
X139.852Y-87.02
X142.189Y-68.377
X142.189Y-71.374
X142.799Y-83.058
X144.526Y-76.302
T2
X144.628Y-87.02
X144.628Y-89.56
T0
M30
