%FSLAX35Y35*%
%MOIN*%
%TF.FileFunction,Copper,L1,Top*%
%ADD10C,0.00591*%
%ADD11C,0.00214*%
%ADD12C,0.00384*%
%ADD13C,0.00409*%
%ADD14C,0.00472*%
%ADD15C,0.00512*%
%ADD16C,0.00650*%
%ADD17C,0.00669*%
%ADD18C,0.00768*%
%ADD19C,0.00886*%
%ADD20C,0.01181*%
%ADD21C,0.01575*%
%ADD22C,0.01969*%
%ADD23C,0.02362*%
%ADD24C,0.03150*%
%ADD25C,0.03937*%
%AMR_26*21,1,0.00787,0.00787,0,0,0.000*%
%ADD26R_26*%
%AMR_27*21,1,0.01181,0.01181,0,0,0.000*%
%ADD27R_27*%
%AMR_28*21,1,0.01706,0.01706,0,0,0.000*%
%ADD28R_28*%
%AMR_29*21,1,0.02133,0.02133,0,0,0.000*%
%ADD29R_29*%
%AMR_30*21,1,0.02362,0.02362,0,0,0.000*%
%ADD30R_30*%
%AMR_31*21,1,0.02625,0.02625,0,0,0.000*%
%ADD31R_31*%
%AMR_32*21,1,0.03200,0.03800,0,0,0.000*%
%ADD32R_32*%
%AMR_33*21,1,0.03200,0.03800,0,0,90.000*%
%ADD33R_33*%
%AMR_34*21,1,0.03200,0.03800,0,0,180.000*%
%ADD34R_34*%
%AMR_35*21,1,0.04409,0.06299,0,0,90.000*%
%ADD35R_35*%
%AMR_36*21,1,0.04724,0.04724,0,0,0.000*%
%ADD36R_36*%
%AMR_37*21,1,0.05000,0.05000,0,0,180.000*%
%ADD37R_37*%
%AMR_38*21,1,0.07874,0.09449,0,0,90.000*%
%ADD38R_38*%
%AMR_39*21,1,0.19685,0.11875,0,0,0.000*%
%ADD39R_39*%
%AMR_40*21,1,0.19685,0.19685,0,0,0.000*%
%ADD40R_40*%
%AMOCT_41*4,1,8,0.031496,0.023622,0.015748,0.039370,-0.015748,0.039370,-0.031496,0.023622,-0.031496,-0.023622,-0.015748,-0.039370,0.015748,-0.039370,0.031496,-0.023622,0.031496,0.023622,270.000*%
%ADD41OCT_41*%
%AMOCT_42*4,1,8,0.039370,0.009843,0.029528,0.019685,-0.029528,0.019685,-0.039370,0.009843,-0.039370,-0.009843,-0.029528,-0.019685,0.029528,-0.019685,0.039370,-0.009843,0.039370,0.009843,0.000*%
%ADD42OCT_42*%
%AMOCT_43*4,1,8,0.039370,0.009843,0.029528,0.019685,-0.029528,0.019685,-0.039370,0.009843,-0.039370,-0.009843,-0.029528,-0.019685,0.029528,-0.019685,0.039370,-0.009843,0.039370,0.009843,90.000*%
%ADD43OCT_43*%
%ADD44O,0.02559X0.04173*%
%AMRR_45*21,1,0.02559,0.03661,0,0,180.000*21,1,0.02047,0.04173,0,0,180.000*1,1,0.00512,-0.01024,-0.01831*1,1,0.00512,0.01024,0.01831*1,1,0.00512,-0.01024,0.01831*1,1,0.00512,0.01024,-0.01831*%
%ADD45RR_45*%
%AMRR_46*21,1,0.06299,0.06614,0,0,270.000*21,1,0.05039,0.07874,0,0,270.000*1,1,0.01260,0.03307,-0.02520*1,1,0.01260,-0.03307,0.02520*1,1,0.01260,-0.03307,-0.02520*1,1,0.01260,0.03307,0.02520*%
%ADD46RR_46*%
%AMRR_47*21,1,0.07087,0.06024,0,0,180.000*21,1,0.06024,0.07087,0,0,180.000*1,1,0.01063,-0.03012,-0.03012*1,1,0.01063,0.03012,0.03012*1,1,0.01063,-0.03012,0.03012*1,1,0.01063,0.03012,-0.03012*%
%ADD47RR_47*%
%AMRR_48*21,1,0.23622,0.06457,0,0,90.000*21,1,0.22205,0.07874,0,0,90.000*1,1,0.01417,-0.03228,0.11102*1,1,0.01417,0.03228,-0.11102*1,1,0.01417,0.03228,0.11102*1,1,0.01417,-0.03228,-0.11102*%
%ADD48RR_48*%
G54D16*
X3937Y144749D02*
X3937Y149473D01*
X3937Y147111D02*
X8267Y147111D01*
X8267Y149473D02*
X8267Y144749D01*
X3937Y149473D02*
X6102Y151835D01*
X8267Y149473D01*
X9566Y151835D02*
X9566Y144749D01*
X9566Y147111D02*
X12814Y150654D01*
X11190Y148882D02*
X13897Y144749D01*
X15196Y151835D02*
X15196Y145930D01*
X16279Y144749D01*
X19527Y144749D01*
X15196Y148882D02*
X17362Y148882D01*
X20826Y148882D02*
X20826Y145930D01*
X21909Y144749D01*
X24074Y144749D01*
X25157Y145930D01*
X25157Y148882D02*
X25157Y144749D01*
X30787Y145339D02*
X29704Y144749D01*
X27539Y144749D01*
X26456Y145930D01*
X26456Y147701D01*
X27539Y148882D01*
X29704Y148882D01*
X30787Y148292D01*
X30787Y147701D01*
X29704Y147111D01*
X26456Y147111D01*
X32086Y144749D02*
X36417Y144749D01*
X33169Y151835D02*
X34251Y151835D01*
X34251Y144749D01*
X37716Y144749D02*
X42047Y144749D01*
X38799Y151835D02*
X39881Y151835D01*
X39881Y144749D01*
X47677Y145339D02*
X46594Y144749D01*
X44429Y144749D01*
X43346Y145930D01*
X43346Y147701D01*
X44429Y148882D01*
X46594Y148882D01*
X47677Y148292D01*
X47677Y147701D01*
X46594Y147111D01*
X43346Y147111D01*
X48976Y144749D02*
X52765Y144749D01*
X53307Y145930D01*
X52765Y147111D01*
X49517Y147111D01*
X48976Y148292D01*
X49517Y148882D01*
X53307Y148882D01*
X60236Y151835D02*
X60236Y144749D01*
X60236Y148292D02*
X62942Y148292D01*
X64025Y148882D01*
X64566Y150063D01*
X64025Y151245D01*
X62942Y151835D01*
X60236Y151835D01*
X65866Y148882D02*
X65866Y144749D01*
X65866Y147111D02*
X67490Y148882D01*
X70196Y148882D01*
X71496Y147701D02*
X71496Y145930D01*
X71496Y147701D02*
X72578Y148882D01*
X74744Y148882D01*
X75826Y147701D01*
X75826Y145930D01*
X74744Y144749D01*
X72578Y144749D01*
X71496Y145930D01*
X77125Y142386D02*
X80374Y142386D01*
X81456Y143567D01*
X81456Y148882D01*
X79832Y148882D01*
X81456Y151835D02*
X81456Y151245D01*
X87086Y145339D02*
X86003Y144749D01*
X83838Y144749D01*
X82755Y145930D01*
X82755Y147701D01*
X83838Y148882D01*
X86003Y148882D01*
X87086Y148292D01*
X87086Y147701D01*
X86003Y147111D01*
X82755Y147111D01*
X88385Y151835D02*
X88385Y144749D01*
X88385Y147111D02*
X91633Y150654D01*
X90009Y148882D02*
X92716Y144749D01*
X94015Y151835D02*
X94015Y145930D01*
X95098Y144749D01*
X98346Y144749D01*
X94015Y148882D02*
X96181Y148882D01*
X105275Y148882D02*
X107440Y144749D01*
X109606Y148882D01*
X110905Y147701D02*
X110905Y145930D01*
X110905Y147701D02*
X111988Y148882D01*
X114153Y148882D01*
X115236Y147701D01*
X115236Y145930D01*
X114153Y144749D01*
X111988Y144749D01*
X110905Y145930D01*
X116535Y144749D02*
X116535Y148882D01*
X116535Y147701D02*
X117618Y148882D01*
X119783Y148882D01*
X120866Y147701D01*
X120866Y144749D01*
X127795Y151835D02*
X132125Y151835D01*
X129960Y151835D02*
X129960Y144749D01*
X133425Y144749D02*
X133425Y149473D01*
X133425Y147111D02*
X137755Y147111D01*
X137755Y149473D02*
X137755Y144749D01*
X133425Y149473D02*
X135590Y151835D01*
X137755Y149473D01*
X139055Y151835D02*
X139055Y144749D01*
X139055Y148292D02*
X141761Y148292D01*
X142844Y148882D01*
X143385Y150063D01*
X142844Y151245D01*
X141761Y151835D01*
X139055Y151835D01*
X141220Y148292D02*
X143385Y144749D01*
X146309Y151835D02*
X145226Y151245D01*
X144685Y150063D01*
X144685Y146520D01*
X145226Y145339D01*
X146309Y144749D01*
X147391Y144749D01*
X148474Y145339D01*
X149015Y146520D01*
X149015Y148292D01*
X147933Y148292D01*
X146309Y151835D02*
X147391Y151835D01*
X148474Y151245D01*
X150314Y151835D02*
X150314Y144749D01*
X154645Y144749D01*
X150314Y148292D02*
X152480Y148292D01*
X150314Y151835D02*
X154645Y151835D01*
X155944Y151835D02*
X160275Y151835D01*
X158110Y151835D02*
X158110Y144749D01*
X167204Y144749D02*
X167204Y151835D01*
X171535Y144749D01*
X171535Y151835D01*
X175541Y144749D02*
X176624Y145339D01*
X177165Y146520D01*
X175541Y144749D02*
X174458Y144749D01*
X173375Y145339D01*
X172834Y146520D01*
X172834Y150063D01*
X173375Y151245D01*
X174458Y151835D01*
X175541Y151835D01*
X176624Y151245D01*
X177165Y150063D01*
X178464Y148292D02*
X182795Y148292D01*
X184094Y151835D02*
X184094Y144749D01*
X188425Y144749D01*
X184094Y148292D02*
X186259Y148292D01*
X184094Y151835D02*
X188425Y151835D01*
X194055Y151835D02*
X194055Y144749D01*
X190807Y144749D01*
X189724Y145930D01*
X189724Y147701D01*
X190807Y148882D01*
X194055Y148882D01*
X195354Y144749D02*
X199685Y144749D01*
X197519Y144749D02*
X197519Y148882D01*
X197519Y151835D02*
X197519Y151245D01*
X195895Y148882D02*
X197519Y148882D01*
X200984Y151835D02*
X200984Y145930D01*
X202066Y144749D01*
X205314Y144749D01*
X200984Y148882D02*
X203149Y148882D01*
X206614Y144749D02*
X210944Y144749D01*
X208779Y144749D02*
X208779Y148882D01*
X208779Y151835D02*
X208779Y151245D01*
X207155Y148882D02*
X208779Y148882D01*
X212244Y147701D02*
X212244Y145930D01*
X212244Y147701D02*
X213326Y148882D01*
X215492Y148882D01*
X216574Y147701D01*
X216574Y145930D01*
X215492Y144749D01*
X213326Y144749D01*
X212244Y145930D01*
X217874Y144749D02*
X217874Y148882D01*
X217874Y147701D02*
X218956Y148882D01*
X221122Y148882D01*
X222204Y147701D01*
X222204Y144749D01*
X224586Y145339D02*
X224586Y144749D01*
X225127Y144749D01*
X225127Y145339D01*
X224586Y145339D01*
X225127Y148292D02*
X224586Y148292D01*
X224586Y147701D01*
X225127Y147701D01*
X225127Y148292D01*
X234763Y151835D02*
X234763Y144749D01*
X234763Y147111D02*
X239094Y151835D01*
X236387Y148882D02*
X239094Y144749D01*
X240393Y147701D02*
X240393Y145930D01*
X240393Y147701D02*
X241476Y148882D01*
X243641Y148882D01*
X244724Y147701D01*
X244724Y145930D01*
X243641Y144749D01*
X241476Y144749D01*
X240393Y145930D01*
X250354Y144749D02*
X250354Y147701D01*
X249271Y148882D01*
X248188Y144749D02*
X248188Y147701D01*
X246023Y148882D02*
X249271Y148882D01*
X246023Y144749D02*
X246023Y148882D01*
X248188Y147701D02*
X247106Y148882D01*
X255984Y144749D02*
X255984Y147701D01*
X254901Y148882D01*
X253818Y144749D02*
X253818Y147701D01*
X251653Y148882D02*
X254901Y148882D01*
X251653Y144749D02*
X251653Y148882D01*
X253818Y147701D02*
X252736Y148882D01*
X261614Y145339D02*
X260531Y144749D01*
X258366Y144749D01*
X257283Y145930D01*
X257283Y147701D01*
X258366Y148882D01*
X260531Y148882D01*
X261614Y148292D01*
X261614Y147701D01*
X260531Y147111D01*
X257283Y147111D01*
X262913Y148882D02*
X262913Y144749D01*
X262913Y147111D02*
X264537Y148882D01*
X267244Y148882D01*
X268543Y148882D02*
X272874Y148882D01*
X268543Y144749D01*
X272874Y144749D01*
X274173Y144749D02*
X278503Y144749D01*
X276338Y144749D02*
X276338Y148882D01*
X276338Y151835D02*
X276338Y151245D01*
X274714Y148882D02*
X276338Y148882D01*
X284133Y145339D02*
X283051Y144749D01*
X280885Y144749D01*
X279803Y145930D01*
X279803Y147701D01*
X280885Y148882D01*
X283051Y148882D01*
X284133Y148292D01*
X284133Y147701D01*
X283051Y147111D01*
X279803Y147111D01*
X285433Y144749D02*
X289763Y144749D01*
X286515Y151835D02*
X287598Y151835D01*
X287598Y144749D01*
X291062Y144749D02*
X295393Y144749D01*
X292145Y151835D02*
X293228Y151835D01*
X293228Y144749D01*
X301023Y145339D02*
X299940Y144749D01*
X297775Y144749D01*
X296692Y145930D01*
X296692Y147701D01*
X297775Y148882D01*
X299940Y148882D01*
X301023Y148292D01*
X301023Y147701D01*
X299940Y147111D01*
X296692Y147111D01*
X307952Y144749D02*
X307952Y151835D01*
X312283Y144749D01*
X312283Y151835D01*
X313582Y148882D02*
X313582Y145930D01*
X314665Y144749D01*
X316830Y144749D01*
X317913Y145930D01*
X317913Y148882D02*
X317913Y144749D01*
X319212Y151835D02*
X319212Y145930D01*
X320295Y144749D01*
X323543Y144749D01*
X319212Y148882D02*
X321377Y148882D01*
X324842Y148882D02*
X329173Y148882D01*
X324842Y144749D01*
X329173Y144749D01*
X330472Y148882D02*
X330472Y145930D01*
X331555Y144749D01*
X333720Y144749D01*
X334803Y145930D01*
X334803Y148882D02*
X334803Y144749D01*
X336102Y144749D02*
X336102Y148882D01*
X336102Y147701D02*
X337185Y148882D01*
X339350Y148882D01*
X340433Y147701D01*
X340433Y144749D01*
X346062Y145930D02*
X344980Y144749D01*
X342814Y144749D01*
X341732Y145930D01*
X341732Y147701D01*
X342814Y148882D01*
X344980Y148882D01*
X346062Y147701D01*
X346062Y143567D01*
X344980Y142386D01*
X341732Y142386D01*
X352992Y144749D02*
X357322Y144749D01*
X355157Y144749D02*
X355157Y148882D01*
X355157Y151835D02*
X355157Y151245D01*
X353533Y148882D02*
X355157Y148882D01*
X358622Y144749D02*
X362411Y144749D01*
X362952Y145930D01*
X362411Y147111D01*
X359163Y147111D01*
X358622Y148292D01*
X359163Y148882D01*
X362952Y148882D01*
X364251Y151835D02*
X364251Y145930D01*
X365334Y144749D01*
X368582Y144749D01*
X364251Y148882D02*
X366417Y148882D01*
X375511Y144749D02*
X379301Y144749D01*
X379842Y145930D01*
X379301Y147111D01*
X376053Y147111D01*
X375511Y148292D01*
X376053Y148882D01*
X379842Y148882D01*
X381141Y151835D02*
X381141Y145930D01*
X382224Y144749D01*
X385472Y144749D01*
X381141Y148882D02*
X383307Y148882D01*
X386771Y148882D02*
X386771Y144749D01*
X386771Y147111D02*
X388395Y148882D01*
X391102Y148882D01*
X392401Y145930D02*
X393484Y144749D01*
X395649Y144749D01*
X396732Y145930D01*
X392401Y145930D02*
X392401Y147701D01*
X393484Y148882D01*
X395649Y148882D01*
X396732Y147701D01*
X396732Y144749D01*
X398031Y142386D02*
X398031Y150654D01*
X399114Y151835D01*
X402362Y151835D01*
X398031Y147111D02*
X400196Y147111D01*
X403661Y151835D02*
X403661Y144749D01*
X406909Y144749D01*
X407992Y145930D01*
X407992Y147701D01*
X406909Y148882D01*
X403661Y148882D01*
X409291Y145930D02*
X410374Y144749D01*
X412539Y144749D01*
X413622Y145930D01*
X409291Y145930D02*
X409291Y147701D01*
X410374Y148882D01*
X412539Y148882D01*
X413622Y147701D01*
X413622Y144749D01*
X414921Y148882D02*
X414921Y144749D01*
X414921Y147111D02*
X416545Y148882D01*
X419251Y148882D01*
X422716Y144749D02*
X422716Y145339D01*
X423257Y145339D01*
X423257Y144749D01*
X422716Y144749D01*
X422716Y147111D02*
X423257Y147111D01*
X423799Y150654D01*
X423257Y151835D01*
X422716Y151835D01*
X422175Y150654D01*
X422716Y147111D01*
G54D20*
X21884Y32190D02*
X21875Y32200D01*
X70000Y27500D02*
X70000Y33750D01*
X69375Y34375D02*
X64375Y34375D01*
X69375Y34375D02*
X70000Y33750D01*
X64375Y34375D02*
X62825Y35925D01*
X62825Y40000D01*
X8759Y32190D02*
X8750Y32200D01*
X62593Y52116D02*
X63503Y52116D01*
X63503Y54031D01*
X64541Y55068D01*
X75458Y55068D01*
X76309Y54218D01*
X76309Y58281D01*
X75458Y57431D01*
X64541Y57431D01*
X63503Y58468D01*
X63503Y67810D01*
X64541Y68848D01*
X75458Y68848D01*
X76309Y67997D01*
X76309Y135693D01*
X75226Y135693D01*
X75954Y134966D01*
X75954Y131529D01*
X73932Y129507D01*
X66559Y129507D01*
X64537Y131529D01*
X64537Y134966D01*
X65265Y135693D01*
X19109Y135693D01*
X19754Y135049D01*
X20221Y133781D01*
X20221Y132468D01*
X19754Y131200D01*
X18799Y130245D01*
X17531Y129778D01*
X16218Y129778D01*
X14950Y130245D01*
X14310Y130885D01*
X12318Y130885D01*
X10940Y129507D01*
X3567Y129507D01*
X1545Y131529D01*
X1545Y134966D01*
X2273Y135693D01*
X1181Y135693D01*
X1181Y62859D01*
X1825Y63504D01*
X3093Y63971D01*
X4406Y63971D01*
X5674Y63504D01*
X6629Y62549D01*
X6875Y61882D01*
X7120Y62549D01*
X8075Y63504D01*
X9343Y63971D01*
X10656Y63971D01*
X11924Y63504D01*
X12879Y62549D01*
X13346Y61281D01*
X13346Y59968D01*
X12879Y58700D01*
X12362Y58183D01*
X12362Y55487D01*
X30353Y55487D01*
X33203Y52637D01*
X33203Y55758D01*
X33819Y56374D01*
X33819Y57375D01*
X33325Y57869D01*
X28864Y57869D01*
X28402Y57407D01*
X26985Y56884D01*
X25514Y56884D01*
X24097Y57407D01*
X23635Y57869D01*
X18233Y57869D01*
X11619Y64483D01*
X11619Y75068D01*
X10940Y74389D01*
X3567Y74389D01*
X1545Y76411D01*
X1545Y79848D01*
X3567Y81870D01*
X10940Y81870D01*
X11924Y80885D01*
X13636Y80885D01*
X17130Y77391D01*
X17130Y75748D01*
X17346Y75964D01*
X20783Y75964D01*
X22805Y73942D01*
X22805Y66569D01*
X20783Y64547D01*
X19350Y64547D01*
X20516Y63380D01*
X23635Y63380D01*
X24097Y63842D01*
X25514Y64365D01*
X26985Y64365D01*
X28402Y63842D01*
X28864Y63380D01*
X33325Y63380D01*
X34241Y64296D01*
X38908Y64296D01*
X39375Y63830D01*
X39841Y64296D01*
X44508Y64296D01*
X45278Y63527D01*
X45278Y63858D01*
X46316Y64896D01*
X48493Y64896D01*
X46820Y66569D01*
X46820Y73942D01*
X48842Y75964D01*
X52279Y75964D01*
X54301Y73942D01*
X54301Y66569D01*
X52628Y64896D01*
X52783Y64896D01*
X53750Y63930D01*
X54716Y64896D01*
X56367Y64896D01*
X54694Y66569D01*
X54694Y73942D01*
X56716Y75964D01*
X60153Y75964D01*
X62175Y73942D01*
X62175Y66569D01*
X60502Y64896D01*
X61183Y64896D01*
X62221Y63858D01*
X62221Y57391D01*
X61705Y56875D01*
X62221Y56358D01*
X62221Y51744D01*
X62593Y52116D01*
X40968Y64547D02*
X38946Y66569D01*
X38946Y73942D01*
X40968Y75964D01*
X44405Y75964D01*
X46427Y73942D01*
X46427Y66569D01*
X44405Y64547D01*
X40968Y64547D01*
X33094Y64547D02*
X31072Y66569D01*
X31072Y73942D01*
X33094Y75964D01*
X36531Y75964D01*
X38553Y73942D01*
X38553Y66569D01*
X36531Y64547D01*
X33094Y64547D01*
X25220Y64547D02*
X23198Y66569D01*
X23198Y73942D01*
X25220Y75964D01*
X28657Y75964D01*
X30679Y73942D01*
X30679Y66569D01*
X28657Y64547D01*
X25220Y64547D01*
X66559Y74389D02*
X64537Y76411D01*
X64537Y78528D01*
X64343Y78528D01*
X63075Y78995D01*
X62120Y79950D01*
X61653Y81218D01*
X61653Y82531D01*
X62120Y83799D01*
X62637Y84316D01*
X62637Y85978D01*
X65025Y88366D01*
X65181Y88366D01*
X66559Y89744D01*
X73932Y89744D01*
X75954Y87722D01*
X75954Y84285D01*
X73932Y82263D01*
X68346Y82263D01*
X68346Y81870D01*
X73932Y81870D01*
X75954Y79848D01*
X75954Y76411D01*
X73932Y74389D01*
X66559Y74389D01*
X3567Y82263D02*
X1545Y84285D01*
X1545Y87722D01*
X3567Y89744D01*
X10940Y89744D01*
X12962Y87722D01*
X12962Y84285D01*
X10940Y82263D01*
X3567Y82263D01*
X66559Y90137D02*
X64537Y92159D01*
X64537Y95596D01*
X66559Y97618D01*
X73932Y97618D01*
X75954Y95596D01*
X75954Y92159D01*
X73932Y90137D01*
X66559Y90137D01*
X3567Y90137D02*
X1545Y92159D01*
X1545Y95596D01*
X3567Y97618D01*
X10940Y97618D01*
X12189Y96368D01*
X12450Y96629D01*
X13718Y97096D01*
X15031Y97096D01*
X16299Y96629D01*
X17254Y95674D01*
X17721Y94406D01*
X17721Y93093D01*
X17254Y91825D01*
X16299Y90870D01*
X15031Y90403D01*
X13718Y90403D01*
X12450Y90870D01*
X12062Y91259D01*
X10940Y90137D01*
X3567Y90137D01*
X66559Y98011D02*
X65181Y99389D01*
X64818Y99389D01*
X64424Y98995D01*
X63156Y98528D01*
X61843Y98528D01*
X60575Y98995D01*
X59620Y99950D01*
X59153Y101218D01*
X59153Y102531D01*
X59620Y103799D01*
X60575Y104754D01*
X61843Y105221D01*
X63156Y105221D01*
X64424Y104754D01*
X65064Y104114D01*
X65181Y104114D01*
X66559Y105492D01*
X73932Y105492D01*
X75954Y103470D01*
X75954Y100033D01*
X73932Y98011D01*
X66559Y98011D01*
X3567Y98011D02*
X1545Y100033D01*
X1545Y103470D01*
X3567Y105492D01*
X10940Y105492D01*
X12962Y103470D01*
X12962Y100033D01*
X10940Y98011D01*
X3567Y98011D01*
X66559Y105885D02*
X64537Y107907D01*
X64537Y111344D01*
X66559Y113366D01*
X73932Y113366D01*
X75954Y111344D01*
X75954Y107907D01*
X73932Y105885D01*
X66559Y105885D01*
X3567Y105885D02*
X1545Y107907D01*
X1545Y111344D01*
X3567Y113366D01*
X10940Y113366D01*
X12318Y111988D01*
X14684Y111988D01*
X14950Y112254D01*
X16218Y112721D01*
X17531Y112721D01*
X18799Y112254D01*
X19754Y111299D01*
X20221Y110031D01*
X20221Y108718D01*
X19754Y107450D01*
X18799Y106495D01*
X17531Y106028D01*
X16218Y106028D01*
X14950Y106495D01*
X14182Y107263D01*
X12318Y107263D01*
X10940Y105885D01*
X3567Y105885D01*
X66559Y113759D02*
X65181Y115137D01*
X63066Y115137D01*
X62549Y114620D01*
X61281Y114153D01*
X59968Y114153D01*
X58700Y114620D01*
X57745Y115575D01*
X57278Y116843D01*
X57278Y118156D01*
X57745Y119424D01*
X58700Y120379D01*
X59968Y120846D01*
X61281Y120846D01*
X62549Y120379D01*
X63066Y119862D01*
X65181Y119862D01*
X66559Y121240D01*
X73932Y121240D01*
X75954Y119218D01*
X75954Y115781D01*
X73932Y113759D01*
X66559Y113759D01*
X3567Y113759D02*
X1545Y115781D01*
X1545Y119218D01*
X3567Y121240D01*
X10940Y121240D01*
X12318Y119862D01*
X14433Y119862D01*
X14950Y120379D01*
X16218Y120846D01*
X17531Y120846D01*
X18799Y120379D01*
X19754Y119424D01*
X20221Y118156D01*
X20221Y116843D01*
X19754Y115575D01*
X18799Y114620D01*
X17531Y114153D01*
X16218Y114153D01*
X14950Y114620D01*
X14433Y115137D01*
X12318Y115137D01*
X10940Y113759D01*
X3567Y113759D01*
X66559Y121633D02*
X64537Y123655D01*
X64537Y127092D01*
X66559Y129114D01*
X73932Y129114D01*
X75954Y127092D01*
X75954Y123655D01*
X73932Y121633D01*
X66559Y121633D01*
X3567Y121633D02*
X1545Y123655D01*
X1545Y127092D01*
X3567Y129114D01*
X10940Y129114D01*
X12962Y127092D01*
X12962Y123655D01*
X10940Y121633D01*
X3567Y121633D01*
X13159Y1181D02*
X13159Y3922D01*
X12526Y3922D01*
X9547Y6901D01*
X9547Y15085D01*
X9448Y15352D01*
X9448Y18161D01*
X9874Y19317D01*
X10746Y20189D01*
X11902Y20615D01*
X13097Y20615D01*
X14253Y20189D01*
X15125Y19317D01*
X15551Y18161D01*
X15551Y15352D01*
X15452Y15085D01*
X15452Y12465D01*
X22733Y12465D01*
X22672Y12526D01*
X22672Y15085D01*
X22573Y15352D01*
X22573Y18161D01*
X22999Y19317D01*
X23871Y20189D01*
X25027Y20615D01*
X26222Y20615D01*
X27378Y20189D01*
X28250Y19317D01*
X28676Y18161D01*
X28676Y15352D01*
X28577Y15085D01*
X28577Y14973D01*
X31085Y12465D01*
X35797Y12465D01*
X35797Y15085D01*
X35698Y15352D01*
X35698Y18161D01*
X36124Y19317D01*
X36996Y20189D01*
X38152Y20615D01*
X39347Y20615D01*
X40503Y20189D01*
X41375Y19317D01*
X41801Y18161D01*
X41801Y15352D01*
X41702Y15085D01*
X41702Y12465D01*
X46414Y12465D01*
X48922Y14973D01*
X48922Y15085D01*
X48823Y15352D01*
X48823Y18161D01*
X49249Y19317D01*
X50121Y20189D01*
X51277Y20615D01*
X52472Y20615D01*
X53628Y20189D01*
X54500Y19317D01*
X54926Y18161D01*
X54926Y15352D01*
X54827Y15085D01*
X54827Y12526D01*
X54490Y12189D01*
X63027Y12189D01*
X64064Y11152D01*
X64064Y10221D01*
X65488Y10221D01*
X66653Y11386D01*
X66653Y12829D01*
X64291Y15191D01*
X64291Y19808D01*
X66903Y22421D01*
X73096Y22421D01*
X75708Y19808D01*
X75708Y15191D01*
X73346Y12829D01*
X73346Y8613D01*
X68261Y3528D01*
X64064Y3528D01*
X64064Y2597D01*
X63027Y1560D01*
X54472Y1560D01*
X54340Y1692D01*
X54340Y1181D01*
X76309Y1181D01*
X76309Y38902D01*
X76004Y38075D01*
X75049Y37120D01*
X73781Y36653D01*
X72468Y36653D01*
X71456Y37026D01*
X70758Y36328D01*
X66091Y36328D01*
X65625Y36794D01*
X65158Y36328D01*
X60491Y36328D01*
X59453Y37366D01*
X59453Y42633D01*
X60491Y43671D01*
X64521Y43671D01*
X63503Y44689D01*
X63503Y45369D01*
X59296Y45369D01*
X59296Y41091D01*
X58830Y40625D01*
X59296Y40158D01*
X59296Y35491D01*
X58258Y34453D01*
X57977Y34453D01*
X57977Y30502D01*
X58666Y29813D01*
X58666Y24172D01*
X57628Y23134D01*
X53601Y23134D01*
X52563Y24172D01*
X52563Y29813D01*
X53252Y30502D01*
X53252Y34453D01*
X52991Y34453D01*
X52178Y35265D01*
X51596Y35265D01*
X51330Y35000D01*
X51796Y34533D01*
X51796Y29866D01*
X50955Y29024D01*
X51186Y28397D01*
X51186Y25588D01*
X50760Y24432D01*
X49887Y23560D01*
X48732Y23134D01*
X47537Y23134D01*
X46381Y23560D01*
X45541Y24401D01*
X45541Y24172D01*
X44503Y23134D01*
X40476Y23134D01*
X39438Y24172D01*
X39438Y29813D01*
X40127Y30502D01*
X40127Y34453D01*
X39866Y34453D01*
X39053Y35265D01*
X38471Y35265D01*
X38205Y35000D01*
X38671Y34533D01*
X38671Y29866D01*
X37830Y29024D01*
X38061Y28397D01*
X38061Y25588D01*
X37635Y24432D01*
X36762Y23560D01*
X35607Y23134D01*
X34412Y23134D01*
X33256Y23560D01*
X32416Y24401D01*
X32416Y24172D01*
X31378Y23134D01*
X27351Y23134D01*
X26313Y24172D01*
X26313Y29813D01*
X27012Y30512D01*
X27012Y34453D01*
X26741Y34453D01*
X25953Y35240D01*
X25321Y35240D01*
X25080Y35000D01*
X25546Y34533D01*
X25546Y29866D01*
X24705Y29024D01*
X24936Y28397D01*
X24936Y25588D01*
X24510Y24432D01*
X23637Y23560D01*
X22482Y23134D01*
X21287Y23134D01*
X20131Y23560D01*
X19291Y24401D01*
X19291Y24172D01*
X18253Y23134D01*
X14226Y23134D01*
X13188Y24172D01*
X13188Y29813D01*
X13877Y30502D01*
X13877Y34453D01*
X13616Y34453D01*
X12828Y35240D01*
X12196Y35240D01*
X11955Y35000D01*
X12421Y34533D01*
X12421Y29866D01*
X11580Y29024D01*
X11811Y28397D01*
X11811Y25588D01*
X11385Y24432D01*
X10512Y23560D01*
X9357Y23134D01*
X8162Y23134D01*
X7006Y23560D01*
X6134Y24432D01*
X5708Y25588D01*
X5708Y28397D01*
X5934Y29010D01*
X5078Y29866D01*
X5078Y34533D01*
X5544Y35000D01*
X5078Y35466D01*
X5078Y40133D01*
X6116Y41171D01*
X11383Y41171D01*
X12196Y40359D01*
X12778Y40359D01*
X13044Y40625D01*
X12578Y41091D01*
X12578Y45758D01*
X12582Y45762D01*
X6521Y45762D01*
X1387Y50896D01*
X1387Y58183D01*
X1181Y58390D01*
X1181Y1181D01*
X13159Y1181D01*
X65329Y22578D02*
X64291Y23616D01*
X64291Y31383D01*
X65329Y32421D01*
X74670Y32421D01*
X75708Y31383D01*
X75708Y23616D01*
X74670Y22578D01*
X65329Y22578D01*
X49550Y60625D02*
X42175Y60625D01*
X41875Y60625D02*
X42175Y60625D01*
X7253Y133248D02*
X16875Y133248D01*
X16875Y133125D02*
X16875Y133248D01*
X49550Y53125D02*
X42175Y53125D01*
X7253Y117500D02*
X16875Y117500D01*
X70246Y117500D02*
X60625Y117500D01*
X10000Y60625D02*
X10000Y54375D01*
X11250Y53125D01*
X29375Y53125D01*
X33125Y49375D01*
X7381Y93750D02*
X14375Y93750D01*
X7381Y93750D02*
X7253Y93877D01*
X33125Y49375D02*
X33125Y47500D01*
X37200Y43425D01*
X42500Y43425D01*
X3750Y60625D02*
X3750Y51875D01*
X7500Y48125D01*
X28125Y48125D01*
X29375Y46875D01*
X29375Y43425D01*
X55615Y35940D02*
X55615Y26993D01*
X55615Y35940D02*
X55625Y37825D01*
X42490Y35940D02*
X42490Y26993D01*
X42490Y35940D02*
X42500Y37825D01*
X29375Y27002D02*
X29375Y37825D01*
X68425Y40000D02*
X73125Y40000D01*
X70246Y86003D02*
X66003Y86003D01*
X65000Y85000D01*
X65000Y81875D01*
X70246Y101751D02*
X62623Y101751D01*
X62500Y101875D02*
X62623Y101751D01*
X16240Y37815D02*
X16240Y26993D01*
X16240Y37815D02*
X16250Y37825D01*
X16240Y37815D02*
X16225Y37800D01*
X16250Y37825D01*
X7253Y109625D02*
X16624Y109625D01*
X16875Y109375D02*
X16624Y109625D01*
X22825Y43425D02*
X16250Y43425D01*
X22825Y43425D02*
X23125Y43125D01*
G54D21*
X21884Y32190D02*
X21884Y26993D01*
X35000Y26983D02*
X35009Y26993D01*
X48125Y26983D02*
X48134Y26993D01*
X48134Y32190D02*
X48134Y26993D01*
X48134Y32190D02*
X48125Y32200D01*
X35000Y32200D02*
X35000Y26983D01*
X8759Y32190D02*
X8759Y26993D01*
X48150Y37825D02*
X55625Y37825D01*
X48150Y37825D02*
X48125Y37800D01*
X35025Y37825D02*
X42500Y37825D01*
X35025Y37825D02*
X35000Y37800D01*
X29375Y27002D02*
X29365Y26993D01*
X29350Y37800D02*
X21875Y37800D01*
X29350Y37800D02*
X29375Y37825D01*
X16225Y37800D02*
X8750Y37800D01*
G54D22*
X57950Y60625D02*
X57950Y53125D01*
X57950Y60625D02*
X61250Y60625D01*
X63764Y63139D01*
X70000Y63139D01*
X70000Y77883D02*
X70000Y63139D01*
X70000Y77883D02*
X70246Y78129D01*
X36575Y60625D02*
X36575Y53125D01*
X36575Y60625D02*
X26250Y60625D01*
X19375Y60625D02*
X14375Y65625D01*
X14375Y76250D01*
X12495Y78129D01*
X7253Y78129D01*
X26250Y60625D02*
X19375Y60625D01*
X36575Y53125D02*
X36575Y49050D01*
X37500Y48125D01*
X62500Y48125D01*
X63735Y49360D01*
X70000Y49360D01*
G54D23*
X63750Y27500D02*
X70000Y27500D01*
X63750Y27500D02*
X58125Y21875D01*
X8759Y26993D02*
X8759Y23115D01*
X10000Y21875D01*
X21884Y21875D01*
X21884Y26993D02*
X21884Y21875D01*
X35000Y21875D01*
X35000Y26983D02*
X35000Y21875D01*
X48125Y21875D01*
X48125Y26983D02*
X48125Y21875D01*
X58125Y21875D01*
X51875Y16756D02*
X51875Y13750D01*
X48750Y10625D01*
X48750Y6875D01*
X38750Y16756D02*
X38750Y6875D01*
X25625Y16756D02*
X25625Y13750D01*
X28750Y10625D01*
X28750Y6875D01*
X75068Y13716D02*
X73340Y11988D01*
X66659Y11988D01*
X63700Y14946D01*
X63700Y20053D01*
X65591Y21943D01*
X65489Y21943D01*
X56325Y12780D01*
X63271Y12780D01*
X64655Y11396D01*
X64655Y2431D01*
X75068Y2431D01*
X75068Y13716D01*
X12500Y16756D02*
X12500Y8125D01*
X13750Y6875D01*
X18750Y6875D01*
G54D24*
X16875Y133125D03*
X16875Y117500D03*
X60625Y117500D03*
X10000Y60625D03*
X14375Y93750D03*
X3750Y60625D03*
X73125Y40000D03*
X65000Y81875D03*
X62500Y101875D03*
X16875Y109375D03*
X23125Y43125D03*
G54D25*
X26250Y60625D03*
X66875Y6875D02*
X70000Y10000D01*
X70000Y17500D01*
X66875Y6875D02*
X58750Y6875D01*
G54D32*
X62825Y40000D03*
X68425Y40000D03*
G54D33*
X55625Y37825D03*
X55625Y43425D03*
X48125Y32200D03*
X48125Y37800D03*
X42500Y37825D03*
X42500Y43425D03*
X35000Y32200D03*
X35000Y37800D03*
X29375Y37825D03*
X29375Y43425D03*
X21875Y32200D03*
X21875Y37800D03*
X16250Y37825D03*
X16250Y43425D03*
X8750Y32200D03*
X8750Y37800D03*
G54D34*
X42175Y53125D03*
X36575Y53125D03*
X42175Y60625D03*
X36575Y60625D03*
G54D37*
X49550Y53125D03*
X57950Y53125D03*
X49550Y60625D03*
X57950Y60625D03*
G54D38*
X70000Y63139D03*
X70000Y49360D03*
G54D41*
X70000Y17500D03*
G54D42*
X7253Y133248D03*
X7253Y125374D03*
X7253Y117500D03*
X7253Y109625D03*
X7253Y101751D03*
X7253Y93877D03*
X7253Y86003D03*
X7253Y78129D03*
X70246Y78129D03*
X70246Y86003D03*
X70246Y93877D03*
X70246Y101751D03*
X70246Y109625D03*
X70246Y117500D03*
X70246Y125374D03*
X70246Y133248D03*
G54D43*
X19064Y70255D03*
X26938Y70255D03*
X34812Y70255D03*
X42687Y70255D03*
X50561Y70255D03*
X58435Y70255D03*
G54D44*
X48134Y26993D03*
X51875Y16756D03*
X35009Y26993D03*
X38750Y16756D03*
X21884Y26993D03*
X25625Y16756D03*
X8759Y26993D03*
X12500Y16756D03*
G54D45*
X55615Y26993D03*
X42490Y26993D03*
X29365Y26993D03*
X16240Y26993D03*
G54D46*
X70000Y27500D03*
G54D47*
X58750Y6875D03*
X48750Y6875D03*
X38750Y6875D03*
X28750Y6875D03*
X18750Y6875D03*
G36*
X70246Y76948D02*
X70246Y79311D01*
X75954Y79311D01*
X75954Y76948D01*
X70246Y76948D01*
G37*
G36*
X64537Y77539D02*
X64537Y78720D01*
X70246Y78720D01*
X70246Y77539D01*
X64537Y77539D01*
G37*
G36*
X69064Y78129D02*
X69064Y81870D01*
X71427Y81870D01*
X71427Y78129D01*
X69064Y78129D01*
G37*
G36*
X69064Y74389D02*
X69064Y78129D01*
X71427Y78129D01*
X71427Y74389D01*
X69064Y74389D01*
G37*
G36*
X57950Y52534D02*
X57950Y53715D01*
X62221Y53715D01*
X62221Y52534D01*
X57950Y52534D01*
G37*
G36*
X57950Y59443D02*
X57950Y61806D01*
X62221Y61806D01*
X62221Y59443D01*
X57950Y59443D01*
G37*
G36*
X48134Y26140D02*
X48134Y27846D01*
X51186Y27846D01*
X51186Y26140D01*
X48134Y26140D01*
G37*
G36*
X47281Y23134D02*
X47281Y26993D01*
X48987Y26993D01*
X48987Y23134D01*
X47281Y23134D01*
G37*
G36*
X48125Y31133D02*
X48125Y33266D01*
X51796Y33266D01*
X51796Y31133D01*
X48125Y31133D01*
G37*
G36*
X35009Y26140D02*
X35009Y27846D01*
X38061Y27846D01*
X38061Y26140D01*
X35009Y26140D01*
G37*
G36*
X34156Y23134D02*
X34156Y26993D01*
X35862Y26993D01*
X35862Y23134D01*
X34156Y23134D01*
G37*
G36*
X35000Y31133D02*
X35000Y33266D01*
X38671Y33266D01*
X38671Y31133D01*
X35000Y31133D01*
G37*
G36*
X21884Y26140D02*
X21884Y27846D01*
X24936Y27846D01*
X24936Y26140D01*
X21884Y26140D01*
G37*
G36*
X21031Y23134D02*
X21031Y26993D01*
X22737Y26993D01*
X22737Y23134D01*
X21031Y23134D01*
G37*
G36*
X21875Y31133D02*
X21875Y33266D01*
X25546Y33266D01*
X25546Y31133D01*
X21875Y31133D01*
G37*
G36*
X68818Y63139D02*
X68818Y68848D01*
X71181Y68848D01*
X71181Y63139D01*
X68818Y63139D01*
G37*
G36*
X68818Y57431D02*
X68818Y63139D01*
X71181Y63139D01*
X71181Y57431D01*
X68818Y57431D01*
G37*
G36*
X63503Y61958D02*
X63503Y64320D01*
X70000Y64320D01*
X70000Y61958D01*
X63503Y61958D01*
G37*
G36*
X68818Y22578D02*
X68818Y27500D01*
X71181Y27500D01*
X71181Y22578D01*
X68818Y22578D01*
G37*
G36*
X68818Y27500D02*
X68818Y32421D01*
X71181Y32421D01*
X71181Y27500D01*
X68818Y27500D01*
G37*
G36*
X70000Y26318D02*
X70000Y28681D01*
X75708Y28681D01*
X75708Y26318D01*
X70000Y26318D01*
G37*
G36*
X64291Y26318D02*
X64291Y28681D01*
X70000Y28681D01*
X70000Y26318D01*
X64291Y26318D01*
G37*
G36*
X59453Y38933D02*
X59453Y41066D01*
X62825Y41066D01*
X62825Y38933D01*
X59453Y38933D01*
G37*
G36*
X61758Y40000D02*
X61758Y43671D01*
X63891Y43671D01*
X63891Y40000D01*
X61758Y40000D01*
G37*
G36*
X61758Y36328D02*
X61758Y40000D01*
X63891Y40000D01*
X63891Y36328D01*
X61758Y36328D01*
G37*
G36*
X5708Y26140D02*
X5708Y27846D01*
X8759Y27846D01*
X8759Y26140D01*
X5708Y26140D01*
G37*
G36*
X8759Y26140D02*
X8759Y27846D01*
X11811Y27846D01*
X11811Y26140D01*
X8759Y26140D01*
G37*
G36*
X7906Y23134D02*
X7906Y26993D01*
X9612Y26993D01*
X9612Y23134D01*
X7906Y23134D01*
G37*
G36*
X5078Y31133D02*
X5078Y33266D01*
X8750Y33266D01*
X8750Y31133D01*
X5078Y31133D01*
G37*
G36*
X8750Y31133D02*
X8750Y33266D01*
X12421Y33266D01*
X12421Y31133D01*
X8750Y31133D01*
G37*
G36*
X19694Y134900D02*
X18935Y135659D01*
X19011Y135841D01*
X65411Y135841D01*
X65413Y135548D01*
X19694Y134900D01*
G37*
G36*
X1504Y134716D02*
X942Y135841D01*
X2371Y135841D01*
X2447Y135659D01*
X1504Y134716D01*
G37*
G36*
X64598Y134818D02*
X19607Y134901D01*
X19605Y135194D01*
X65362Y135842D01*
X65439Y135659D01*
X64598Y134818D01*
G37*
G36*
X75996Y134715D02*
X75052Y135659D01*
X75128Y135841D01*
X76545Y135841D01*
X75996Y134715D01*
G37*
G36*
X20119Y133631D02*
X19542Y135197D01*
X64683Y135113D01*
X64686Y134822D01*
X20119Y133631D01*
G37*
G36*
X20073Y132312D02*
X20073Y133925D01*
X64678Y135117D01*
X64690Y134826D01*
X20073Y132312D01*
G37*
G36*
X1410Y131376D02*
X1023Y135802D01*
X1258Y135869D01*
X1692Y135001D01*
X1692Y131388D01*
X1410Y131376D01*
G37*
G36*
X64685Y131379D02*
X20076Y132323D01*
X20071Y132607D01*
X64685Y135122D01*
X64685Y131379D01*
G37*
G36*
X76089Y131376D02*
X75807Y131388D01*
X75807Y135000D01*
X76230Y135868D01*
X76466Y135803D01*
X76089Y131376D01*
G37*
G36*
X19542Y131051D02*
X20119Y132618D01*
X64686Y131674D01*
X64684Y131383D01*
X19542Y131051D01*
G37*
G36*
X15024Y130075D02*
X12156Y130773D01*
X12187Y131033D01*
X14371Y131033D01*
X15134Y130270D01*
X15024Y130075D01*
G37*
G36*
X18703Y130095D02*
X18624Y130279D01*
X19692Y131347D01*
X64682Y131678D01*
X64687Y131386D01*
X18703Y130095D01*
G37*
G36*
X16314Y129597D02*
X12138Y130783D01*
X12212Y131063D01*
X14993Y130387D01*
X16402Y129867D01*
X16314Y129597D01*
G37*
G36*
X17411Y129626D02*
X17362Y129873D01*
X18770Y130392D01*
X64680Y131681D01*
X64689Y131387D01*
X17411Y129626D01*
G37*
G36*
X10846Y129355D02*
X10764Y129540D01*
X12275Y131051D01*
X16379Y129886D01*
X16351Y129637D01*
X10846Y129355D01*
G37*
G36*
X10799Y129354D02*
X10786Y129647D01*
X16214Y129926D01*
X17676Y129926D01*
X17682Y129636D01*
X10799Y129354D01*
G37*
G36*
X10798Y129354D02*
X10787Y129649D01*
X17525Y129926D01*
X64679Y131682D01*
X64690Y131387D01*
X10798Y129354D01*
G37*
G36*
X66658Y129360D02*
X10795Y129360D01*
X10790Y129649D01*
X64596Y131679D01*
X66733Y129542D01*
X66658Y129360D01*
G37*
G36*
X3419Y128965D02*
X3419Y129655D01*
X74079Y129655D01*
X74080Y129361D01*
X3419Y128965D01*
G37*
G36*
X3520Y128940D02*
X1341Y131543D01*
X1549Y131734D01*
X3714Y129569D01*
X3714Y129010D01*
X3520Y128940D01*
G37*
G36*
X10940Y128966D02*
X3420Y128966D01*
X3419Y129260D01*
X74079Y129656D01*
X74081Y129361D01*
X10940Y128966D01*
G37*
G36*
X66563Y128966D02*
X10793Y128966D01*
X10792Y129260D01*
X74075Y129656D01*
X74084Y129368D01*
X66563Y128966D01*
G37*
G36*
X74080Y128966D02*
X66415Y128966D01*
X66408Y129253D01*
X74080Y129663D01*
X74080Y128966D01*
G37*
G36*
X73979Y128940D02*
X73785Y129010D01*
X73785Y129569D01*
X75950Y131734D01*
X76158Y131543D01*
X73979Y128940D01*
G37*
G36*
X1579Y126917D02*
X1397Y126993D01*
X1397Y131633D01*
X1592Y131704D01*
X3767Y129105D01*
X1579Y126917D01*
G37*
G36*
X1403Y126941D02*
X1027Y135831D01*
X1315Y135850D01*
X1692Y131536D01*
X1692Y126947D01*
X1403Y126941D01*
G37*
G36*
X12903Y126942D02*
X10766Y129079D01*
X10841Y129261D01*
X66704Y129261D01*
X66709Y128972D01*
X12903Y126942D01*
G37*
G36*
X64598Y126944D02*
X12817Y126944D01*
X12812Y127234D01*
X66654Y129265D01*
X66735Y129080D01*
X64598Y126944D01*
G37*
G36*
X75920Y126917D02*
X73732Y129105D01*
X75907Y131704D01*
X76102Y131633D01*
X76102Y126993D01*
X75920Y126917D01*
G37*
G36*
X76096Y126941D02*
X75807Y126947D01*
X75807Y131536D01*
X76174Y135850D01*
X76462Y135832D01*
X76096Y126941D01*
G37*
G36*
X1402Y123506D02*
X1029Y135836D01*
X1322Y135846D01*
X1692Y127095D01*
X1692Y123510D01*
X1402Y123506D01*
G37*
G36*
X12814Y123498D02*
X12814Y127239D01*
X64680Y127239D01*
X64689Y126954D01*
X12814Y123498D01*
G37*
G36*
X64685Y123508D02*
X12819Y123508D01*
X12810Y123793D01*
X64685Y127249D01*
X64685Y123508D01*
G37*
G36*
X76098Y123506D02*
X75807Y123510D01*
X75807Y127095D01*
X76167Y135846D01*
X76460Y135836D01*
X76098Y123506D01*
G37*
G36*
X10845Y121482D02*
X10764Y121667D01*
X12901Y123803D01*
X64682Y123803D01*
X64687Y123513D01*
X10845Y121482D01*
G37*
G36*
X66658Y121486D02*
X10795Y121486D01*
X10790Y121775D01*
X64596Y123805D01*
X66733Y121668D01*
X66658Y121486D01*
G37*
G36*
X3419Y121091D02*
X3419Y121781D01*
X74079Y121781D01*
X74080Y121487D01*
X3419Y121091D01*
G37*
G36*
X3520Y121066D02*
X1341Y123669D01*
X1549Y123860D01*
X3714Y121695D01*
X3714Y121136D01*
X3520Y121066D01*
G37*
G36*
X10940Y121092D02*
X3420Y121092D01*
X3419Y121386D01*
X74079Y121782D01*
X74081Y121487D01*
X10940Y121092D01*
G37*
G36*
X66563Y121092D02*
X10793Y121092D01*
X10792Y121386D01*
X74075Y121782D01*
X74084Y121494D01*
X66563Y121092D01*
G37*
G36*
X74080Y121092D02*
X66415Y121092D01*
X66408Y121379D01*
X74080Y121789D01*
X74080Y121092D01*
G37*
G36*
X73979Y121066D02*
X73785Y121136D01*
X73785Y121695D01*
X75950Y123860D01*
X76158Y123669D01*
X73979Y121066D01*
G37*
G36*
X16213Y120698D02*
X10787Y121103D01*
X10798Y121387D01*
X66706Y121387D01*
X66707Y121093D01*
X16213Y120698D01*
G37*
G36*
X17532Y120698D02*
X16071Y120698D01*
X16070Y120992D01*
X66705Y121388D01*
X66708Y121093D01*
X17532Y120698D01*
G37*
G36*
X59972Y120698D02*
X17384Y120698D01*
X17383Y120992D01*
X66702Y121388D01*
X66711Y121101D01*
X59972Y120698D01*
G37*
G36*
X61287Y120698D02*
X59825Y120698D01*
X59816Y120985D01*
X66696Y121396D01*
X66716Y121103D01*
X61287Y120698D01*
G37*
G36*
X14961Y120226D02*
X10774Y121124D01*
X10814Y121397D01*
X16348Y120984D01*
X16381Y120749D01*
X14961Y120226D01*
G37*
G36*
X18773Y120231D02*
X17364Y120750D01*
X17407Y120994D01*
X60115Y120994D01*
X60116Y120700D01*
X18773Y120231D01*
G37*
G36*
X58727Y120231D02*
X18652Y120231D01*
X18650Y120525D01*
X60091Y120995D01*
X60136Y120750D01*
X58727Y120231D01*
G37*
G36*
X62538Y120226D02*
X61118Y120749D01*
X61151Y120984D01*
X66685Y121397D01*
X66725Y121124D01*
X62538Y120226D01*
G37*
G36*
X12269Y119702D02*
X10758Y121213D01*
X10863Y121407D01*
X15099Y120498D01*
X15097Y120257D01*
X12269Y119702D01*
G37*
G36*
X14494Y119714D02*
X12184Y119714D01*
X12158Y119981D01*
X15029Y120545D01*
X15132Y120352D01*
X14494Y119714D01*
G37*
G36*
X63030Y119689D02*
X62382Y120337D01*
X62432Y120505D01*
X66661Y121413D01*
X66740Y121152D01*
X63030Y119689D01*
G37*
G36*
X65242Y119714D02*
X62944Y119714D01*
X62898Y119954D01*
X66617Y121421D01*
X66748Y121220D01*
X65242Y119714D01*
G37*
G36*
X19694Y119275D02*
X18625Y120344D01*
X18700Y120527D01*
X58846Y120527D01*
X58850Y120235D01*
X19694Y119275D01*
G37*
G36*
X57806Y119276D02*
X19608Y119276D01*
X19604Y119568D01*
X58797Y120529D01*
X58875Y120345D01*
X57806Y119276D01*
G37*
G36*
X1579Y119043D02*
X1397Y119119D01*
X1397Y123759D01*
X1592Y123830D01*
X3767Y121231D01*
X1579Y119043D01*
G37*
G36*
X1400Y119068D02*
X1030Y135837D01*
X1324Y135845D01*
X1692Y123658D01*
X1692Y119072D01*
X1400Y119068D01*
G37*
G36*
X75920Y119043D02*
X73732Y121231D01*
X75907Y123830D01*
X76102Y123759D01*
X76102Y119119D01*
X75920Y119043D01*
G37*
G36*
X76099Y119068D02*
X75807Y119072D01*
X75807Y123658D01*
X76165Y135845D01*
X76459Y135837D01*
X76099Y119068D01*
G37*
G36*
X20119Y118005D02*
X19542Y119571D01*
X57890Y119571D01*
X57895Y119281D01*
X20119Y118005D01*
G37*
G36*
X57381Y118008D02*
X20076Y118008D01*
X20071Y118299D01*
X57960Y119579D01*
X57381Y118008D01*
G37*
G36*
X20073Y116690D02*
X20073Y118304D01*
X57423Y118304D01*
X57428Y118014D01*
X20073Y116690D01*
G37*
G36*
X57426Y116695D02*
X20076Y116695D01*
X20071Y116985D01*
X57426Y118309D01*
X57426Y116695D01*
G37*
G36*
X1400Y115632D02*
X1030Y135838D01*
X1325Y135844D01*
X1692Y119219D01*
X1692Y115635D01*
X1400Y115632D01*
G37*
G36*
X76099Y115632D02*
X75807Y115635D01*
X75807Y119219D01*
X76164Y135844D01*
X76459Y135838D01*
X76099Y115632D01*
G37*
G36*
X19539Y115420D02*
X20118Y116991D01*
X57423Y116991D01*
X57428Y116700D01*
X19539Y115420D01*
G37*
G36*
X57957Y115428D02*
X19609Y115428D01*
X19604Y115718D01*
X57380Y116994D01*
X57957Y115428D01*
G37*
G36*
X15029Y114454D02*
X12158Y115018D01*
X12184Y115285D01*
X14494Y115285D01*
X15132Y114647D01*
X15029Y114454D01*
G37*
G36*
X18702Y114470D02*
X18624Y114654D01*
X19693Y115723D01*
X57891Y115723D01*
X57895Y115431D01*
X18702Y114470D01*
G37*
G36*
X58799Y114472D02*
X18653Y114472D01*
X18649Y114764D01*
X57805Y115724D01*
X58874Y114655D01*
X58799Y114472D01*
G37*
G36*
X62470Y114454D02*
X62367Y114647D01*
X63005Y115285D01*
X65315Y115285D01*
X65341Y115018D01*
X62470Y114454D01*
G37*
G36*
X16318Y113976D02*
X12142Y115029D01*
X12205Y115310D01*
X14990Y114763D01*
X16400Y114243D01*
X16318Y113976D01*
G37*
G36*
X17408Y114004D02*
X17363Y114249D01*
X18772Y114768D01*
X58847Y114768D01*
X58849Y114474D01*
X17408Y114004D01*
G37*
G36*
X60092Y114005D02*
X17384Y114005D01*
X17383Y114299D01*
X58726Y114768D01*
X60135Y114249D01*
X60092Y114005D01*
G37*
G36*
X61181Y113976D02*
X61099Y114243D01*
X62509Y114763D01*
X65294Y115310D01*
X65357Y115029D01*
X61181Y113976D01*
G37*
G36*
X10849Y113604D02*
X10763Y113791D01*
X12273Y115301D01*
X16376Y114265D01*
X16354Y114015D01*
X10849Y113604D01*
G37*
G36*
X10798Y113611D02*
X10787Y113896D01*
X16212Y114301D01*
X61428Y114301D01*
X61429Y114007D01*
X10798Y113611D01*
G37*
G36*
X66650Y113604D02*
X61145Y114015D01*
X61123Y114265D01*
X65226Y115301D01*
X66736Y113791D01*
X66650Y113604D01*
G37*
G36*
X66701Y113612D02*
X10793Y113612D01*
X10792Y113906D01*
X61286Y114301D01*
X66712Y113896D01*
X66701Y113612D01*
G37*
G36*
X3419Y113217D02*
X3419Y113907D01*
X74079Y113907D01*
X74080Y113613D01*
X3419Y113217D01*
G37*
G36*
X3520Y113192D02*
X1341Y115795D01*
X1549Y115986D01*
X3714Y113821D01*
X3714Y113262D01*
X3520Y113192D01*
G37*
G36*
X10940Y113218D02*
X3420Y113218D01*
X3419Y113512D01*
X74079Y113908D01*
X74081Y113613D01*
X10940Y113218D01*
G37*
G36*
X66563Y113218D02*
X10793Y113218D01*
X10792Y113512D01*
X74075Y113908D01*
X74084Y113620D01*
X66563Y113218D01*
G37*
G36*
X74080Y113218D02*
X66415Y113218D01*
X66408Y113505D01*
X74080Y113915D01*
X74080Y113218D01*
G37*
G36*
X73979Y113192D02*
X73785Y113262D01*
X73785Y113821D01*
X75950Y115986D01*
X76158Y115795D01*
X73979Y113192D01*
G37*
G36*
X16210Y112573D02*
X10784Y113236D01*
X10801Y113513D01*
X66706Y113513D01*
X66708Y113220D01*
X16210Y112573D01*
G37*
G36*
X17532Y112573D02*
X16071Y112573D01*
X16069Y112867D01*
X66705Y113515D01*
X66709Y113220D01*
X17532Y112573D01*
G37*
G36*
X14957Y112099D02*
X10769Y113260D01*
X10822Y113529D01*
X16351Y112853D01*
X16378Y112623D01*
X14957Y112099D01*
G37*
G36*
X18774Y112106D02*
X17365Y112625D01*
X17406Y112867D01*
X66704Y113515D01*
X66709Y113221D01*
X18774Y112106D01*
G37*
G36*
X12263Y111834D02*
X10755Y113342D01*
X10870Y113538D01*
X15108Y112363D01*
X15087Y112119D01*
X12263Y111834D01*
G37*
G36*
X14745Y111840D02*
X12178Y111840D01*
X12163Y112120D01*
X15039Y112411D01*
X15128Y112223D01*
X14745Y111840D01*
G37*
G36*
X1579Y111169D02*
X1397Y111245D01*
X1397Y115885D01*
X1592Y115955D01*
X3767Y113357D01*
X1579Y111169D01*
G37*
G36*
X1399Y111195D02*
X1031Y135839D01*
X1326Y135843D01*
X1692Y115783D01*
X1692Y111197D01*
X1399Y111195D01*
G37*
G36*
X64597Y111195D02*
X18651Y112109D01*
X18651Y112398D01*
X66655Y113516D01*
X66734Y113332D01*
X64597Y111195D01*
G37*
G36*
X75920Y111169D02*
X73732Y113357D01*
X75907Y115955D01*
X76102Y115885D01*
X76102Y111245D01*
X75920Y111169D01*
G37*
G36*
X76100Y111195D02*
X75807Y111197D01*
X75807Y115783D01*
X76164Y135843D01*
X76458Y135839D01*
X76100Y111195D01*
G37*
G36*
X19693Y111151D02*
X18624Y112220D01*
X18702Y112403D01*
X64686Y111488D01*
X64683Y111196D01*
X19693Y111151D01*
G37*
G36*
X20119Y109880D02*
X19542Y111446D01*
X64682Y111491D01*
X64687Y111200D01*
X20119Y109880D01*
G37*
G36*
X20073Y108561D02*
X20073Y110174D01*
X64678Y111495D01*
X64691Y111205D01*
X20073Y108561D01*
G37*
G36*
X1399Y107759D02*
X1031Y135839D01*
X1326Y135843D01*
X1692Y111345D01*
X1692Y107761D01*
X1399Y107759D01*
G37*
G36*
X64685Y107757D02*
X20076Y108573D01*
X20070Y108857D01*
X64685Y111500D01*
X64685Y107757D01*
G37*
G36*
X76100Y107759D02*
X75807Y107761D01*
X75807Y111345D01*
X76163Y135843D01*
X76458Y135839D01*
X76100Y107759D01*
G37*
G36*
X19541Y107300D02*
X20119Y108868D01*
X64685Y108052D01*
X64684Y107761D01*
X19541Y107300D01*
G37*
G36*
X15019Y106321D02*
X12154Y107157D01*
X12190Y107411D01*
X14243Y107411D01*
X15136Y106518D01*
X15019Y106321D01*
G37*
G36*
X18703Y106344D02*
X18623Y106529D01*
X19692Y107597D01*
X64682Y108057D01*
X64688Y107764D01*
X18703Y106344D01*
G37*
G36*
X16311Y105844D02*
X12134Y107167D01*
X12219Y107446D01*
X14996Y106635D01*
X16404Y106117D01*
X16311Y105844D01*
G37*
G36*
X17411Y105875D02*
X17362Y106123D01*
X18770Y106642D01*
X64679Y108059D01*
X64690Y107766D01*
X17411Y105875D01*
G37*
G36*
X10844Y105735D02*
X10765Y105919D01*
X12277Y107431D01*
X16382Y106131D01*
X16347Y105884D01*
X10844Y105735D01*
G37*
G36*
X10796Y105735D02*
X10789Y106029D01*
X16216Y106176D01*
X17677Y106176D01*
X17680Y105884D01*
X10796Y105735D01*
G37*
G36*
X66657Y105737D02*
X17386Y105881D01*
X17381Y106170D01*
X64596Y108057D01*
X66733Y105920D01*
X66657Y105737D01*
G37*
G36*
X66706Y105738D02*
X10794Y105738D01*
X10791Y106030D01*
X17530Y106176D01*
X66707Y106033D01*
X66706Y105738D01*
G37*
G36*
X3419Y105343D02*
X3419Y106033D01*
X74079Y106033D01*
X74080Y105739D01*
X3419Y105343D01*
G37*
G36*
X3520Y105318D02*
X1341Y107921D01*
X1549Y108112D01*
X3714Y105946D01*
X3714Y105388D01*
X3520Y105318D01*
G37*
G36*
X10940Y105344D02*
X3420Y105344D01*
X3419Y105638D01*
X74079Y106034D01*
X74081Y105739D01*
X10940Y105344D01*
G37*
G36*
X66563Y105344D02*
X10793Y105344D01*
X10792Y105638D01*
X74075Y106034D01*
X74084Y105746D01*
X66563Y105344D01*
G37*
G36*
X74080Y105344D02*
X66415Y105344D01*
X66408Y105631D01*
X74080Y106041D01*
X74080Y105344D01*
G37*
G36*
X73979Y105318D02*
X73785Y105388D01*
X73785Y105946D01*
X75950Y108112D01*
X76158Y107921D01*
X73979Y105318D01*
G37*
G36*
X61847Y105073D02*
X10792Y105345D01*
X10793Y105639D01*
X66702Y105639D01*
X66711Y105352D01*
X61847Y105073D01*
G37*
G36*
X63162Y105073D02*
X61700Y105073D01*
X61691Y105360D01*
X66696Y105647D01*
X66716Y105356D01*
X63162Y105073D01*
G37*
G36*
X60600Y104606D02*
X10791Y105346D01*
X10794Y105640D01*
X61967Y105368D01*
X62010Y105125D01*
X60600Y104606D01*
G37*
G36*
X64422Y104597D02*
X62994Y105123D01*
X63026Y105359D01*
X66677Y105649D01*
X66730Y105395D01*
X64422Y104597D01*
G37*
G36*
X65060Y103909D02*
X64153Y104816D01*
X66624Y105670D01*
X66747Y105464D01*
X65060Y103909D01*
G37*
G36*
X65242Y103966D02*
X64963Y103966D01*
X64890Y104154D01*
X66565Y105698D01*
X66766Y105490D01*
X65242Y103966D01*
G37*
G36*
X59679Y103649D02*
X10789Y105349D01*
X10796Y105641D01*
X60675Y104900D01*
X60749Y104719D01*
X59679Y103649D01*
G37*
G36*
X1579Y103295D02*
X1397Y103371D01*
X1397Y108011D01*
X1592Y108081D01*
X3767Y105483D01*
X1579Y103295D01*
G37*
G36*
X1399Y103321D02*
X1031Y135839D01*
X1326Y135843D01*
X1692Y107908D01*
X1692Y103323D01*
X1399Y103321D01*
G37*
G36*
X12901Y103321D02*
X10765Y105458D01*
X10845Y105643D01*
X59770Y103941D01*
X59766Y103652D01*
X12901Y103321D01*
G37*
G36*
X75920Y103295D02*
X73732Y105483D01*
X75907Y108081D01*
X76102Y108011D01*
X76102Y103371D01*
X75920Y103295D01*
G37*
G36*
X76100Y103321D02*
X75807Y103323D01*
X75807Y107908D01*
X76163Y135843D01*
X76458Y135839D01*
X76100Y103321D01*
G37*
G36*
X59255Y102381D02*
X12813Y103325D01*
X12815Y103616D01*
X59832Y103948D01*
X59255Y102381D01*
G37*
G36*
X59301Y101063D02*
X12810Y103329D01*
X12820Y103620D01*
X59301Y102676D01*
X59301Y101063D01*
G37*
G36*
X1399Y99885D02*
X1031Y135839D01*
X1327Y135843D01*
X1692Y103470D01*
X1692Y99886D01*
X1399Y99885D01*
G37*
G36*
X12814Y99882D02*
X12814Y103625D01*
X59302Y101359D01*
X59299Y101074D01*
X12814Y99882D01*
G37*
G36*
X76100Y99885D02*
X75807Y99886D01*
X75807Y103470D01*
X76163Y135843D01*
X76458Y135839D01*
X76100Y99885D01*
G37*
G36*
X59832Y99802D02*
X12816Y99886D01*
X12813Y100177D01*
X59255Y101368D01*
X59832Y99802D01*
G37*
G36*
X60672Y98845D02*
X12813Y99889D01*
X12816Y100181D01*
X59681Y100098D01*
X60750Y99029D01*
X60672Y98845D01*
G37*
G36*
X64380Y98806D02*
X64230Y99010D01*
X64757Y99537D01*
X65297Y99537D01*
X65352Y99312D01*
X64380Y98806D01*
G37*
G36*
X61964Y98377D02*
X12811Y99890D01*
X12818Y100184D01*
X60603Y99142D01*
X62012Y98623D01*
X61964Y98377D01*
G37*
G36*
X10842Y97863D02*
X10766Y98046D01*
X12903Y100183D01*
X61992Y98671D01*
X61989Y98382D01*
X10842Y97863D01*
G37*
G36*
X10794Y97862D02*
X10791Y98157D01*
X61842Y98676D01*
X63303Y98676D01*
X63304Y98382D01*
X10794Y97862D01*
G37*
G36*
X66609Y97826D02*
X64278Y98900D01*
X64274Y99084D01*
X65209Y99570D01*
X66751Y98028D01*
X66609Y97826D01*
G37*
G36*
X66664Y97846D02*
X63021Y98399D01*
X62998Y98627D01*
X64430Y99155D01*
X66737Y98092D01*
X66664Y97846D01*
G37*
G36*
X66696Y97864D02*
X10793Y97864D01*
X10792Y98157D01*
X63166Y98676D01*
X66716Y98137D01*
X66696Y97864D01*
G37*
G36*
X3419Y97469D02*
X3419Y98159D01*
X74079Y98159D01*
X74080Y97865D01*
X3419Y97469D01*
G37*
G36*
X3520Y97444D02*
X1341Y100047D01*
X1549Y100238D01*
X3714Y98072D01*
X3714Y97514D01*
X3520Y97444D01*
G37*
G36*
X10940Y97470D02*
X3420Y97470D01*
X3419Y97764D01*
X74079Y98160D01*
X74081Y97865D01*
X10940Y97470D01*
G37*
G36*
X66563Y97470D02*
X10793Y97470D01*
X10792Y97764D01*
X74075Y98160D01*
X74084Y97872D01*
X66563Y97470D01*
G37*
G36*
X74080Y97470D02*
X66415Y97470D01*
X66408Y97757D01*
X74080Y98167D01*
X74080Y97470D01*
G37*
G36*
X73979Y97444D02*
X73785Y97514D01*
X73785Y98072D01*
X75950Y100238D01*
X76158Y100047D01*
X73979Y97444D01*
G37*
G36*
X13705Y96948D02*
X10781Y97497D01*
X10806Y97765D01*
X66706Y97765D01*
X66707Y97471D01*
X13705Y96948D01*
G37*
G36*
X15032Y96948D02*
X13571Y96948D01*
X13570Y97242D01*
X66705Y97767D01*
X66708Y97471D01*
X15032Y96948D01*
G37*
G36*
X12432Y96465D02*
X10758Y97560D01*
X10848Y97785D01*
X13856Y97220D01*
X13875Y96996D01*
X12432Y96465D01*
G37*
G36*
X16274Y96481D02*
X14865Y97000D01*
X14907Y97242D01*
X66704Y97767D01*
X66709Y97473D01*
X16274Y96481D01*
G37*
G36*
X12189Y96159D02*
X10741Y97607D01*
X10909Y97814D01*
X12683Y96653D01*
X12189Y96159D01*
G37*
G36*
X17195Y95524D02*
X16125Y96593D01*
X16198Y96775D01*
X66702Y97768D01*
X66711Y97476D01*
X17195Y95524D01*
G37*
G36*
X1579Y95421D02*
X1397Y95497D01*
X1397Y100137D01*
X1592Y100207D01*
X3767Y97609D01*
X1579Y95421D01*
G37*
G36*
X1398Y95447D02*
X1032Y135840D01*
X1327Y135842D01*
X1692Y100034D01*
X1692Y95449D01*
X1398Y95447D01*
G37*
G36*
X64598Y95448D02*
X17109Y95526D01*
X17104Y95816D01*
X66654Y97769D01*
X66735Y97584D01*
X64598Y95448D01*
G37*
G36*
X75920Y95421D02*
X73732Y97609D01*
X75907Y100207D01*
X76102Y100137D01*
X76102Y95497D01*
X75920Y95421D01*
G37*
G36*
X76101Y95447D02*
X75807Y95449D01*
X75807Y100034D01*
X76162Y135842D01*
X76457Y135840D01*
X76101Y95447D01*
G37*
G36*
X17619Y94256D02*
X17042Y95822D01*
X64683Y95743D01*
X64686Y95452D01*
X17619Y94256D01*
G37*
G36*
X17573Y92937D02*
X17573Y94550D01*
X64679Y95747D01*
X64690Y95456D01*
X17573Y92937D01*
G37*
G36*
X1398Y92011D02*
X1032Y135840D01*
X1327Y135842D01*
X1692Y95596D01*
X1692Y92012D01*
X1398Y92011D01*
G37*
G36*
X64685Y92009D02*
X17576Y92948D01*
X17571Y93233D01*
X64685Y95751D01*
X64685Y92009D01*
G37*
G36*
X76101Y92011D02*
X75807Y92012D01*
X75807Y95596D01*
X76162Y135842D01*
X76457Y135840D01*
X76101Y92011D01*
G37*
G36*
X17042Y91676D02*
X17619Y93243D01*
X64685Y92304D01*
X64684Y92013D01*
X17042Y91676D01*
G37*
G36*
X16203Y90720D02*
X16124Y90904D01*
X17192Y91972D01*
X64682Y92308D01*
X64687Y92016D01*
X16203Y90720D01*
G37*
G36*
X14910Y90251D02*
X14862Y90498D01*
X16271Y91017D01*
X64680Y92311D01*
X64689Y92017D01*
X14910Y90251D01*
G37*
G36*
X10892Y89950D02*
X10747Y90153D01*
X12062Y91468D01*
X12701Y90828D01*
X10892Y89950D01*
G37*
G36*
X10831Y89979D02*
X10765Y90216D01*
X12442Y91030D01*
X13880Y90501D01*
X13849Y90267D01*
X10831Y89979D01*
G37*
G36*
X10805Y89981D02*
X10781Y90270D01*
X13711Y90551D01*
X15174Y90551D01*
X15183Y90265D01*
X10805Y89981D01*
G37*
G36*
X10800Y89984D02*
X10785Y90275D01*
X15024Y90551D01*
X64679Y92312D01*
X64690Y92017D01*
X10800Y89984D01*
G37*
G36*
X66658Y89990D02*
X10795Y89990D01*
X10790Y90279D01*
X64596Y92309D01*
X66733Y90172D01*
X66658Y89990D01*
G37*
G36*
X3419Y89595D02*
X3419Y90285D01*
X74079Y90285D01*
X74080Y89990D01*
X3419Y89595D01*
G37*
G36*
X3520Y89570D02*
X1341Y92173D01*
X1549Y92364D01*
X3714Y90198D01*
X3714Y89640D01*
X3520Y89570D01*
G37*
G36*
X10940Y89596D02*
X3420Y89596D01*
X3419Y89890D01*
X74079Y90286D01*
X74081Y89991D01*
X10940Y89596D01*
G37*
G36*
X66563Y89596D02*
X10793Y89596D01*
X10792Y89890D01*
X74075Y90286D01*
X74084Y89998D01*
X66563Y89596D01*
G37*
G36*
X74080Y89596D02*
X66415Y89596D01*
X66408Y89883D01*
X74080Y90293D01*
X74080Y89596D01*
G37*
G36*
X73979Y89570D02*
X73785Y89640D01*
X73785Y90198D01*
X75950Y92364D01*
X76158Y92173D01*
X73979Y89570D01*
G37*
G36*
X65080Y88217D02*
X10791Y89600D01*
X10794Y89891D01*
X66660Y89891D01*
X66733Y89702D01*
X65080Y88217D01*
G37*
G36*
X65242Y88218D02*
X64923Y88218D01*
X64851Y88408D01*
X66567Y89949D01*
X66765Y89741D01*
X65242Y88218D01*
G37*
G36*
X1579Y87547D02*
X1397Y87623D01*
X1397Y92263D01*
X1592Y92333D01*
X3767Y89735D01*
X1579Y87547D01*
G37*
G36*
X1398Y87573D02*
X1032Y135840D01*
X1327Y135842D01*
X1692Y92160D01*
X1692Y87574D01*
X1398Y87573D01*
G37*
G36*
X12902Y87573D02*
X10765Y89710D01*
X10844Y89894D01*
X65174Y88510D01*
X65172Y88220D01*
X12902Y87573D01*
G37*
G36*
X75920Y87547D02*
X73732Y89735D01*
X75907Y92333D01*
X76102Y92263D01*
X76102Y87623D01*
X75920Y87547D01*
G37*
G36*
X76101Y87573D02*
X75807Y87574D01*
X75807Y92160D01*
X76162Y135842D01*
X76457Y135840D01*
X76101Y87573D01*
G37*
G36*
X62696Y85828D02*
X12813Y87579D01*
X12816Y87867D01*
X65122Y88514D01*
X65200Y88331D01*
X62696Y85828D01*
G37*
G36*
X62785Y84158D02*
X12807Y87584D01*
X12822Y87874D01*
X62785Y86121D01*
X62785Y84158D01*
G37*
G36*
X1398Y84137D02*
X1032Y135840D01*
X1327Y135842D01*
X1692Y87722D01*
X1692Y84138D01*
X1398Y84137D01*
G37*
G36*
X12814Y84138D02*
X12814Y87880D01*
X62790Y84453D01*
X62780Y84168D01*
X12814Y84138D01*
G37*
G36*
X76101Y84137D02*
X75807Y84138D01*
X75807Y87722D01*
X76162Y135842D01*
X76457Y135840D01*
X76101Y84137D01*
G37*
G36*
X62181Y83651D02*
X12814Y84139D01*
X12815Y84433D01*
X62736Y84464D01*
X62811Y84281D01*
X62181Y83651D01*
G37*
G36*
X61755Y82380D02*
X12811Y84143D01*
X12818Y84434D01*
X62331Y83944D01*
X61755Y82380D01*
G37*
G36*
X10842Y82115D02*
X10766Y82298D01*
X12903Y84435D01*
X61803Y82673D01*
X61798Y82384D01*
X10842Y82115D01*
G37*
G36*
X3424Y81720D02*
X3415Y82009D01*
X10936Y82411D01*
X61799Y82679D01*
X61802Y82385D01*
X3424Y81720D01*
G37*
G36*
X3419Y81714D02*
X3419Y82411D01*
X11084Y82411D01*
X11091Y82124D01*
X3419Y81714D01*
G37*
G36*
X3520Y81695D02*
X1341Y84299D01*
X1549Y84490D01*
X3714Y82324D01*
X3714Y81766D01*
X3520Y81695D01*
G37*
G36*
X10941Y81722D02*
X3420Y81722D01*
X3418Y82016D01*
X61799Y82680D01*
X61802Y82385D01*
X10941Y81722D01*
G37*
G36*
X68198Y81711D02*
X68198Y82411D01*
X74075Y82411D01*
X74085Y82126D01*
X68198Y81711D01*
G37*
G36*
X74080Y81722D02*
X68203Y81722D01*
X68193Y82007D01*
X74080Y82422D01*
X74080Y81722D01*
G37*
G36*
X73979Y81695D02*
X73785Y81766D01*
X73785Y82324D01*
X75950Y84490D01*
X76158Y84299D01*
X73979Y81695D01*
G37*
G36*
X61801Y81068D02*
X10792Y81724D01*
X10792Y82015D01*
X61801Y82681D01*
X61801Y81068D01*
G37*
G36*
X11864Y80737D02*
X10765Y81835D01*
X10843Y82018D01*
X61801Y81364D01*
X61800Y81071D01*
X11864Y80737D01*
G37*
G36*
X13637Y80738D02*
X11777Y80738D01*
X11776Y81032D01*
X61800Y81367D01*
X61802Y81071D01*
X13637Y80738D01*
G37*
G36*
X62333Y79798D02*
X13488Y80741D01*
X13489Y81032D01*
X61756Y81366D01*
X62333Y79798D01*
G37*
G36*
X1579Y79673D02*
X1397Y79749D01*
X1397Y84389D01*
X1592Y84459D01*
X3767Y81861D01*
X1579Y79673D01*
G37*
G36*
X1398Y79699D02*
X1032Y135840D01*
X1327Y135842D01*
X1692Y84286D01*
X1692Y79700D01*
X1398Y79699D01*
G37*
G36*
X75920Y79673D02*
X73732Y81861D01*
X75907Y84459D01*
X76102Y84389D01*
X76102Y79749D01*
X75920Y79673D01*
G37*
G36*
X76101Y79699D02*
X75807Y79700D01*
X75807Y84286D01*
X76162Y135842D01*
X76457Y135840D01*
X76101Y79699D01*
G37*
G36*
X63170Y78844D02*
X13484Y80743D01*
X13493Y81036D01*
X62182Y80097D01*
X63251Y79028D01*
X63170Y78844D01*
G37*
G36*
X64463Y78375D02*
X13482Y80745D01*
X13495Y81038D01*
X63104Y79142D01*
X64513Y78623D01*
X64463Y78375D01*
G37*
G36*
X17071Y77242D02*
X13460Y80852D01*
X13542Y81038D01*
X64492Y78669D01*
X64489Y78384D01*
X17071Y77242D01*
G37*
G36*
X16986Y77240D02*
X16979Y77535D01*
X64341Y78676D01*
X64683Y78676D01*
X64686Y78384D01*
X16986Y77240D01*
G37*
G36*
X1398Y76263D02*
X1032Y135840D01*
X1327Y135842D01*
X1692Y79848D01*
X1692Y76264D01*
X1398Y76263D01*
G37*
G36*
X64685Y76261D02*
X16983Y77246D01*
X16983Y77535D01*
X64685Y78679D01*
X64685Y76261D01*
G37*
G36*
X76101Y76263D02*
X75807Y76264D01*
X75807Y79848D01*
X76162Y135842D01*
X76457Y135840D01*
X76101Y76263D01*
G37*
G36*
X17220Y75815D02*
X16958Y77542D01*
X64685Y76556D01*
X64684Y76265D01*
X17220Y75815D01*
G37*
G36*
X20783Y75816D02*
X17199Y75816D01*
X17198Y76110D01*
X64683Y76560D01*
X64686Y76265D01*
X20783Y75816D01*
G37*
G36*
X25221Y75816D02*
X20636Y75816D01*
X20634Y76110D01*
X64683Y76560D01*
X64686Y76265D01*
X25221Y75816D01*
G37*
G36*
X28657Y75816D02*
X25074Y75816D01*
X25072Y76110D01*
X64683Y76561D01*
X64686Y76266D01*
X28657Y75816D01*
G37*
G36*
X33095Y75816D02*
X28510Y75816D01*
X28508Y76110D01*
X64683Y76561D01*
X64686Y76266D01*
X33095Y75816D01*
G37*
G36*
X36532Y75816D02*
X32948Y75816D01*
X32946Y76110D01*
X64682Y76561D01*
X64687Y76266D01*
X36532Y75816D01*
G37*
G36*
X40970Y75816D02*
X36384Y75816D01*
X36382Y76109D01*
X64682Y76561D01*
X64687Y76267D01*
X40970Y75816D01*
G37*
G36*
X44406Y75816D02*
X40822Y75816D01*
X40819Y76109D01*
X64681Y76562D01*
X64688Y76267D01*
X44406Y75816D01*
G37*
G36*
X48845Y75816D02*
X44259Y75816D01*
X44255Y76108D01*
X64681Y76562D01*
X64688Y76268D01*
X48845Y75816D01*
G37*
G36*
X52281Y75816D02*
X48697Y75816D01*
X48693Y76107D01*
X64680Y76563D01*
X64689Y76269D01*
X52281Y75816D01*
G37*
G36*
X56721Y75816D02*
X52134Y75816D01*
X52128Y76106D01*
X64678Y76564D01*
X64691Y76272D01*
X56721Y75816D01*
G37*
G36*
X60160Y75816D02*
X56573Y75816D01*
X56565Y76103D01*
X64673Y76567D01*
X64696Y76279D01*
X60160Y75816D01*
G37*
G36*
X17165Y75574D02*
X16983Y75650D01*
X16983Y77528D01*
X17256Y77549D01*
X17504Y75912D01*
X17165Y75574D01*
G37*
G36*
X66633Y74219D02*
X59997Y75850D01*
X60014Y76098D01*
X64592Y76565D01*
X66743Y74414D01*
X66633Y74219D01*
G37*
G36*
X22796Y73742D02*
X20608Y75929D01*
X20684Y76112D01*
X25324Y76112D01*
X25394Y75917D01*
X22796Y73742D01*
G37*
G36*
X23259Y73794D02*
X22701Y73794D01*
X22631Y73989D01*
X25234Y76168D01*
X25425Y75960D01*
X23259Y73794D01*
G37*
G36*
X30670Y73742D02*
X28482Y75929D01*
X28558Y76112D01*
X33198Y76112D01*
X33268Y75917D01*
X30670Y73742D01*
G37*
G36*
X31133Y73794D02*
X30575Y73794D01*
X30505Y73989D01*
X33108Y76168D01*
X33299Y75960D01*
X31133Y73794D01*
G37*
G36*
X38544Y73742D02*
X36356Y75929D01*
X36432Y76112D01*
X41072Y76112D01*
X41143Y75917D01*
X38544Y73742D01*
G37*
G36*
X39008Y73794D02*
X38449Y73794D01*
X38379Y73989D01*
X40982Y76168D01*
X41173Y75960D01*
X39008Y73794D01*
G37*
G36*
X46418Y73742D02*
X44230Y75929D01*
X44306Y76112D01*
X48946Y76112D01*
X49017Y75917D01*
X46418Y73742D01*
G37*
G36*
X46882Y73794D02*
X46323Y73794D01*
X46253Y73989D01*
X48856Y76168D01*
X49047Y75960D01*
X46882Y73794D01*
G37*
G36*
X54292Y73742D02*
X52104Y75929D01*
X52180Y76112D01*
X56820Y76112D01*
X56891Y75917D01*
X54292Y73742D01*
G37*
G36*
X54756Y73794D02*
X54197Y73794D01*
X54127Y73989D01*
X56730Y76168D01*
X56921Y75960D01*
X54756Y73794D01*
G37*
G36*
X62120Y73788D02*
X59969Y75939D01*
X60079Y76134D01*
X66715Y74503D01*
X66698Y74255D01*
X62120Y73788D01*
G37*
G36*
X62037Y73789D02*
X62017Y74074D01*
X66551Y74537D01*
X74077Y74537D01*
X74083Y74247D01*
X62037Y73789D01*
G37*
G36*
X64476Y68638D02*
X61947Y74081D01*
X74041Y74541D01*
X74106Y74321D01*
X64476Y68638D01*
G37*
G36*
X75652Y68700D02*
X64429Y68700D01*
X64369Y68918D01*
X74023Y74614D01*
X75652Y68700D01*
G37*
G36*
X75349Y68688D02*
X73767Y74433D01*
X75922Y76588D01*
X76108Y76504D01*
X75597Y68714D01*
X75349Y68688D01*
G37*
G36*
X76276Y67821D02*
X75306Y68791D01*
X75816Y76561D01*
X76096Y76557D01*
X76460Y67903D01*
X76276Y67821D01*
G37*
G36*
X76167Y67847D02*
X75807Y76409D01*
X76162Y135841D01*
X76456Y135841D01*
X76456Y67853D01*
X76167Y67847D01*
G37*
G36*
X63546Y67644D02*
X63378Y67693D01*
X62002Y74040D01*
X62253Y74124D01*
X64719Y68817D01*
X63546Y67644D01*
G37*
G36*
X22944Y66417D02*
X22657Y66425D01*
X22657Y74090D01*
X23354Y74090D01*
X22944Y66417D01*
G37*
G36*
X23346Y66421D02*
X22649Y66421D01*
X23059Y74093D01*
X23346Y74086D01*
X23346Y66421D01*
G37*
G36*
X30818Y66417D02*
X30531Y66425D01*
X30531Y74090D01*
X31228Y74090D01*
X30818Y66417D01*
G37*
G36*
X31220Y66421D02*
X30523Y66421D01*
X30933Y74093D01*
X31220Y74086D01*
X31220Y66421D01*
G37*
G36*
X38692Y66417D02*
X38405Y66425D01*
X38405Y74090D01*
X39102Y74090D01*
X38692Y66417D01*
G37*
G36*
X39094Y66421D02*
X38397Y66421D01*
X38807Y74093D01*
X39094Y74086D01*
X39094Y66421D01*
G37*
G36*
X46566Y66417D02*
X46279Y66425D01*
X46279Y74090D01*
X46976Y74090D01*
X46566Y66417D01*
G37*
G36*
X46968Y66421D02*
X46271Y66421D01*
X46681Y74093D01*
X46968Y74086D01*
X46968Y66421D01*
G37*
G36*
X54440Y66417D02*
X54153Y66425D01*
X54153Y74090D01*
X54850Y74090D01*
X54440Y66417D01*
G37*
G36*
X54842Y66421D02*
X54145Y66421D01*
X54555Y74093D01*
X54842Y74086D01*
X54842Y66421D01*
G37*
G36*
X62205Y66395D02*
X62027Y66472D01*
X62027Y74075D01*
X62291Y74103D01*
X63665Y67759D01*
X62205Y66395D01*
G37*
G36*
X52612Y64693D02*
X52425Y64902D01*
X54240Y66716D01*
X54799Y66716D01*
X54868Y66520D01*
X52612Y64693D01*
G37*
G36*
X56466Y64749D02*
X52524Y64749D01*
X52454Y64945D01*
X54705Y66767D01*
X56541Y64931D01*
X56466Y64749D01*
G37*
G36*
X60500Y64688D02*
X60294Y64897D01*
X62072Y66675D01*
X63510Y68018D01*
X63711Y67806D01*
X60500Y64688D01*
G37*
G36*
X46419Y64727D02*
X46160Y64774D01*
X46288Y66716D01*
X47019Y66716D01*
X46419Y64727D01*
G37*
G36*
X48592Y64749D02*
X46117Y64749D01*
X46750Y66848D01*
X48667Y64931D01*
X48592Y64749D01*
G37*
G36*
X52783Y64749D02*
X52480Y64749D01*
X52480Y65044D01*
X56515Y65044D01*
X56515Y64749D01*
X52783Y64749D01*
G37*
G36*
X54716Y64749D02*
X52636Y64749D01*
X52636Y65044D01*
X56515Y65044D01*
X56515Y64749D01*
X54716Y64749D01*
G37*
G36*
X61255Y64749D02*
X60403Y64749D01*
X60328Y64933D01*
X63500Y68013D01*
X63705Y67827D01*
X61255Y64749D01*
G37*
G36*
X20769Y64343D02*
X20578Y64551D01*
X22743Y66716D01*
X23302Y66716D01*
X23372Y66522D01*
X20769Y64343D01*
G37*
G36*
X25319Y64399D02*
X20679Y64399D01*
X20608Y64594D01*
X23207Y66769D01*
X25395Y64581D01*
X25319Y64399D01*
G37*
G36*
X28643Y64343D02*
X28452Y64551D01*
X30617Y66716D01*
X31176Y66716D01*
X31246Y66522D01*
X28643Y64343D01*
G37*
G36*
X33193Y64399D02*
X28553Y64399D01*
X28482Y64594D01*
X31081Y66769D01*
X33269Y64581D01*
X33193Y64399D01*
G37*
G36*
X36517Y64343D02*
X36326Y64551D01*
X38491Y66716D01*
X39050Y66716D01*
X39120Y66522D01*
X36517Y64343D01*
G37*
G36*
X41067Y64399D02*
X36427Y64399D01*
X36357Y64594D01*
X38955Y66769D01*
X41143Y64581D01*
X41067Y64399D01*
G37*
G36*
X44324Y64382D02*
X44223Y64574D01*
X46395Y66745D01*
X46581Y66661D01*
X46455Y64772D01*
X44324Y64382D01*
G37*
G36*
X11481Y64331D02*
X10788Y74446D01*
X11584Y75242D01*
X11766Y75166D01*
X11766Y64340D01*
X11481Y64331D01*
G37*
G36*
X11572Y64306D02*
X3393Y74369D01*
X3474Y74537D01*
X11078Y74537D01*
X11773Y64385D01*
X11572Y64306D01*
G37*
G36*
X11600Y64276D02*
X1341Y76424D01*
X1549Y76616D01*
X3677Y74488D01*
X11825Y64463D01*
X11600Y64276D01*
G37*
G36*
X25513Y64217D02*
X19200Y64403D01*
X19204Y64694D01*
X44552Y64694D01*
X44553Y64401D01*
X25513Y64217D01*
G37*
G36*
X26986Y64217D02*
X25367Y64217D01*
X25366Y64511D01*
X44551Y64696D01*
X44554Y64401D01*
X26986Y64217D01*
G37*
G36*
X34242Y64148D02*
X26837Y64218D01*
X26837Y64511D01*
X44550Y64696D01*
X44555Y64403D01*
X34242Y64148D01*
G37*
G36*
X38912Y64149D02*
X34095Y64149D01*
X34091Y64440D01*
X44547Y64698D01*
X44557Y64406D01*
X38912Y64149D01*
G37*
G36*
X39845Y64149D02*
X38764Y64149D01*
X38757Y64437D01*
X44545Y64701D01*
X44559Y64407D01*
X39845Y64149D01*
G37*
G36*
X44729Y64149D02*
X39697Y64149D01*
X39689Y64436D01*
X44501Y64700D01*
X44729Y64149D01*
G37*
G36*
X44424Y64113D02*
X44198Y64659D01*
X46425Y65066D01*
X46493Y64799D01*
X44424Y64113D01*
G37*
G36*
X2964Y63815D02*
X1385Y76502D01*
X1587Y76591D01*
X11790Y64509D01*
X11718Y64341D01*
X2964Y63815D01*
G37*
G36*
X4411Y63823D02*
X2950Y63823D01*
X2941Y64110D01*
X11756Y64639D01*
X11776Y64346D01*
X4411Y63823D01*
G37*
G36*
X9359Y63823D02*
X4264Y63823D01*
X4253Y64108D01*
X11745Y64640D01*
X11785Y64369D01*
X9359Y63823D01*
G37*
G36*
X10693Y63823D02*
X9211Y63823D01*
X9182Y64086D01*
X11712Y64655D01*
X11802Y64413D01*
X10693Y63823D01*
G37*
G36*
X53750Y63721D02*
X52609Y64862D01*
X52685Y65044D01*
X54814Y65044D01*
X54890Y64862D01*
X53750Y63721D01*
G37*
G36*
X45303Y63674D02*
X44352Y64215D01*
X44371Y64406D01*
X46380Y65073D01*
X46503Y64874D01*
X45303Y63674D01*
G37*
G36*
X62287Y63584D02*
X60986Y64885D01*
X63465Y67999D01*
X63682Y67882D01*
X62287Y63584D01*
G37*
G36*
X24113Y63691D02*
X19190Y64421D01*
X19215Y64698D01*
X25640Y64509D01*
X25680Y64268D01*
X24113Y63691D01*
G37*
G36*
X28381Y63693D02*
X26817Y64269D01*
X26862Y64513D01*
X34383Y64442D01*
X34393Y64160D01*
X28381Y63693D01*
G37*
G36*
X39375Y63621D02*
X38734Y64262D01*
X38810Y64444D01*
X39939Y64444D01*
X40015Y64262D01*
X39375Y63621D01*
G37*
G36*
X45243Y63353D02*
X44313Y64283D01*
X44469Y64488D01*
X45426Y63944D01*
X45425Y63428D01*
X45243Y63353D01*
G37*
G36*
X1682Y63294D02*
X1394Y76548D01*
X1674Y76569D01*
X3254Y63873D01*
X1682Y63294D01*
G37*
G36*
X5657Y63353D02*
X4239Y63875D01*
X4282Y64119D01*
X9482Y64119D01*
X9499Y63842D01*
X5657Y63353D01*
G37*
G36*
X8102Y63356D02*
X5535Y63356D01*
X5518Y63633D01*
X9455Y64134D01*
X9518Y63878D01*
X8102Y63356D01*
G37*
G36*
X11959Y63334D02*
X10515Y63865D01*
X10502Y64056D01*
X11707Y64697D01*
X12092Y63460D01*
X11959Y63334D01*
G37*
G36*
X20463Y63225D02*
X19170Y64518D01*
X19266Y64708D01*
X24246Y63970D01*
X24243Y63712D01*
X20463Y63225D01*
G37*
G36*
X23696Y63233D02*
X20378Y63233D01*
X20360Y63509D01*
X24183Y64002D01*
X24276Y63813D01*
X23696Y63233D01*
G37*
G36*
X28814Y63222D02*
X28231Y63805D01*
X28296Y63982D01*
X34370Y64454D01*
X34405Y64174D01*
X28814Y63222D01*
G37*
G36*
X33386Y63233D02*
X28729Y63233D01*
X28706Y63503D01*
X34322Y64460D01*
X34421Y64268D01*
X33386Y63233D01*
G37*
G36*
X1324Y62710D02*
X1033Y62714D01*
X1033Y135841D01*
X1327Y135841D01*
X1692Y76410D01*
X1324Y62710D01*
G37*
G36*
X1214Y62684D02*
X1030Y62763D01*
X1401Y76559D01*
X1689Y76559D01*
X1974Y63444D01*
X1214Y62684D01*
G37*
G36*
X6610Y62359D02*
X5500Y63469D01*
X5575Y63652D01*
X8185Y63652D01*
X8248Y63441D01*
X6610Y62359D01*
G37*
G36*
X7181Y62401D02*
X6519Y62401D01*
X6456Y62611D01*
X8105Y63701D01*
X8274Y63494D01*
X7181Y62401D01*
G37*
G36*
X12869Y62350D02*
X11794Y63425D01*
X11439Y64562D01*
X11672Y64671D01*
X13075Y62518D01*
X12869Y62350D01*
G37*
G36*
X6772Y61735D02*
X6417Y62696D01*
X7332Y62696D01*
X6977Y61735D01*
X6772Y61735D01*
G37*
G36*
X63390Y58306D02*
X62068Y63864D01*
X63402Y67976D01*
X63651Y67936D01*
X63651Y58337D01*
X63390Y58306D01*
G37*
G36*
X18243Y57663D02*
X12766Y62451D01*
X11422Y64514D01*
X11629Y64681D01*
X18438Y57872D01*
X18243Y57663D01*
G37*
G36*
X18263Y57668D02*
X13223Y61186D01*
X12701Y62605D01*
X12890Y62735D01*
X18435Y57888D01*
X18263Y57668D01*
G37*
G36*
X18297Y57680D02*
X13198Y59871D01*
X13198Y61371D01*
X13357Y61453D01*
X18427Y57913D01*
X18297Y57680D01*
G37*
G36*
X18339Y57703D02*
X12678Y58582D01*
X13261Y60165D01*
X18411Y57953D01*
X18339Y57703D01*
G37*
G36*
X18365Y57714D02*
X12258Y58041D01*
X12190Y58220D01*
X12827Y58858D01*
X18394Y57993D01*
X18365Y57714D01*
G37*
G36*
X24188Y57251D02*
X18080Y57733D01*
X18091Y58016D01*
X23696Y58016D01*
X24274Y57438D01*
X24188Y57251D01*
G37*
G36*
X24234Y57250D02*
X12206Y58045D01*
X12223Y58338D01*
X18243Y58016D01*
X24255Y57542D01*
X24234Y57250D01*
G37*
G36*
X28313Y57250D02*
X28224Y57438D01*
X28803Y58016D01*
X33466Y58016D01*
X33479Y57735D01*
X28313Y57250D01*
G37*
G36*
X62244Y57217D02*
X62074Y57297D01*
X62074Y63990D01*
X62334Y64020D01*
X63668Y58414D01*
X62244Y57217D01*
G37*
G36*
X62119Y57241D02*
X62046Y57437D01*
X63512Y58669D01*
X64715Y57466D01*
X64642Y57285D01*
X62119Y57241D01*
G37*
G36*
X62075Y57243D02*
X62072Y57536D01*
X64540Y57578D01*
X75605Y57578D01*
X75606Y57283D01*
X62075Y57243D01*
G37*
G36*
X33917Y57227D02*
X28261Y57260D01*
X28248Y57540D01*
X33380Y58022D01*
X33993Y57409D01*
X33917Y57227D01*
G37*
G36*
X25629Y56725D02*
X12203Y58050D01*
X12226Y58340D01*
X24128Y57552D01*
X25687Y56978D01*
X25629Y56725D01*
G37*
G36*
X26867Y56728D02*
X26813Y56979D01*
X28376Y57554D01*
X33961Y57522D01*
X33971Y57238D01*
X26867Y56728D01*
G37*
G36*
X61610Y56723D02*
X61529Y56908D01*
X62160Y57538D01*
X75602Y57579D01*
X75609Y57289D01*
X61610Y56723D01*
G37*
G36*
X33966Y56215D02*
X26837Y56747D01*
X26837Y57022D01*
X33966Y57534D01*
X33966Y56215D01*
G37*
G36*
X33956Y56218D02*
X25362Y56746D01*
X25371Y57032D01*
X26990Y57032D01*
X33976Y56510D01*
X33956Y56218D01*
G37*
G36*
X62165Y56206D02*
X61532Y56838D01*
X61603Y57018D01*
X75596Y57584D01*
X75614Y57295D01*
X62165Y56206D01*
G37*
G36*
X33255Y55602D02*
X25353Y56759D01*
X25382Y57040D01*
X33923Y56516D01*
X33990Y56337D01*
X33255Y55602D01*
G37*
G36*
X33330Y55595D02*
X12199Y58053D01*
X12231Y58344D01*
X25532Y57031D01*
X33368Y55883D01*
X33330Y55595D01*
G37*
G36*
X12214Y55337D02*
X12214Y58349D01*
X33357Y55889D01*
X33343Y55613D01*
X12214Y55337D01*
G37*
G36*
X30360Y55339D02*
X12215Y55339D01*
X12213Y55632D01*
X33343Y55908D01*
X33358Y55625D01*
X30360Y55339D01*
G37*
G36*
X64518Y54912D02*
X62054Y56283D01*
X62100Y56497D01*
X75584Y57589D01*
X75624Y57316D01*
X64518Y54912D01*
G37*
G36*
X75605Y54921D02*
X64409Y54921D01*
X64380Y55185D01*
X75605Y57614D01*
X75605Y54921D01*
G37*
G36*
X75567Y54905D02*
X75310Y54939D01*
X75310Y57492D01*
X76284Y58466D01*
X76480Y58353D01*
X75567Y54905D01*
G37*
G36*
X76274Y54044D02*
X75293Y55024D01*
X76199Y58444D01*
X76456Y58411D01*
X76456Y54119D01*
X76274Y54044D01*
G37*
G36*
X63469Y53787D02*
X62038Y56384D01*
X62196Y56541D01*
X64784Y55102D01*
X63469Y53787D01*
G37*
G36*
X33168Y52463D02*
X30182Y55449D01*
X30246Y55625D01*
X33350Y55921D01*
X33350Y52538D01*
X33168Y52463D01*
G37*
G36*
X62678Y51950D02*
X62456Y51990D01*
X62064Y56465D01*
X62293Y56534D01*
X63669Y54036D01*
X62678Y51950D01*
G37*
G36*
X63651Y51968D02*
X62360Y51968D01*
X63421Y54201D01*
X63651Y54149D01*
X63651Y51968D01*
G37*
G36*
X62256Y51570D02*
X62074Y51645D01*
X62074Y56500D01*
X62356Y56512D01*
X62746Y52060D01*
X62256Y51570D01*
G37*
G36*
X62256Y51569D02*
X61961Y51692D01*
X62593Y52324D01*
X62802Y52116D01*
X62256Y51569D01*
G37*
G36*
X1244Y50746D02*
X1030Y58486D01*
X1214Y58565D01*
X1535Y58244D01*
X1535Y50750D01*
X1244Y50746D01*
G37*
G36*
X63651Y44515D02*
X59138Y45245D01*
X59160Y45516D01*
X63651Y45516D01*
X63651Y44515D01*
G37*
G36*
X64586Y43495D02*
X59121Y45270D01*
X59185Y45536D01*
X63574Y44827D01*
X64708Y43693D01*
X64586Y43495D01*
G37*
G36*
X60414Y43524D02*
X59114Y45371D01*
X59241Y45542D01*
X64687Y43773D01*
X64647Y43524D01*
X60414Y43524D01*
G37*
G36*
X59490Y42461D02*
X59311Y42529D01*
X59142Y45471D01*
X59353Y45545D01*
X60683Y43655D01*
X59490Y42461D01*
G37*
G36*
X6124Y40996D02*
X5960Y41090D01*
X6386Y45910D01*
X12690Y45910D01*
X12755Y45704D01*
X6124Y40996D01*
G37*
G36*
X6032Y41006D02*
X1200Y50944D01*
X1403Y51089D01*
X6674Y45818D01*
X6253Y41046D01*
X6032Y41006D01*
G37*
G36*
X11497Y41024D02*
X6008Y41024D01*
X5942Y41229D01*
X12581Y45942D01*
X12751Y45825D01*
X11497Y41024D01*
G37*
G36*
X12725Y40933D02*
X11195Y41036D01*
X12472Y45925D01*
X12730Y45892D01*
X12725Y40933D01*
G37*
G36*
X59429Y40936D02*
X59149Y40950D01*
X59149Y45512D01*
X59435Y45520D01*
X59601Y42630D01*
X59429Y40936D01*
G37*
G36*
X13109Y40448D02*
X11214Y41072D01*
X11263Y41327D01*
X12643Y41234D01*
X13231Y40646D01*
X13109Y40448D01*
G37*
G36*
X12155Y40191D02*
X11196Y41149D01*
X11319Y41348D01*
X13192Y40731D01*
X13191Y40516D01*
X12155Y40191D01*
G37*
G36*
X12839Y40211D02*
X12069Y40211D01*
X12031Y40461D01*
X13110Y40800D01*
X13230Y40602D01*
X12839Y40211D01*
G37*
G36*
X59262Y39984D02*
X58621Y40625D01*
X59262Y41265D01*
X59444Y41189D01*
X59444Y40060D01*
X59262Y39984D01*
G37*
G36*
X59434Y40006D02*
X59149Y40015D01*
X59149Y41098D01*
X59321Y42792D01*
X59609Y42769D01*
X59434Y40006D01*
G37*
G36*
X5015Y39862D02*
X1203Y50980D01*
X1459Y51086D01*
X6294Y41141D01*
X5015Y39862D01*
G37*
G36*
X59313Y37214D02*
X59148Y40159D01*
X59315Y42785D01*
X59600Y42776D01*
X59600Y37222D01*
X59313Y37214D01*
G37*
G36*
X66189Y36180D02*
X65060Y36180D01*
X64984Y36362D01*
X65625Y37003D01*
X66265Y36362D01*
X66189Y36180D01*
G37*
G36*
X70679Y36162D02*
X70577Y36355D01*
X71419Y37197D01*
X72624Y36753D01*
X72606Y36529D01*
X70679Y36162D01*
G37*
G36*
X70633Y36166D02*
X70591Y36446D01*
X72454Y36801D01*
X73921Y36801D01*
X73936Y36521D01*
X70633Y36166D01*
G37*
G36*
X59431Y35337D02*
X59149Y35349D01*
X59149Y40302D01*
X59436Y40310D01*
X59601Y37364D01*
X59431Y35337D01*
G37*
G36*
X59304Y35316D02*
X59141Y35409D01*
X59314Y37472D01*
X59491Y37537D01*
X60719Y36308D01*
X59304Y35316D01*
G37*
G36*
X59195Y35335D02*
X59119Y35547D01*
X60444Y36475D01*
X70901Y36475D01*
X70911Y36191D01*
X59195Y35335D01*
G37*
G36*
X4965Y35304D02*
X1211Y50999D01*
X1481Y51077D01*
X5225Y40158D01*
X5225Y35334D01*
X4965Y35304D01*
G37*
G36*
X11885Y34827D02*
X11770Y35023D01*
X12135Y35388D01*
X12957Y35388D01*
X12992Y35132D01*
X11885Y34827D01*
G37*
G36*
X25010Y34827D02*
X24895Y35023D01*
X25260Y35388D01*
X26082Y35388D01*
X26117Y35132D01*
X25010Y34827D01*
G37*
G36*
X38139Y34824D02*
X38019Y35022D01*
X38410Y35413D01*
X39180Y35413D01*
X39218Y35163D01*
X38139Y34824D01*
G37*
G36*
X51264Y34824D02*
X51144Y35022D01*
X51535Y35413D01*
X52305Y35413D01*
X52343Y35163D01*
X51264Y34824D01*
G37*
G36*
X5112Y34359D02*
X4930Y34435D01*
X4930Y35564D01*
X5112Y35640D01*
X5753Y35000D01*
X5112Y34359D01*
G37*
G36*
X4963Y34372D02*
X1211Y51007D01*
X1497Y51073D01*
X5225Y35483D01*
X5225Y34401D01*
X4963Y34372D01*
G37*
G36*
X12453Y34293D02*
X11671Y35074D01*
X12884Y35409D01*
X13005Y35253D01*
X12453Y34293D01*
G37*
G36*
X25578Y34293D02*
X24796Y35074D01*
X26009Y35409D01*
X26130Y35253D01*
X25578Y34293D01*
G37*
G36*
X38709Y34287D02*
X37928Y35067D01*
X39103Y35436D01*
X39230Y35285D01*
X38709Y34287D01*
G37*
G36*
X51834Y34287D02*
X51053Y35067D01*
X52228Y35436D01*
X52355Y35285D01*
X51834Y34287D01*
G37*
G36*
X13708Y34299D02*
X12175Y34402D01*
X12796Y35481D01*
X13792Y34485D01*
X13708Y34299D01*
G37*
G36*
X26833Y34299D02*
X25300Y34402D01*
X25921Y35481D01*
X26917Y34485D01*
X26833Y34299D01*
G37*
G36*
X39958Y34299D02*
X38436Y34401D01*
X39015Y35512D01*
X40042Y34485D01*
X39958Y34299D01*
G37*
G36*
X53083Y34299D02*
X51561Y34401D01*
X52140Y35512D01*
X53167Y34485D01*
X53083Y34299D01*
G37*
G36*
X58175Y34291D02*
X58078Y34482D01*
X59231Y35634D01*
X70889Y36485D01*
X70921Y36203D01*
X58175Y34291D01*
G37*
G36*
X58133Y34286D02*
X58091Y34577D01*
X70739Y36474D01*
X73910Y36815D01*
X73945Y36527D01*
X58133Y34286D01*
G37*
G36*
X65261Y32224D02*
X65131Y32487D01*
X73722Y36789D01*
X75130Y37307D01*
X75240Y37048D01*
X65261Y32224D01*
G37*
G36*
X65343Y32263D02*
X58103Y34344D01*
X58119Y34582D01*
X73885Y36817D01*
X73959Y36577D01*
X65343Y32263D01*
G37*
G36*
X65431Y32239D02*
X57813Y34345D01*
X57848Y34600D01*
X58279Y34600D01*
X65511Y32522D01*
X65431Y32239D01*
G37*
G36*
X74807Y32273D02*
X65211Y32273D01*
X65158Y32502D01*
X75062Y37290D01*
X75203Y37194D01*
X74807Y32273D01*
G37*
G36*
X74783Y32254D02*
X74512Y32296D01*
X74906Y37186D01*
X75978Y38258D01*
X76173Y38150D01*
X74783Y32254D01*
G37*
G36*
X74778Y32243D02*
X74493Y32312D01*
X75862Y38118D01*
X76218Y39084D01*
X76486Y39002D01*
X74778Y32243D01*
G37*
G36*
X64321Y31204D02*
X57791Y34379D01*
X57886Y34631D01*
X65612Y32496D01*
X64321Y31204D01*
G37*
G36*
X75671Y31212D02*
X74507Y32376D01*
X76199Y39070D01*
X76467Y39026D01*
X75848Y31277D01*
X75671Y31212D01*
G37*
G36*
X26875Y30359D02*
X26582Y34600D01*
X27160Y34600D01*
X27160Y30369D01*
X26875Y30359D01*
G37*
G36*
X26918Y30341D02*
X25330Y34696D01*
X26879Y34591D01*
X27168Y30394D01*
X26918Y30341D01*
G37*
G36*
X13740Y30350D02*
X13458Y34600D01*
X14025Y34600D01*
X14025Y30359D01*
X13740Y30350D01*
G37*
G36*
X13782Y30331D02*
X12205Y34696D01*
X13754Y34591D01*
X14033Y30384D01*
X13782Y30331D01*
G37*
G36*
X39990Y30350D02*
X39708Y34600D01*
X40275Y34600D01*
X40275Y30359D01*
X39990Y30350D01*
G37*
G36*
X40032Y30331D02*
X38455Y34696D01*
X40004Y34591D01*
X40283Y30384D01*
X40032Y30331D01*
G37*
G36*
X53115Y30350D02*
X52833Y34600D01*
X53400Y34600D01*
X53400Y30359D01*
X53115Y30350D01*
G37*
G36*
X53157Y30331D02*
X51580Y34696D01*
X53129Y34591D01*
X53408Y30384D01*
X53157Y30331D01*
G37*
G36*
X57829Y30332D02*
X57829Y34689D01*
X64454Y31468D01*
X64420Y31252D01*
X57829Y30332D01*
G37*
G36*
X4956Y29707D02*
X1217Y51012D01*
X1500Y51069D01*
X5225Y34550D01*
X5225Y29730D01*
X4956Y29707D01*
G37*
G36*
X12274Y29640D02*
X12274Y34657D01*
X12518Y34700D01*
X14063Y30422D01*
X12274Y29640D01*
G37*
G36*
X25399Y29639D02*
X25399Y34657D01*
X25642Y34700D01*
X27198Y30433D01*
X25399Y29639D01*
G37*
G36*
X38524Y29640D02*
X38524Y34657D01*
X38768Y34700D01*
X40313Y30422D01*
X38524Y29640D01*
G37*
G36*
X51649Y29640D02*
X51649Y34657D01*
X51893Y34700D01*
X53438Y30422D01*
X51649Y29640D01*
G37*
G36*
X13245Y29661D02*
X12295Y29726D01*
X12256Y29955D01*
X13930Y30686D01*
X14068Y30484D01*
X13245Y29661D01*
G37*
G36*
X26370Y29661D02*
X25421Y29726D01*
X25381Y29954D01*
X27065Y30696D01*
X27203Y30494D01*
X26370Y29661D01*
G37*
G36*
X39495Y29661D02*
X38545Y29726D01*
X38506Y29955D01*
X40180Y30686D01*
X40318Y30484D01*
X39495Y29661D01*
G37*
G36*
X52620Y29661D02*
X51670Y29726D01*
X51631Y29955D01*
X53305Y30686D01*
X53443Y30484D01*
X52620Y29661D01*
G37*
G36*
X58622Y29648D02*
X57808Y30462D01*
X57866Y30636D01*
X64407Y31548D01*
X64464Y31278D01*
X58622Y29648D01*
G37*
G36*
X11532Y28836D02*
X11387Y29040D01*
X12364Y30018D01*
X13312Y29953D01*
X13355Y29730D01*
X11532Y28836D01*
G37*
G36*
X24657Y28836D02*
X24512Y29040D01*
X25489Y30018D01*
X26437Y29953D01*
X26480Y29730D01*
X24657Y28836D01*
G37*
G36*
X37782Y28836D02*
X37637Y29040D01*
X38614Y30018D01*
X39562Y29953D01*
X39605Y29730D01*
X37782Y28836D01*
G37*
G36*
X50907Y28836D02*
X50762Y29040D01*
X51739Y30018D01*
X52687Y29953D01*
X52730Y29730D01*
X50907Y28836D01*
G37*
G36*
X5612Y28247D02*
X4894Y29919D01*
X5096Y30056D01*
X6105Y29047D01*
X5812Y28252D01*
X5612Y28247D01*
G37*
G36*
X11753Y28126D02*
X11395Y29098D01*
X13235Y30000D01*
X13381Y29799D01*
X11753Y28126D01*
G37*
G36*
X24878Y28126D02*
X24520Y29098D01*
X26360Y30000D01*
X26506Y29799D01*
X24878Y28126D01*
G37*
G36*
X38003Y28126D02*
X37645Y29098D01*
X39485Y30000D01*
X39631Y29799D01*
X38003Y28126D01*
G37*
G36*
X51128Y28126D02*
X50770Y29098D01*
X52610Y30000D01*
X52756Y29799D01*
X51128Y28126D01*
G37*
G36*
X5582Y25431D02*
X4913Y29972D01*
X5162Y30043D01*
X5856Y28428D01*
X5856Y25451D01*
X5582Y25431D01*
G37*
G36*
X5587Y25419D02*
X1217Y51016D01*
X1507Y51067D01*
X5224Y29889D01*
X5876Y25465D01*
X5587Y25419D01*
G37*
G36*
X11912Y25422D02*
X11663Y25462D01*
X11663Y28457D01*
X13164Y30000D01*
X13365Y29879D01*
X11912Y25422D01*
G37*
G36*
X25037Y25422D02*
X24788Y25462D01*
X24788Y28457D01*
X26289Y30000D01*
X26490Y29879D01*
X25037Y25422D01*
G37*
G36*
X38162Y25422D02*
X37913Y25462D01*
X37913Y28457D01*
X39414Y30000D01*
X39615Y29879D01*
X38162Y25422D01*
G37*
G36*
X51287Y25422D02*
X51038Y25462D01*
X51038Y28457D01*
X52539Y30000D01*
X52740Y29879D01*
X51287Y25422D01*
G37*
G36*
X13152Y23998D02*
X11642Y25549D01*
X13087Y29979D01*
X13336Y29939D01*
X13336Y24073D01*
X13152Y23998D01*
G37*
G36*
X13272Y24011D02*
X11183Y24312D01*
X11753Y25859D01*
X13368Y24199D01*
X13272Y24011D01*
G37*
G36*
X26277Y23998D02*
X24767Y25549D01*
X26212Y29979D01*
X26461Y29939D01*
X26461Y24073D01*
X26277Y23998D01*
G37*
G36*
X26397Y24011D02*
X24308Y24312D01*
X24878Y25859D01*
X26493Y24199D01*
X26397Y24011D01*
G37*
G36*
X39402Y23998D02*
X37892Y25549D01*
X39337Y29979D01*
X39586Y29939D01*
X39586Y24073D01*
X39402Y23998D01*
G37*
G36*
X39522Y24011D02*
X37433Y24312D01*
X38003Y25859D01*
X39618Y24199D01*
X39522Y24011D01*
G37*
G36*
X52527Y23998D02*
X51017Y25549D01*
X52462Y29979D01*
X52711Y29939D01*
X52711Y24073D01*
X52527Y23998D01*
G37*
G36*
X52647Y24011D02*
X50558Y24312D01*
X51128Y25859D01*
X52743Y24199D01*
X52647Y24011D01*
G37*
G36*
X58717Y23998D02*
X58518Y24067D01*
X58518Y29925D01*
X64354Y31554D01*
X64473Y31376D01*
X58717Y23998D01*
G37*
G36*
X64438Y23453D02*
X58565Y24034D01*
X58496Y24194D01*
X64239Y31557D01*
X64438Y31488D01*
X64438Y23453D01*
G37*
G36*
X75850Y23466D02*
X75561Y23471D01*
X75561Y31389D01*
X76173Y39058D01*
X76462Y39041D01*
X75850Y23466D01*
G37*
G36*
X10437Y23391D02*
X10329Y23586D01*
X11333Y24589D01*
X13331Y24301D01*
X13341Y24056D01*
X10437Y23391D01*
G37*
G36*
X20155Y23360D02*
X19143Y24097D01*
X19143Y24499D01*
X19326Y24575D01*
X20332Y23568D01*
X20155Y23360D01*
G37*
G36*
X23562Y23391D02*
X23454Y23586D01*
X24458Y24589D01*
X26456Y24301D01*
X26466Y24056D01*
X23562Y23391D01*
G37*
G36*
X33280Y23360D02*
X32268Y24097D01*
X32268Y24499D01*
X32451Y24575D01*
X33457Y23568D01*
X33280Y23360D01*
G37*
G36*
X36687Y23391D02*
X36579Y23586D01*
X37583Y24589D01*
X39581Y24301D01*
X39591Y24056D01*
X36687Y23391D01*
G37*
G36*
X46405Y23360D02*
X45393Y24097D01*
X45393Y24499D01*
X45576Y24575D01*
X46582Y23568D01*
X46405Y23360D01*
G37*
G36*
X49812Y23391D02*
X49704Y23586D01*
X50708Y24589D01*
X52706Y24301D01*
X52716Y24056D01*
X49812Y23391D01*
G37*
G36*
X9259Y22955D02*
X9173Y23224D01*
X10470Y23702D01*
X13297Y24348D01*
X13367Y24067D01*
X9259Y22955D01*
G37*
G36*
X14325Y22987D02*
X9228Y22987D01*
X9193Y23243D01*
X13232Y24337D01*
X14400Y23169D01*
X14325Y22987D01*
G37*
G36*
X18177Y22966D02*
X18070Y23160D01*
X19276Y24366D01*
X20295Y23623D01*
X20257Y23437D01*
X18177Y22966D01*
G37*
G36*
X21411Y22987D02*
X18121Y22987D01*
X18092Y23249D01*
X20141Y23714D01*
X21454Y23230D01*
X21411Y22987D01*
G37*
G36*
X22384Y22955D02*
X22298Y23224D01*
X23595Y23702D01*
X26422Y24348D01*
X26492Y24067D01*
X22384Y22955D01*
G37*
G36*
X27450Y22987D02*
X22353Y22987D01*
X22318Y23243D01*
X26357Y24337D01*
X27525Y23169D01*
X27450Y22987D01*
G37*
G36*
X31302Y22966D02*
X31195Y23160D01*
X32401Y24366D01*
X33420Y23623D01*
X33382Y23437D01*
X31302Y22966D01*
G37*
G36*
X34536Y22987D02*
X31246Y22987D01*
X31217Y23249D01*
X33266Y23714D01*
X34579Y23230D01*
X34536Y22987D01*
G37*
G36*
X35509Y22955D02*
X35423Y23224D01*
X36720Y23702D01*
X39547Y24348D01*
X39617Y24067D01*
X35509Y22955D01*
G37*
G36*
X40575Y22987D02*
X35478Y22987D01*
X35443Y23243D01*
X39482Y24337D01*
X40650Y23169D01*
X40575Y22987D01*
G37*
G36*
X44427Y22966D02*
X44320Y23160D01*
X45526Y24366D01*
X46545Y23623D01*
X46507Y23437D01*
X44427Y22966D01*
G37*
G36*
X47661Y22987D02*
X44371Y22987D01*
X44342Y23249D01*
X46391Y23714D01*
X47704Y23230D01*
X47661Y22987D01*
G37*
G36*
X48634Y22955D02*
X48548Y23224D01*
X49845Y23702D01*
X52672Y24348D01*
X52742Y24067D01*
X48634Y22955D01*
G37*
G36*
X53700Y22987D02*
X48603Y22987D01*
X48568Y23243D01*
X52607Y24337D01*
X53775Y23169D01*
X53700Y22987D01*
G37*
G36*
X57536Y22980D02*
X57451Y23166D01*
X58611Y24326D01*
X64440Y23750D01*
X64437Y23479D01*
X57536Y22980D01*
G37*
G36*
X65420Y22424D02*
X57480Y22997D01*
X57480Y23272D01*
X64348Y23768D01*
X65506Y22610D01*
X65420Y22424D01*
G37*
G36*
X65470Y22429D02*
X8014Y22988D01*
X8015Y23282D01*
X57633Y23282D01*
X65482Y22715D01*
X65470Y22429D01*
G37*
G36*
X66898Y22273D02*
X65174Y22445D01*
X65188Y22726D01*
X74817Y22726D01*
X74819Y22434D01*
X66898Y22273D01*
G37*
G36*
X67043Y22271D02*
X8013Y22989D01*
X8016Y23283D01*
X65337Y22726D01*
X67059Y22554D01*
X67043Y22271D01*
G37*
G36*
X73103Y22273D02*
X66757Y22273D01*
X66754Y22565D01*
X74809Y22729D01*
X74826Y22445D01*
X73103Y22273D01*
G37*
G36*
X11859Y20466D02*
X7988Y23073D01*
X8054Y23283D01*
X67050Y22567D01*
X67053Y22278D01*
X11859Y20466D01*
G37*
G36*
X11949Y20414D02*
X6815Y23503D01*
X6931Y23745D01*
X8230Y23267D01*
X12104Y20657D01*
X11949Y20414D01*
G37*
G36*
X13099Y20467D02*
X11757Y20467D01*
X11752Y20757D01*
X67046Y22573D01*
X67056Y22278D01*
X13099Y20467D01*
G37*
G36*
X25030Y20467D02*
X12952Y20467D01*
X12947Y20757D01*
X67045Y22573D01*
X67057Y22280D01*
X25030Y20467D01*
G37*
G36*
X26225Y20467D02*
X24883Y20467D01*
X24876Y20756D01*
X67044Y22575D01*
X67057Y22280D01*
X26225Y20467D01*
G37*
G36*
X38157Y20467D02*
X26078Y20467D01*
X26071Y20756D01*
X67043Y22575D01*
X67059Y22283D01*
X38157Y20467D01*
G37*
G36*
X39352Y20467D02*
X38009Y20467D01*
X38000Y20753D01*
X67041Y22577D01*
X67060Y22283D01*
X39352Y20467D01*
G37*
G36*
X51286Y20467D02*
X39204Y20467D01*
X39195Y20753D01*
X67038Y22577D01*
X67063Y22291D01*
X51286Y20467D01*
G37*
G36*
X52481Y20467D02*
X51138Y20467D01*
X51122Y20745D01*
X67032Y22584D01*
X67068Y22293D01*
X52481Y20467D01*
G37*
G36*
X10714Y20020D02*
X6808Y23540D01*
X6968Y23756D01*
X12058Y20693D01*
X12040Y20508D01*
X10714Y20020D01*
G37*
G36*
X14229Y20040D02*
X12930Y20519D01*
X12973Y20762D01*
X25172Y20762D01*
X25178Y20473D01*
X14229Y20040D01*
G37*
G36*
X23898Y20041D02*
X14108Y20041D01*
X14102Y20331D01*
X25147Y20767D01*
X25196Y20520D01*
X23898Y20041D01*
G37*
G36*
X27354Y20040D02*
X26055Y20519D01*
X26098Y20762D01*
X38297Y20762D01*
X38303Y20473D01*
X27354Y20040D01*
G37*
G36*
X37023Y20041D02*
X27233Y20041D01*
X27227Y20331D01*
X38272Y20767D01*
X38321Y20520D01*
X37023Y20041D01*
G37*
G36*
X40479Y20040D02*
X39180Y20519D01*
X39223Y20762D01*
X51422Y20762D01*
X51428Y20473D01*
X40479Y20040D01*
G37*
G36*
X50148Y20041D02*
X40358Y20041D01*
X40352Y20331D01*
X51397Y20767D01*
X51446Y20520D01*
X50148Y20041D01*
G37*
G36*
X53613Y20037D02*
X52312Y20516D01*
X52339Y20747D01*
X67029Y22585D01*
X67070Y22299D01*
X53613Y20037D01*
G37*
G36*
X64350Y19658D02*
X53489Y20046D01*
X53471Y20312D01*
X66985Y22584D01*
X67084Y22393D01*
X64350Y19658D01*
G37*
G36*
X75688Y19620D02*
X72925Y22382D01*
X72988Y22558D01*
X74769Y22736D01*
X75888Y19748D01*
X75688Y19620D01*
G37*
G36*
X75613Y19641D02*
X74499Y22615D01*
X75674Y23790D01*
X75856Y23715D01*
X75856Y19685D01*
X75613Y19641D01*
G37*
G36*
X75851Y19658D02*
X75561Y19663D01*
X75561Y23619D01*
X76167Y39055D01*
X76461Y39044D01*
X75851Y19658D01*
G37*
G36*
X9852Y19086D02*
X6811Y23586D01*
X7008Y23757D01*
X10961Y20194D01*
X9852Y19086D01*
G37*
G36*
X9840Y19112D02*
X5934Y24456D01*
X6142Y24634D01*
X7121Y23654D01*
X10078Y19279D01*
X9840Y19112D01*
G37*
G36*
X15070Y19163D02*
X14078Y20154D01*
X14154Y20337D01*
X24012Y20337D01*
X24026Y20056D01*
X15070Y19163D01*
G37*
G36*
X23060Y19169D02*
X14984Y19169D01*
X14971Y19449D01*
X23960Y20346D01*
X24049Y20158D01*
X23060Y19169D01*
G37*
G36*
X28195Y19163D02*
X27203Y20154D01*
X27279Y20337D01*
X37137Y20337D01*
X37151Y20056D01*
X28195Y19163D01*
G37*
G36*
X36185Y19169D02*
X28109Y19169D01*
X28096Y19449D01*
X37085Y20346D01*
X37174Y20158D01*
X36185Y19169D01*
G37*
G36*
X41320Y19163D02*
X40328Y20154D01*
X40404Y20337D01*
X50262Y20337D01*
X50276Y20056D01*
X41320Y19163D01*
G37*
G36*
X49310Y19169D02*
X41234Y19169D01*
X41221Y19449D01*
X50210Y20346D01*
X50299Y20158D01*
X49310Y19169D01*
G37*
G36*
X54442Y19166D02*
X53452Y20156D01*
X53532Y20340D01*
X64437Y19951D01*
X64440Y19668D01*
X54442Y19166D01*
G37*
G36*
X9363Y18007D02*
X5939Y24485D01*
X6172Y24630D01*
X10040Y19340D01*
X9554Y18020D01*
X9363Y18007D01*
G37*
G36*
X15454Y17997D02*
X14913Y19464D01*
X23136Y19464D01*
X23157Y19192D01*
X15454Y17997D01*
G37*
G36*
X22676Y18013D02*
X15414Y18013D01*
X15393Y18286D01*
X23224Y19501D01*
X22676Y18013D01*
G37*
G36*
X28579Y17997D02*
X28038Y19464D01*
X36261Y19464D01*
X36282Y19192D01*
X28579Y17997D01*
G37*
G36*
X35801Y18013D02*
X28539Y18013D01*
X28518Y18286D01*
X36349Y19501D01*
X35801Y18013D01*
G37*
G36*
X41704Y17997D02*
X41163Y19464D01*
X49386Y19464D01*
X49407Y19192D01*
X41704Y17997D01*
G37*
G36*
X48926Y18013D02*
X41664Y18013D01*
X41643Y18286D01*
X49474Y19501D01*
X48926Y18013D01*
G37*
G36*
X54830Y17994D02*
X54292Y19454D01*
X64422Y19963D01*
X64453Y19687D01*
X54830Y17994D01*
G37*
G36*
X9352Y15185D02*
X5948Y24511D01*
X6200Y24623D01*
X9596Y18198D01*
X9596Y15228D01*
X9352Y15185D01*
G37*
G36*
X9360Y15163D02*
X5519Y25676D01*
X5796Y25777D01*
X6273Y24483D01*
X9638Y15264D01*
X9360Y15163D01*
G37*
G36*
X15403Y15134D02*
X15403Y18309D01*
X22695Y18309D01*
X22741Y18069D01*
X15403Y15134D01*
G37*
G36*
X22721Y15204D02*
X15429Y15204D01*
X15383Y15444D01*
X22721Y18379D01*
X22721Y15204D01*
G37*
G36*
X28528Y15134D02*
X28528Y18309D01*
X35820Y18309D01*
X35866Y18069D01*
X28528Y15134D01*
G37*
G36*
X35846Y15204D02*
X28554Y15204D01*
X28508Y15444D01*
X35846Y18379D01*
X35846Y15204D01*
G37*
G36*
X41653Y15134D02*
X41653Y18309D01*
X48945Y18309D01*
X48991Y18069D01*
X41653Y15134D01*
G37*
G36*
X48971Y15204D02*
X41679Y15204D01*
X41633Y15444D01*
X48971Y18379D01*
X48971Y15204D01*
G37*
G36*
X54778Y15118D02*
X54778Y18285D01*
X64392Y19976D01*
X64471Y19730D01*
X54778Y15118D01*
G37*
G36*
X64438Y15041D02*
X54806Y15206D01*
X54757Y15435D01*
X64438Y20042D01*
X64438Y15041D01*
G37*
G36*
X75852Y15041D02*
X75561Y15045D01*
X75561Y19810D01*
X76166Y39054D01*
X76460Y39045D01*
X75852Y15041D01*
G37*
G36*
X15238Y14929D02*
X15448Y15499D01*
X22718Y15499D01*
X22724Y15210D01*
X15238Y14929D01*
G37*
G36*
X22883Y14937D02*
X15307Y14937D01*
X15302Y15227D01*
X22675Y15503D01*
X22883Y14937D01*
G37*
G36*
X28363Y14929D02*
X28573Y15499D01*
X35843Y15499D01*
X35849Y15210D01*
X28363Y14929D01*
G37*
G36*
X36008Y14937D02*
X28432Y14937D01*
X28427Y15227D01*
X35800Y15503D01*
X36008Y14937D01*
G37*
G36*
X41488Y14929D02*
X41698Y15499D01*
X48968Y15499D01*
X48974Y15210D01*
X41488Y14929D01*
G37*
G36*
X49133Y14937D02*
X41557Y14937D01*
X41552Y15227D01*
X48925Y15503D01*
X49133Y14937D01*
G37*
G36*
X54615Y14935D02*
X54823Y15501D01*
X64439Y15336D01*
X64438Y15045D01*
X54615Y14935D01*
G37*
G36*
X28430Y14823D02*
X28430Y15232D01*
X35943Y15232D01*
X35946Y14939D01*
X28430Y14823D01*
G37*
G36*
X49069Y14823D02*
X41553Y14939D01*
X41556Y15232D01*
X49069Y15232D01*
X49069Y14823D01*
G37*
G36*
X66732Y12663D02*
X54668Y14965D01*
X54692Y15231D01*
X64351Y15339D01*
X66835Y12856D01*
X66732Y12663D01*
G37*
G36*
X22819Y12317D02*
X15286Y14987D01*
X15328Y15232D01*
X22819Y15232D01*
X22819Y12317D01*
G37*
G36*
X54680Y12375D02*
X54680Y15263D01*
X66811Y12949D01*
X66789Y12684D01*
X54680Y12375D01*
G37*
G36*
X15305Y12316D02*
X15305Y15294D01*
X22838Y12624D01*
X22797Y12380D01*
X15305Y12316D01*
G37*
G36*
X22832Y12317D02*
X15305Y12317D01*
X15304Y12611D01*
X22732Y12675D01*
X22907Y12500D01*
X22832Y12317D01*
G37*
G36*
X31059Y12282D02*
X28404Y14937D01*
X28477Y15119D01*
X35910Y15234D01*
X35969Y15012D01*
X31059Y12282D01*
G37*
G36*
X35944Y12317D02*
X30971Y12317D01*
X30913Y12539D01*
X35944Y15336D01*
X35944Y12317D01*
G37*
G36*
X41555Y12257D02*
X41555Y15235D01*
X49048Y15118D01*
X49087Y14874D01*
X41555Y12257D01*
G37*
G36*
X46475Y12317D02*
X41577Y12317D01*
X41536Y12564D01*
X48984Y15151D01*
X49109Y14951D01*
X46475Y12317D01*
G37*
G36*
X54397Y12037D02*
X54314Y12222D01*
X54765Y12673D01*
X66795Y12980D01*
X66806Y12689D01*
X54397Y12037D01*
G37*
G36*
X63040Y12042D02*
X54347Y12042D01*
X54339Y12329D01*
X66784Y12983D01*
X66815Y12707D01*
X63040Y12042D01*
G37*
G36*
X66801Y11202D02*
X62876Y12072D01*
X62882Y12314D01*
X66801Y13005D01*
X66801Y11202D01*
G37*
G36*
X64009Y10998D02*
X62844Y12163D01*
X62950Y12358D01*
X66808Y11502D01*
X66792Y11250D01*
X64009Y10998D01*
G37*
G36*
X63917Y9993D02*
X63917Y11287D01*
X66764Y11544D01*
X66828Y11302D01*
X63917Y9993D01*
G37*
G36*
X65550Y10073D02*
X63945Y10073D01*
X63895Y10307D01*
X66705Y11571D01*
X66844Y11368D01*
X65550Y10073D01*
G37*
G36*
X73443Y8447D02*
X73198Y8489D01*
X73198Y12890D01*
X75687Y15379D01*
X75887Y15252D01*
X73443Y8447D01*
G37*
G36*
X9401Y6753D02*
X9299Y15474D01*
X9544Y15520D01*
X9694Y15111D01*
X9694Y6755D01*
X9401Y6753D01*
G37*
G36*
X9429Y6740D02*
X5536Y25693D01*
X5800Y25768D01*
X9596Y15379D01*
X9696Y6769D01*
X9429Y6740D01*
G37*
G36*
X63917Y2413D02*
X63917Y3676D01*
X68393Y3676D01*
X68422Y3413D01*
X63917Y2413D01*
G37*
G36*
X62967Y1379D02*
X62838Y1580D01*
X63990Y2732D01*
X68363Y3702D01*
X68441Y3438D01*
X62967Y1379D01*
G37*
G36*
X1328Y1033D02*
X1033Y1033D01*
X1033Y58535D01*
X1324Y58539D01*
X1535Y50898D01*
X1328Y1033D01*
G37*
G36*
X1301Y1021D02*
X1032Y1046D01*
X1240Y51032D01*
X1510Y51054D01*
X5858Y25587D01*
X1301Y1021D01*
G37*
G36*
X1183Y1003D02*
X1017Y1111D01*
X5585Y25735D01*
X5828Y25737D01*
X9711Y6835D01*
X1183Y1003D01*
G37*
G36*
X1096Y1008D02*
X996Y1233D01*
X9565Y7092D01*
X12692Y3965D01*
X12645Y3799D01*
X1096Y1008D01*
G37*
G36*
X1071Y1004D02*
X1003Y1290D01*
X12509Y4069D01*
X13291Y4069D01*
X13320Y3807D01*
X1071Y1004D01*
G37*
G36*
X13307Y1033D02*
X1049Y1033D01*
X1019Y1295D01*
X13307Y4107D01*
X13307Y1033D01*
G37*
G36*
X54438Y1014D02*
X54192Y1056D01*
X54192Y1790D01*
X54375Y1866D01*
X54642Y1598D01*
X54438Y1014D01*
G37*
G36*
X54129Y1024D02*
X54368Y1707D01*
X63171Y1707D01*
X63177Y1418D01*
X54129Y1024D01*
G37*
G36*
X76454Y1033D02*
X54196Y1033D01*
X54189Y1322D01*
X63026Y1707D01*
X76458Y1324D01*
X76454Y1033D01*
G37*
G36*
X76434Y1029D02*
X62901Y1415D01*
X62861Y1655D01*
X68255Y3684D01*
X76475Y1286D01*
X76434Y1029D01*
G37*
G36*
X76356Y1013D02*
X67980Y3456D01*
X73400Y8876D01*
X76480Y1150D01*
X76356Y1013D01*
G37*
G36*
X76218Y1010D02*
X73188Y8611D01*
X75610Y15355D01*
X75850Y15319D01*
X76461Y1062D01*
X76218Y1010D01*
G37*
G36*
X76167Y1030D02*
X75560Y15190D01*
X76165Y39051D01*
X76456Y39048D01*
X76456Y1036D01*
X76167Y1030D01*
G37*
G36*
X68687Y11988D02*
X68687Y17500D01*
X71312Y17500D01*
X71312Y11988D01*
X68687Y11988D01*
G37*
G36*
X63700Y16187D02*
X63700Y18812D01*
X70000Y18812D01*
X70000Y16187D01*
X63700Y16187D01*
G37*
G36*
X58750Y4512D02*
X58750Y9237D01*
X64655Y9237D01*
X64655Y4512D01*
X58750Y4512D01*
G37*
G36*
X56387Y6875D02*
X56387Y12780D01*
X61112Y12780D01*
X61112Y6875D01*
X56387Y6875D01*
G37*
G36*
X63702Y19845D02*
X63493Y20048D01*
X65425Y22091D01*
X65690Y22091D01*
X65765Y21909D01*
X63702Y19845D01*
G37*
G36*
X56324Y12572D02*
X56117Y12780D01*
X65487Y22151D01*
X65696Y21948D01*
X63806Y19949D01*
X56324Y12572D01*
G37*
G36*
X56257Y12606D02*
X56140Y12804D01*
X63667Y20227D01*
X63848Y20151D01*
X63848Y14836D01*
X56257Y12606D01*
G37*
G36*
X63393Y12632D02*
X56197Y12632D01*
X56161Y12886D01*
X63892Y15157D01*
X63393Y12632D01*
G37*
G36*
X66734Y11819D02*
X63099Y12669D01*
X63573Y15062D01*
X63742Y15113D01*
X66842Y12013D01*
X66734Y11819D01*
G37*
G36*
X64613Y11230D02*
X63088Y12754D01*
X63196Y12949D01*
X66803Y12106D01*
X66810Y11878D01*
X64613Y11230D01*
G37*
G36*
X64533Y11240D02*
X64486Y11500D01*
X66638Y12135D01*
X73483Y12135D01*
X73493Y11850D01*
X64533Y11240D01*
G37*
G36*
X64696Y2256D02*
X64507Y2329D01*
X64507Y11534D01*
X73430Y12142D01*
X73516Y11962D01*
X64696Y2256D01*
G37*
G36*
X64664Y2222D02*
X64447Y2421D01*
X73233Y12090D01*
X75066Y13923D01*
X75275Y13722D01*
X64664Y2222D01*
G37*
G36*
X75216Y2283D02*
X64558Y2283D01*
X64481Y2460D01*
X75028Y13890D01*
X75216Y13817D01*
X75216Y2283D01*
G37*
M02*
