%FSLAX35Y35*%
%MOIN*%
%TF.FileFunction,Copper,L2,Bot*%
%ADD10C,0.00591*%
%ADD11C,0.00214*%
%ADD12C,0.00384*%
%ADD13C,0.00409*%
%ADD14C,0.00472*%
%ADD15C,0.00512*%
%ADD16C,0.00650*%
%ADD17C,0.00669*%
%ADD18C,0.00768*%
%ADD19C,0.00886*%
%ADD20C,0.01181*%
%ADD21C,0.01575*%
%ADD22C,0.01969*%
%ADD23C,0.02362*%
%ADD24C,0.03150*%
%ADD25C,0.03937*%
%AMR_26*21,1,0.00787,0.00787,0,0,0.000*%
%ADD26R_26*%
%AMR_27*21,1,0.01181,0.01181,0,0,0.000*%
%ADD27R_27*%
%AMR_28*21,1,0.01706,0.01706,0,0,0.000*%
%ADD28R_28*%
%AMR_29*21,1,0.02133,0.02133,0,0,0.000*%
%ADD29R_29*%
%AMR_30*21,1,0.02362,0.02362,0,0,0.000*%
%ADD30R_30*%
%AMR_31*21,1,0.03200,0.03800,0,0,0.000*%
%ADD31R_31*%
%AMR_32*21,1,0.03200,0.03800,0,0,90.000*%
%ADD32R_32*%
%AMR_33*21,1,0.03200,0.03800,0,0,180.000*%
%ADD33R_33*%
%AMR_34*21,1,0.04409,0.06299,0,0,90.000*%
%ADD34R_34*%
%AMR_35*21,1,0.05000,0.05000,0,0,180.000*%
%ADD35R_35*%
%AMR_36*21,1,0.07874,0.09449,0,0,90.000*%
%ADD36R_36*%
%AMR_37*21,1,0.19685,0.11875,0,0,0.000*%
%ADD37R_37*%
%AMR_38*21,1,0.19685,0.19685,0,0,0.000*%
%ADD38R_38*%
%AMOCT_39*4,1,8,0.031496,0.023622,0.015748,0.039370,-0.015748,0.039370,-0.031496,0.023622,-0.031496,-0.023622,-0.015748,-0.039370,0.015748,-0.039370,0.031496,-0.023622,0.031496,0.023622,270.000*%
%ADD39OCT_39*%
%AMOCT_40*4,1,8,0.039370,0.009843,0.029528,0.019685,-0.029528,0.019685,-0.039370,0.009843,-0.039370,-0.009843,-0.029528,-0.019685,0.029528,-0.019685,0.039370,-0.009843,0.039370,0.009843,0.000*%
%ADD40OCT_40*%
%AMOCT_41*4,1,8,0.039370,0.009843,0.029528,0.019685,-0.029528,0.019685,-0.039370,0.009843,-0.039370,-0.009843,-0.029528,-0.019685,0.029528,-0.019685,0.039370,-0.009843,0.039370,0.009843,90.000*%
%ADD41OCT_41*%
%ADD42O,0.02559X0.04173*%
%AMRR_43*21,1,0.02559,0.03661,0,0,180.000*21,1,0.02047,0.04173,0,0,180.000*1,1,0.00512,-0.01024,-0.01831*1,1,0.00512,0.01024,0.01831*1,1,0.00512,-0.01024,0.01831*1,1,0.00512,0.01024,-0.01831*%
%ADD43RR_43*%
%AMRR_44*21,1,0.06299,0.06614,0,0,270.000*21,1,0.05039,0.07874,0,0,270.000*1,1,0.01260,0.03307,-0.02520*1,1,0.01260,-0.03307,0.02520*1,1,0.01260,-0.03307,-0.02520*1,1,0.01260,0.03307,0.02520*%
%ADD44RR_44*%
%AMRR_45*21,1,0.07087,0.06024,0,0,180.000*21,1,0.06024,0.07087,0,0,180.000*1,1,0.01063,-0.03012,-0.03012*1,1,0.01063,0.03012,0.03012*1,1,0.01063,-0.03012,0.03012*1,1,0.01063,0.03012,-0.03012*%
%ADD45RR_45*%
%AMRR_46*21,1,0.23622,0.06457,0,0,90.000*21,1,0.22205,0.07874,0,0,90.000*1,1,0.01417,-0.03228,0.11102*1,1,0.01417,0.03228,-0.11102*1,1,0.01417,0.03228,0.11102*1,1,0.01417,-0.03228,-0.11102*%
%ADD46RR_46*%
G54D16*
X3937Y144749D02*
X3937Y149473D01*
X3937Y147111D02*
X8267Y147111D01*
X8267Y149473D02*
X8267Y144749D01*
X3937Y149473D02*
X6102Y151835D01*
X8267Y149473D01*
X9566Y151835D02*
X9566Y144749D01*
X9566Y147111D02*
X12814Y150654D01*
X11190Y148882D02*
X13897Y144749D01*
X15196Y151835D02*
X15196Y145930D01*
X16279Y144749D01*
X19527Y144749D01*
X15196Y148882D02*
X17362Y148882D01*
X20826Y148882D02*
X20826Y145930D01*
X21909Y144749D01*
X24074Y144749D01*
X25157Y145930D01*
X25157Y148882D02*
X25157Y144749D01*
X30787Y145339D02*
X29704Y144749D01*
X27539Y144749D01*
X26456Y145930D01*
X26456Y147701D01*
X27539Y148882D01*
X29704Y148882D01*
X30787Y148292D01*
X30787Y147701D01*
X29704Y147111D01*
X26456Y147111D01*
X32086Y144749D02*
X36417Y144749D01*
X33169Y151835D02*
X34251Y151835D01*
X34251Y144749D01*
X37716Y144749D02*
X42047Y144749D01*
X38799Y151835D02*
X39881Y151835D01*
X39881Y144749D01*
X47677Y145339D02*
X46594Y144749D01*
X44429Y144749D01*
X43346Y145930D01*
X43346Y147701D01*
X44429Y148882D01*
X46594Y148882D01*
X47677Y148292D01*
X47677Y147701D01*
X46594Y147111D01*
X43346Y147111D01*
X48976Y144749D02*
X52765Y144749D01*
X53307Y145930D01*
X52765Y147111D01*
X49517Y147111D01*
X48976Y148292D01*
X49517Y148882D01*
X53307Y148882D01*
X60236Y151835D02*
X60236Y144749D01*
X60236Y148292D02*
X62942Y148292D01*
X64025Y148882D01*
X64566Y150063D01*
X64025Y151245D01*
X62942Y151835D01*
X60236Y151835D01*
X65866Y148882D02*
X65866Y144749D01*
X65866Y147111D02*
X67490Y148882D01*
X70196Y148882D01*
X71496Y147701D02*
X71496Y145930D01*
X71496Y147701D02*
X72578Y148882D01*
X74744Y148882D01*
X75826Y147701D01*
X75826Y145930D01*
X74744Y144749D01*
X72578Y144749D01*
X71496Y145930D01*
X77125Y142386D02*
X80374Y142386D01*
X81456Y143567D01*
X81456Y148882D01*
X79832Y148882D01*
X81456Y151835D02*
X81456Y151245D01*
X87086Y145339D02*
X86003Y144749D01*
X83838Y144749D01*
X82755Y145930D01*
X82755Y147701D01*
X83838Y148882D01*
X86003Y148882D01*
X87086Y148292D01*
X87086Y147701D01*
X86003Y147111D01*
X82755Y147111D01*
X88385Y151835D02*
X88385Y144749D01*
X88385Y147111D02*
X91633Y150654D01*
X90009Y148882D02*
X92716Y144749D01*
X94015Y151835D02*
X94015Y145930D01*
X95098Y144749D01*
X98346Y144749D01*
X94015Y148882D02*
X96181Y148882D01*
X105275Y148882D02*
X107440Y144749D01*
X109606Y148882D01*
X110905Y147701D02*
X110905Y145930D01*
X110905Y147701D02*
X111988Y148882D01*
X114153Y148882D01*
X115236Y147701D01*
X115236Y145930D01*
X114153Y144749D01*
X111988Y144749D01*
X110905Y145930D01*
X116535Y144749D02*
X116535Y148882D01*
X116535Y147701D02*
X117618Y148882D01*
X119783Y148882D01*
X120866Y147701D01*
X120866Y144749D01*
X127795Y151835D02*
X132125Y151835D01*
X129960Y151835D02*
X129960Y144749D01*
X133425Y144749D02*
X133425Y149473D01*
X133425Y147111D02*
X137755Y147111D01*
X137755Y149473D02*
X137755Y144749D01*
X133425Y149473D02*
X135590Y151835D01*
X137755Y149473D01*
X139055Y151835D02*
X139055Y144749D01*
X139055Y148292D02*
X141761Y148292D01*
X142844Y148882D01*
X143385Y150063D01*
X142844Y151245D01*
X141761Y151835D01*
X139055Y151835D01*
X141220Y148292D02*
X143385Y144749D01*
X146309Y151835D02*
X145226Y151245D01*
X144685Y150063D01*
X144685Y146520D01*
X145226Y145339D01*
X146309Y144749D01*
X147391Y144749D01*
X148474Y145339D01*
X149015Y146520D01*
X149015Y148292D01*
X147933Y148292D01*
X146309Y151835D02*
X147391Y151835D01*
X148474Y151245D01*
X150314Y151835D02*
X150314Y144749D01*
X154645Y144749D01*
X150314Y148292D02*
X152480Y148292D01*
X150314Y151835D02*
X154645Y151835D01*
X155944Y151835D02*
X160275Y151835D01*
X158110Y151835D02*
X158110Y144749D01*
X167204Y144749D02*
X167204Y151835D01*
X171535Y144749D01*
X171535Y151835D01*
X175541Y144749D02*
X176624Y145339D01*
X177165Y146520D01*
X175541Y144749D02*
X174458Y144749D01*
X173375Y145339D01*
X172834Y146520D01*
X172834Y150063D01*
X173375Y151245D01*
X174458Y151835D01*
X175541Y151835D01*
X176624Y151245D01*
X177165Y150063D01*
X178464Y148292D02*
X182795Y148292D01*
X184094Y151835D02*
X184094Y144749D01*
X188425Y144749D01*
X184094Y148292D02*
X186259Y148292D01*
X184094Y151835D02*
X188425Y151835D01*
X194055Y151835D02*
X194055Y144749D01*
X190807Y144749D01*
X189724Y145930D01*
X189724Y147701D01*
X190807Y148882D01*
X194055Y148882D01*
X195354Y144749D02*
X199685Y144749D01*
X197519Y144749D02*
X197519Y148882D01*
X197519Y151835D02*
X197519Y151245D01*
X195895Y148882D02*
X197519Y148882D01*
X200984Y151835D02*
X200984Y145930D01*
X202066Y144749D01*
X205314Y144749D01*
X200984Y148882D02*
X203149Y148882D01*
X206614Y144749D02*
X210944Y144749D01*
X208779Y144749D02*
X208779Y148882D01*
X208779Y151835D02*
X208779Y151245D01*
X207155Y148882D02*
X208779Y148882D01*
X212244Y147701D02*
X212244Y145930D01*
X212244Y147701D02*
X213326Y148882D01*
X215492Y148882D01*
X216574Y147701D01*
X216574Y145930D01*
X215492Y144749D01*
X213326Y144749D01*
X212244Y145930D01*
X217874Y144749D02*
X217874Y148882D01*
X217874Y147701D02*
X218956Y148882D01*
X221122Y148882D01*
X222204Y147701D01*
X222204Y144749D01*
X224586Y145339D02*
X224586Y144749D01*
X225127Y144749D01*
X225127Y145339D01*
X224586Y145339D01*
X225127Y148292D02*
X224586Y148292D01*
X224586Y147701D01*
X225127Y147701D01*
X225127Y148292D01*
X234763Y151835D02*
X234763Y144749D01*
X234763Y147111D02*
X239094Y151835D01*
X236387Y148882D02*
X239094Y144749D01*
X240393Y147701D02*
X240393Y145930D01*
X240393Y147701D02*
X241476Y148882D01*
X243641Y148882D01*
X244724Y147701D01*
X244724Y145930D01*
X243641Y144749D01*
X241476Y144749D01*
X240393Y145930D01*
X250354Y144749D02*
X250354Y147701D01*
X249271Y148882D01*
X248188Y144749D02*
X248188Y147701D01*
X246023Y148882D02*
X249271Y148882D01*
X246023Y144749D02*
X246023Y148882D01*
X248188Y147701D02*
X247106Y148882D01*
X255984Y144749D02*
X255984Y147701D01*
X254901Y148882D01*
X253818Y144749D02*
X253818Y147701D01*
X251653Y148882D02*
X254901Y148882D01*
X251653Y144749D02*
X251653Y148882D01*
X253818Y147701D02*
X252736Y148882D01*
X261614Y145339D02*
X260531Y144749D01*
X258366Y144749D01*
X257283Y145930D01*
X257283Y147701D01*
X258366Y148882D01*
X260531Y148882D01*
X261614Y148292D01*
X261614Y147701D01*
X260531Y147111D01*
X257283Y147111D01*
X262913Y148882D02*
X262913Y144749D01*
X262913Y147111D02*
X264537Y148882D01*
X267244Y148882D01*
X268543Y148882D02*
X272874Y148882D01*
X268543Y144749D01*
X272874Y144749D01*
X274173Y144749D02*
X278503Y144749D01*
X276338Y144749D02*
X276338Y148882D01*
X276338Y151835D02*
X276338Y151245D01*
X274714Y148882D02*
X276338Y148882D01*
X284133Y145339D02*
X283051Y144749D01*
X280885Y144749D01*
X279803Y145930D01*
X279803Y147701D01*
X280885Y148882D01*
X283051Y148882D01*
X284133Y148292D01*
X284133Y147701D01*
X283051Y147111D01*
X279803Y147111D01*
X285433Y144749D02*
X289763Y144749D01*
X286515Y151835D02*
X287598Y151835D01*
X287598Y144749D01*
X291062Y144749D02*
X295393Y144749D01*
X292145Y151835D02*
X293228Y151835D01*
X293228Y144749D01*
X301023Y145339D02*
X299940Y144749D01*
X297775Y144749D01*
X296692Y145930D01*
X296692Y147701D01*
X297775Y148882D01*
X299940Y148882D01*
X301023Y148292D01*
X301023Y147701D01*
X299940Y147111D01*
X296692Y147111D01*
X307952Y144749D02*
X307952Y151835D01*
X312283Y144749D01*
X312283Y151835D01*
X313582Y148882D02*
X313582Y145930D01*
X314665Y144749D01*
X316830Y144749D01*
X317913Y145930D01*
X317913Y148882D02*
X317913Y144749D01*
X319212Y151835D02*
X319212Y145930D01*
X320295Y144749D01*
X323543Y144749D01*
X319212Y148882D02*
X321377Y148882D01*
X324842Y148882D02*
X329173Y148882D01*
X324842Y144749D01*
X329173Y144749D01*
X330472Y148882D02*
X330472Y145930D01*
X331555Y144749D01*
X333720Y144749D01*
X334803Y145930D01*
X334803Y148882D02*
X334803Y144749D01*
X336102Y144749D02*
X336102Y148882D01*
X336102Y147701D02*
X337185Y148882D01*
X339350Y148882D01*
X340433Y147701D01*
X340433Y144749D01*
X346062Y145930D02*
X344980Y144749D01*
X342814Y144749D01*
X341732Y145930D01*
X341732Y147701D01*
X342814Y148882D01*
X344980Y148882D01*
X346062Y147701D01*
X346062Y143567D01*
X344980Y142386D01*
X341732Y142386D01*
X352992Y144749D02*
X357322Y144749D01*
X355157Y144749D02*
X355157Y148882D01*
X355157Y151835D02*
X355157Y151245D01*
X353533Y148882D02*
X355157Y148882D01*
X358622Y144749D02*
X362411Y144749D01*
X362952Y145930D01*
X362411Y147111D01*
X359163Y147111D01*
X358622Y148292D01*
X359163Y148882D01*
X362952Y148882D01*
X364251Y151835D02*
X364251Y145930D01*
X365334Y144749D01*
X368582Y144749D01*
X364251Y148882D02*
X366417Y148882D01*
X375511Y144749D02*
X379301Y144749D01*
X379842Y145930D01*
X379301Y147111D01*
X376053Y147111D01*
X375511Y148292D01*
X376053Y148882D01*
X379842Y148882D01*
X381141Y151835D02*
X381141Y145930D01*
X382224Y144749D01*
X385472Y144749D01*
X381141Y148882D02*
X383307Y148882D01*
X386771Y148882D02*
X386771Y144749D01*
X386771Y147111D02*
X388395Y148882D01*
X391102Y148882D01*
X392401Y145930D02*
X393484Y144749D01*
X395649Y144749D01*
X396732Y145930D01*
X392401Y145930D02*
X392401Y147701D01*
X393484Y148882D01*
X395649Y148882D01*
X396732Y147701D01*
X396732Y144749D01*
X398031Y142386D02*
X398031Y150654D01*
X399114Y151835D01*
X402362Y151835D01*
X398031Y147111D02*
X400196Y147111D01*
X403661Y151835D02*
X403661Y144749D01*
X406909Y144749D01*
X407992Y145930D01*
X407992Y147701D01*
X406909Y148882D01*
X403661Y148882D01*
X409291Y145930D02*
X410374Y144749D01*
X412539Y144749D01*
X413622Y145930D01*
X409291Y145930D02*
X409291Y147701D01*
X410374Y148882D01*
X412539Y148882D01*
X413622Y147701D01*
X413622Y144749D01*
X414921Y148882D02*
X414921Y144749D01*
X414921Y147111D02*
X416545Y148882D01*
X419251Y148882D01*
X422716Y144749D02*
X422716Y145339D01*
X423257Y145339D01*
X423257Y144749D01*
X422716Y144749D01*
X422716Y147111D02*
X423257Y147111D01*
X423799Y150654D01*
X423257Y151835D01*
X422716Y151835D01*
X422175Y150654D01*
X422716Y147111D01*
G54D20*
X53125Y100000D02*
X58257Y94867D01*
X58257Y79773D01*
X71250Y130625D02*
X64375Y130625D01*
X63125Y129375D01*
X63125Y121250D01*
X64375Y120000D01*
X64375Y113125D02*
X64375Y120000D01*
X64375Y113125D02*
X63125Y111875D01*
X55625Y111875D01*
X53125Y100000D02*
X53125Y109375D01*
X55625Y111875D01*
X76309Y125040D02*
X76171Y124902D01*
X76171Y122686D01*
X75133Y121648D01*
X73612Y121648D01*
X73612Y108396D01*
X70978Y105762D01*
X65353Y105762D01*
X64862Y105271D01*
X64862Y104316D01*
X65379Y103799D01*
X65846Y102531D01*
X65846Y101218D01*
X65379Y99950D01*
X64424Y98995D01*
X63156Y98528D01*
X61843Y98528D01*
X60575Y98995D01*
X59620Y99950D01*
X59153Y101218D01*
X59153Y102531D01*
X59620Y103799D01*
X60137Y104316D01*
X60137Y107228D01*
X63396Y110487D01*
X68887Y110487D01*
X68887Y121648D01*
X67366Y121648D01*
X66328Y122686D01*
X66328Y124902D01*
X64360Y126871D01*
X64360Y134378D01*
X65675Y135693D01*
X19109Y135693D01*
X19316Y135487D01*
X30463Y135487D01*
X33241Y135578D01*
X33273Y135610D01*
X34213Y135610D01*
X35152Y135641D01*
X35185Y135610D01*
X35230Y135610D01*
X35894Y134945D01*
X36580Y134303D01*
X36582Y134258D01*
X39862Y130978D01*
X39862Y64296D01*
X42362Y64296D01*
X40762Y65896D01*
X40762Y116603D01*
X44021Y119862D01*
X58183Y119862D01*
X58700Y120379D01*
X59968Y120846D01*
X61281Y120846D01*
X62549Y120379D01*
X63504Y119424D01*
X63971Y118156D01*
X63971Y116843D01*
X63504Y115575D01*
X62549Y114620D01*
X61281Y114153D01*
X59968Y114153D01*
X58700Y114620D01*
X58183Y115137D01*
X45978Y115137D01*
X45487Y114646D01*
X45487Y67853D01*
X45978Y67362D01*
X50978Y67362D01*
X54237Y64103D01*
X54237Y56917D01*
X54716Y57396D01*
X61183Y57396D01*
X62012Y56567D01*
X62012Y66190D01*
X53587Y66190D01*
X52549Y67228D01*
X52549Y92318D01*
X53587Y93356D01*
X62928Y93356D01*
X63966Y92318D01*
X63966Y85082D01*
X64343Y85221D01*
X65656Y85221D01*
X66924Y84754D01*
X67879Y83799D01*
X68346Y82531D01*
X68346Y81218D01*
X67879Y79950D01*
X67362Y79433D01*
X67362Y77771D01*
X66737Y77146D01*
X66737Y47362D01*
X72853Y47362D01*
X75487Y44728D01*
X75487Y42441D01*
X76004Y41924D01*
X76309Y41097D01*
X76309Y125040D01*
X18297Y3151D02*
X18297Y5167D01*
X16579Y5167D01*
X15541Y6205D01*
X15541Y31294D01*
X16579Y32332D01*
X25920Y32332D01*
X26958Y31294D01*
X26958Y6205D01*
X26206Y5452D01*
X53301Y5452D01*
X52549Y6205D01*
X52549Y31294D01*
X53587Y32332D01*
X62928Y32332D01*
X63966Y31294D01*
X63966Y6205D01*
X63214Y5452D01*
X66901Y5452D01*
X67047Y5598D01*
X67047Y12578D01*
X66903Y12578D01*
X64291Y15191D01*
X64291Y19808D01*
X66903Y22421D01*
X73096Y22421D01*
X75708Y19808D01*
X75708Y15191D01*
X73096Y12578D01*
X72952Y12578D01*
X72952Y3151D01*
X70981Y1181D01*
X76309Y1181D01*
X76309Y38902D01*
X76004Y38075D01*
X75049Y37120D01*
X73781Y36653D01*
X72468Y36653D01*
X71200Y37120D01*
X70245Y38075D01*
X69778Y39343D01*
X69778Y40656D01*
X70245Y41924D01*
X70762Y42441D01*
X70762Y42637D01*
X64646Y42637D01*
X62012Y45271D01*
X62012Y49682D01*
X61183Y48853D01*
X54716Y48853D01*
X54237Y49332D01*
X54237Y46796D01*
X58258Y46796D01*
X59296Y45758D01*
X59296Y41091D01*
X58258Y40053D01*
X52991Y40053D01*
X51981Y41062D01*
X51846Y41062D01*
X49512Y43396D01*
X49512Y62146D01*
X49021Y62637D01*
X45546Y62637D01*
X45546Y57991D01*
X44508Y56953D01*
X39841Y56953D01*
X38803Y57991D01*
X38803Y58480D01*
X36737Y60547D01*
X36737Y57228D01*
X38478Y55487D01*
X38803Y55487D01*
X38803Y55758D01*
X39841Y56796D01*
X44508Y56796D01*
X45546Y55758D01*
X45546Y50491D01*
X44508Y49453D01*
X39841Y49453D01*
X38803Y50491D01*
X38803Y50762D01*
X36521Y50762D01*
X33612Y53672D01*
X33612Y45271D01*
X29103Y40762D01*
X25566Y40762D01*
X25049Y40245D01*
X23781Y39778D01*
X22468Y39778D01*
X21200Y40245D01*
X20245Y41200D01*
X19778Y42468D01*
X19778Y43781D01*
X20060Y44547D01*
X13032Y44547D01*
X12008Y43523D01*
X4241Y43523D01*
X3203Y44561D01*
X3203Y46777D01*
X1235Y48746D01*
X1235Y56253D01*
X2484Y57502D01*
X1825Y57745D01*
X1181Y58390D01*
X1181Y1181D01*
X20268Y1181D01*
X18297Y3151D01*
X65329Y22578D02*
X64291Y23616D01*
X64291Y31383D01*
X65329Y32421D01*
X74670Y32421D01*
X75708Y31383D01*
X75708Y23616D01*
X74670Y22578D01*
X65329Y22578D01*
X34251Y133248D02*
X37500Y130000D01*
X37500Y63125D01*
X40000Y60625D01*
X42175Y60625D01*
X16875Y133125D02*
X30501Y133125D01*
X34251Y133248D02*
X30501Y133125D01*
X37500Y53125D02*
X42175Y53125D01*
X37500Y53125D02*
X34375Y56250D01*
X34375Y114375D01*
X31250Y117500D01*
X16875Y117500D01*
X51875Y63125D02*
X50000Y65000D01*
X45000Y65000D02*
X50000Y65000D01*
X45000Y65000D02*
X43125Y66875D01*
X43125Y115625D01*
X45000Y117500D01*
X60625Y117500D01*
X51875Y63125D02*
X51875Y44375D01*
X52825Y43425D01*
X55625Y43425D01*
X10000Y69375D02*
X10000Y60625D01*
X10000Y69375D02*
X14375Y73750D01*
X14375Y93750D01*
X3750Y70000D02*
X3750Y60625D01*
X3750Y70000D02*
X7253Y73503D01*
X7253Y86003D01*
X64375Y78125D02*
X64375Y46250D01*
X65625Y45000D01*
X71875Y45000D01*
X73125Y43750D01*
X73125Y40000D01*
X65000Y81875D02*
X65000Y78750D01*
X64375Y78125D01*
X62500Y101875D02*
X62500Y106250D01*
X64375Y108125D02*
X62500Y106250D01*
X64375Y108125D02*
X70000Y108125D01*
X71250Y109375D01*
X71250Y125625D01*
X16875Y109375D02*
X28125Y109375D01*
X31250Y106250D01*
X31250Y46250D01*
X28125Y43125D01*
X23125Y43125D01*
G54D23*
X60000Y34375D02*
X68750Y34375D01*
X70000Y33125D01*
X70000Y27500D01*
X60000Y34375D02*
X58257Y32632D01*
X58257Y18750D01*
X58257Y53125D02*
X58257Y79773D01*
X58257Y53125D02*
X57950Y53125D01*
X58257Y53125D02*
X58257Y48617D01*
X60000Y46875D01*
X60000Y34375D01*
X8125Y47500D02*
X20000Y47500D01*
X26250Y53750D01*
X26250Y60625D01*
X70000Y17500D02*
X70000Y4375D01*
X68125Y2500D01*
X23125Y2500D01*
X21250Y4375D01*
X21250Y18750D01*
X21250Y79773D02*
X21250Y55000D01*
X18750Y52500D01*
X8125Y52500D01*
G54D24*
X16875Y133125D03*
X16875Y117500D03*
X60625Y117500D03*
X10000Y60625D03*
X14375Y93750D03*
X3750Y60625D03*
X73125Y40000D03*
X65000Y81875D03*
X62500Y101875D03*
X16875Y109375D03*
X23125Y43125D03*
G54D25*
X26250Y60625D03*
G54D32*
X55625Y43425D03*
G54D33*
X42175Y53125D03*
X42175Y60625D03*
G54D34*
X8125Y47500D03*
X8125Y52500D03*
X71250Y125625D03*
X71250Y130625D03*
G54D35*
X57950Y53125D03*
G54D39*
X70000Y17500D03*
G54D40*
X7253Y86003D03*
G54D44*
X70000Y27500D03*
G54D46*
X58257Y18750D03*
X21250Y18750D03*
X21250Y79773D03*
X58257Y79773D03*
G36*
X57359Y48853D02*
X57359Y53125D01*
X58540Y53125D01*
X58540Y48853D01*
X57359Y48853D01*
G37*
G36*
X57359Y53125D02*
X57359Y57396D01*
X58540Y57396D01*
X58540Y53125D01*
X57359Y53125D01*
G37*
G36*
X57076Y18750D02*
X57076Y32332D01*
X59438Y32332D01*
X59438Y18750D01*
X57076Y18750D01*
G37*
G36*
X52549Y17568D02*
X52549Y19931D01*
X58257Y19931D01*
X58257Y17568D01*
X52549Y17568D01*
G37*
G36*
X58257Y17568D02*
X58257Y19931D01*
X63966Y19931D01*
X63966Y17568D01*
X58257Y17568D01*
G37*
G36*
X57076Y79773D02*
X57076Y93356D01*
X59438Y93356D01*
X59438Y79773D01*
X57076Y79773D01*
G37*
G36*
X57076Y66190D02*
X57076Y79773D01*
X59438Y79773D01*
X59438Y66190D01*
X57076Y66190D01*
G37*
G36*
X52549Y78592D02*
X52549Y80954D01*
X58257Y80954D01*
X58257Y78592D01*
X52549Y78592D01*
G37*
G36*
X68818Y22578D02*
X68818Y27500D01*
X71181Y27500D01*
X71181Y22578D01*
X68818Y22578D01*
G37*
G36*
X68818Y27500D02*
X68818Y32421D01*
X71181Y32421D01*
X71181Y27500D01*
X68818Y27500D01*
G37*
G36*
X70000Y26318D02*
X70000Y28681D01*
X75708Y28681D01*
X75708Y26318D01*
X70000Y26318D01*
G37*
G36*
X64291Y26318D02*
X64291Y28681D01*
X70000Y28681D01*
X70000Y26318D01*
X64291Y26318D01*
G37*
G36*
X64360Y129443D02*
X64360Y131806D01*
X71250Y131806D01*
X71250Y129443D01*
X64360Y129443D01*
G37*
G36*
X35152Y135493D02*
X18961Y135546D01*
X18962Y135841D01*
X65822Y135841D01*
X65822Y135546D01*
X35152Y135493D01*
G37*
G36*
X33274Y135462D02*
X18961Y135547D01*
X18962Y135841D01*
X35299Y135788D01*
X35301Y135495D01*
X33274Y135462D01*
G37*
G36*
X34215Y135462D02*
X33127Y135462D01*
X33124Y135755D01*
X35296Y135791D01*
X35303Y135498D01*
X34215Y135462D01*
G37*
G36*
X35127Y135462D02*
X34978Y135601D01*
X35051Y135788D01*
X65822Y135841D01*
X65823Y135546D01*
X35127Y135462D01*
G37*
G36*
X35230Y135462D02*
X35037Y135462D01*
X35037Y135757D01*
X65822Y135841D01*
X65823Y135546D01*
X35230Y135462D01*
G37*
G36*
X33302Y135430D02*
X18961Y135547D01*
X18963Y135842D01*
X33372Y135757D01*
X33447Y135575D01*
X33302Y135430D01*
G37*
G36*
X19255Y135339D02*
X18935Y135659D01*
X19011Y135842D01*
X33389Y135724D01*
X33389Y135431D01*
X19255Y135339D01*
G37*
G36*
X30465Y135339D02*
X19169Y135339D01*
X19168Y135633D01*
X33386Y135726D01*
X33392Y135435D01*
X30465Y135339D01*
G37*
G36*
X35835Y134796D02*
X35056Y135575D01*
X35131Y135757D01*
X65820Y135841D01*
X65824Y135549D01*
X35835Y134796D01*
G37*
G36*
X64420Y134230D02*
X35747Y134801D01*
X35746Y135089D01*
X65771Y135843D01*
X65850Y135660D01*
X64420Y134230D01*
G37*
G36*
X36522Y134155D02*
X35719Y134907D01*
X35796Y135095D01*
X64509Y134523D01*
X64506Y134231D01*
X36522Y134155D01*
G37*
G36*
X36439Y134110D02*
X36428Y134450D01*
X64507Y134526D01*
X64508Y134231D01*
X36439Y134110D01*
G37*
G36*
X39809Y130822D02*
X36408Y134223D01*
X36483Y134405D01*
X64497Y134527D01*
X64517Y134251D01*
X39809Y130822D01*
G37*
G36*
X64507Y126696D02*
X39712Y130853D01*
X39716Y131107D01*
X64507Y134548D01*
X64507Y126696D01*
G37*
G36*
X66404Y124733D02*
X39689Y130866D01*
X39745Y131147D01*
X64431Y127008D01*
X66511Y124928D01*
X66404Y124733D01*
G37*
G36*
X66476Y122485D02*
X39682Y130880D01*
X39756Y131154D01*
X66476Y125020D01*
X66476Y122485D01*
G37*
G36*
X76310Y122534D02*
X76023Y122543D01*
X76023Y124963D01*
X76276Y125216D01*
X76462Y125133D01*
X76310Y122534D01*
G37*
G36*
X67430Y121471D02*
X39676Y130885D01*
X39767Y131162D01*
X66407Y122816D01*
X67553Y121670D01*
X67430Y121471D01*
G37*
G36*
X59836Y120686D02*
X59807Y120977D01*
X67358Y121796D01*
X69028Y121796D01*
X69041Y121514D01*
X59836Y120686D01*
G37*
G36*
X59941Y120694D02*
X39672Y130908D01*
X39779Y131162D01*
X67526Y121750D01*
X67500Y121514D01*
X59941Y120694D01*
G37*
G36*
X61289Y120698D02*
X59827Y120698D01*
X59814Y120980D01*
X69020Y121808D01*
X69048Y121517D01*
X61289Y120698D01*
G37*
G36*
X58687Y120217D02*
X39664Y130920D01*
X39799Y131175D01*
X60121Y120934D01*
X60110Y120741D01*
X58687Y120217D01*
G37*
G36*
X62537Y120226D02*
X61120Y120748D01*
X61149Y120980D01*
X69012Y121810D01*
X69055Y121531D01*
X62537Y120226D01*
G37*
G36*
X43920Y119710D02*
X39687Y131023D01*
X39844Y131157D01*
X58870Y120453D01*
X58817Y120235D01*
X43920Y119710D01*
G37*
G36*
X58244Y119714D02*
X43876Y119714D01*
X43871Y120004D01*
X58795Y120530D01*
X58876Y120346D01*
X58244Y119714D01*
G37*
G36*
X63469Y119250D02*
X62382Y120337D01*
X62433Y120506D01*
X68990Y121819D01*
X69067Y121563D01*
X63469Y119250D01*
G37*
G36*
X63899Y117924D02*
X63316Y119506D01*
X68953Y121835D01*
X69080Y121604D01*
X63899Y117924D01*
G37*
G36*
X64004Y116669D02*
X63823Y116745D01*
X63823Y118232D01*
X68913Y121848D01*
X69088Y121638D01*
X64004Y116669D01*
G37*
G36*
X40799Y116431D02*
X40621Y116499D01*
X39706Y131096D01*
X39955Y131149D01*
X44193Y119824D01*
X40799Y116431D01*
G37*
G36*
X63533Y115386D02*
X63323Y115511D01*
X63844Y116925D01*
X68886Y121853D01*
X69092Y121657D01*
X63533Y115386D01*
G37*
G36*
X45392Y114495D02*
X45311Y114679D01*
X45917Y115285D01*
X58328Y115285D01*
X58333Y114995D01*
X45392Y114495D01*
G37*
G36*
X58799Y114472D02*
X45342Y114499D01*
X45336Y114788D01*
X58242Y115287D01*
X58874Y114655D01*
X58799Y114472D01*
G37*
G36*
X60089Y114001D02*
X45336Y114503D01*
X45342Y114794D01*
X58727Y114768D01*
X60137Y114248D01*
X60089Y114001D01*
G37*
G36*
X63476Y110315D02*
X63246Y110371D01*
X63357Y115633D01*
X68862Y121843D01*
X69077Y121699D01*
X63476Y110315D01*
G37*
G36*
X63278Y110328D02*
X62388Y114668D01*
X63470Y115750D01*
X63654Y115672D01*
X63541Y110352D01*
X63278Y110328D01*
G37*
G36*
X63331Y110304D02*
X61066Y114231D01*
X62659Y114818D01*
X63566Y110393D01*
X63331Y110304D01*
G37*
G36*
X63378Y110290D02*
X59794Y114123D01*
X59871Y114301D01*
X61366Y114301D01*
X63590Y110446D01*
X63378Y110290D01*
G37*
G36*
X63469Y110318D02*
X45323Y114533D01*
X45358Y114798D01*
X60034Y114299D01*
X63579Y110508D01*
X63469Y110318D01*
G37*
G36*
X69035Y110339D02*
X63159Y110339D01*
X68807Y121818D01*
X69035Y121765D01*
X69035Y110339D01*
G37*
G36*
X73742Y108241D02*
X73464Y108257D01*
X73464Y121796D01*
X75299Y121796D01*
X73742Y108241D01*
G37*
G36*
X73732Y108229D02*
X73449Y108271D01*
X74992Y121716D01*
X76143Y122867D01*
X76335Y122767D01*
X73732Y108229D01*
G37*
G36*
X60166Y107048D02*
X45303Y114573D01*
X45393Y114819D01*
X63514Y110611D01*
X63562Y110444D01*
X60166Y107048D01*
G37*
G36*
X64771Y105116D02*
X64684Y105303D01*
X65292Y105910D01*
X71120Y105910D01*
X71131Y105626D01*
X64771Y105116D01*
G37*
G36*
X60126Y104144D02*
X45289Y114604D01*
X45431Y114840D01*
X60285Y107319D01*
X60285Y104226D01*
X60126Y104144D01*
G37*
G36*
X64714Y104129D02*
X64714Y105407D01*
X71103Y105920D01*
X71145Y105650D01*
X64714Y104129D01*
G37*
G36*
X59633Y103603D02*
X45282Y114617D01*
X45454Y114850D01*
X60366Y104336D01*
X59633Y103603D01*
G37*
G36*
X65340Y103629D02*
X64696Y104273D01*
X64743Y104440D01*
X71080Y105938D01*
X71159Y105669D01*
X65340Y103629D01*
G37*
G36*
X59217Y102277D02*
X45282Y114630D01*
X45464Y114850D01*
X59796Y103850D01*
X59217Y102277D01*
G37*
G36*
X65770Y102309D02*
X65188Y103888D01*
X71054Y105945D01*
X71168Y105708D01*
X65770Y102309D01*
G37*
G36*
X59120Y101044D02*
X45281Y114642D01*
X45477Y114852D01*
X59301Y102597D01*
X59301Y101120D01*
X59120Y101044D01*
G37*
G36*
X65872Y101044D02*
X65698Y101123D01*
X65698Y102613D01*
X71014Y105960D01*
X71178Y105742D01*
X65872Y101044D01*
G37*
G36*
X59597Y99761D02*
X45279Y114649D01*
X45486Y114853D01*
X59280Y101300D01*
X59800Y99889D01*
X59597Y99761D01*
G37*
G36*
X65402Y99761D02*
X65199Y99889D01*
X65720Y101304D01*
X70986Y105967D01*
X71183Y105762D01*
X65402Y99761D01*
G37*
G36*
X65382Y99742D02*
X65170Y99947D01*
X70873Y105866D01*
X73611Y108604D01*
X73820Y108398D01*
X65382Y99742D01*
G37*
G36*
X53525Y93157D02*
X53387Y93416D01*
X63095Y98663D01*
X64503Y99182D01*
X64615Y98928D01*
X53525Y93157D01*
G37*
G36*
X53531Y93158D02*
X53387Y93405D01*
X61801Y98676D01*
X63271Y98676D01*
X63327Y98453D01*
X53531Y93158D01*
G37*
G36*
X53547Y93157D02*
X53386Y93383D01*
X60548Y99163D01*
X61980Y98635D01*
X61999Y98452D01*
X53547Y93157D01*
G37*
G36*
X53573Y93155D02*
X53385Y93354D01*
X59615Y100164D01*
X60796Y98983D01*
X53573Y93155D01*
G37*
G36*
X53534Y93079D02*
X45306Y114706D01*
X45510Y114835D01*
X59823Y99953D01*
X53534Y93079D01*
G37*
G36*
X63042Y93208D02*
X53471Y93208D01*
X53416Y93433D01*
X64441Y99170D01*
X64591Y99050D01*
X63042Y93208D01*
G37*
G36*
X63018Y93173D02*
X62749Y93258D01*
X64291Y99071D01*
X65359Y100139D01*
X65559Y100010D01*
X63018Y93173D01*
G37*
G36*
X62974Y93165D02*
X62745Y93286D01*
X65251Y100031D01*
X73601Y108597D01*
X73811Y108422D01*
X62974Y93165D01*
G37*
G36*
X52481Y92042D02*
X45303Y114738D01*
X45574Y114833D01*
X53758Y93319D01*
X52481Y92042D01*
G37*
G36*
X63995Y92080D02*
X62736Y93340D01*
X73574Y108597D01*
X73811Y108442D01*
X63995Y92080D01*
G37*
G36*
X64436Y85056D02*
X64202Y85095D01*
X63816Y92355D01*
X73555Y108589D01*
X73799Y108468D01*
X64436Y85056D01*
G37*
G36*
X65761Y85073D02*
X64125Y85073D01*
X73528Y108585D01*
X73798Y108484D01*
X65761Y85073D01*
G37*
G36*
X63818Y84870D02*
X63818Y92462D01*
X64106Y92469D01*
X64496Y85120D01*
X63818Y84870D01*
G37*
G36*
X67022Y84560D02*
X65469Y85132D01*
X73519Y108580D01*
X73793Y108494D01*
X67022Y84560D01*
G37*
G36*
X67836Y83633D02*
X66758Y84711D01*
X73509Y108575D01*
X73788Y108503D01*
X68003Y83681D01*
X67836Y83633D01*
G37*
G36*
X68246Y82375D02*
X67725Y83789D01*
X73501Y108571D01*
X73785Y108509D01*
X68468Y82392D01*
X68246Y82375D01*
G37*
G36*
X68465Y81058D02*
X68198Y81084D01*
X68198Y82546D01*
X73496Y108569D01*
X73785Y108512D01*
X68465Y81058D01*
G37*
G36*
X67475Y77609D02*
X67214Y77640D01*
X67214Y79494D01*
X67853Y80134D01*
X68048Y80025D01*
X67475Y77609D01*
G37*
G36*
X67464Y77592D02*
X67185Y77665D01*
X67737Y79993D01*
X68257Y81402D01*
X68527Y81314D01*
X67464Y77592D01*
G37*
G36*
X45593Y67689D02*
X45339Y67725D01*
X45339Y114773D01*
X45589Y114811D01*
X52703Y92320D01*
X45593Y67689D01*
G37*
G36*
X45934Y67197D02*
X45321Y67810D01*
X52447Y92499D01*
X52729Y92421D01*
X46099Y67241D01*
X45934Y67197D01*
G37*
G36*
X51117Y67214D02*
X45786Y67214D01*
X52440Y92485D01*
X52704Y92442D01*
X51117Y67214D01*
G37*
G36*
X52696Y67068D02*
X50822Y67227D01*
X52410Y92470D01*
X52696Y92461D01*
X52696Y67068D01*
G37*
G36*
X53638Y66005D02*
X50804Y67278D01*
X50866Y67519D01*
X52615Y67371D01*
X53778Y66208D01*
X53638Y66005D01*
G37*
G36*
X40617Y65747D02*
X39712Y131120D01*
X40000Y131131D01*
X40910Y116608D01*
X40910Y65749D01*
X40617Y65747D01*
G37*
G36*
X39934Y64124D02*
X39714Y64182D01*
X39714Y131125D01*
X40007Y131127D01*
X40910Y65858D01*
X39934Y64124D01*
G37*
G36*
X42461Y64149D02*
X39609Y64149D01*
X40729Y66138D01*
X42536Y64331D01*
X42461Y64149D01*
G37*
G36*
X54214Y63917D02*
X50787Y67344D01*
X50926Y67547D01*
X53708Y66298D01*
X54412Y64036D01*
X54214Y63917D01*
G37*
G36*
X54138Y63924D02*
X53386Y66338D01*
X62142Y66338D01*
X62176Y66081D01*
X54138Y63924D01*
G37*
G36*
X54766Y57225D02*
X54576Y57286D01*
X54081Y64214D01*
X62078Y66361D01*
X62195Y66179D01*
X54766Y57225D01*
G37*
G36*
X61318Y57249D02*
X54622Y57249D01*
X54542Y57418D01*
X61968Y66369D01*
X62170Y66285D01*
X61318Y57249D01*
G37*
G36*
X54271Y56743D02*
X54089Y56819D01*
X54089Y64245D01*
X54374Y64256D01*
X54868Y57339D01*
X54271Y56743D01*
G37*
G36*
X61978Y56393D02*
X61030Y57341D01*
X61879Y66345D01*
X62160Y66331D01*
X62160Y56469D01*
X61978Y56393D01*
G37*
G36*
X66881Y47213D02*
X66589Y47216D01*
X66589Y77207D01*
X67328Y77946D01*
X67511Y77868D01*
X66881Y47213D01*
G37*
G36*
X66877Y47209D02*
X66586Y47219D01*
X67214Y77793D01*
X68240Y81385D01*
X68500Y81342D01*
X66877Y47209D01*
G37*
G36*
X66867Y47203D02*
X66582Y47226D01*
X68199Y81236D01*
X73494Y108563D01*
X73774Y108521D01*
X66867Y47203D01*
G37*
G36*
X66865Y47198D02*
X66574Y47232D01*
X73466Y108417D01*
X76051Y122854D01*
X76335Y122810D01*
X66865Y47198D01*
G37*
G36*
X72994Y47214D02*
X66569Y47214D01*
X76042Y122845D01*
X76324Y122821D01*
X72994Y47214D01*
G37*
G36*
X72994Y47208D02*
X72699Y47221D01*
X76023Y122693D01*
X76170Y125195D01*
X76463Y125180D01*
X72994Y47208D01*
G37*
G36*
X75452Y44554D02*
X72703Y47303D01*
X76167Y125191D01*
X76458Y125183D01*
X75633Y44628D01*
X75452Y44554D01*
G37*
G36*
X75633Y42293D02*
X75339Y42294D01*
X75339Y44729D01*
X76162Y125189D01*
X76458Y125186D01*
X75633Y42293D01*
G37*
G36*
X75969Y41750D02*
X75338Y42380D01*
X76162Y125188D01*
X76457Y125186D01*
X76151Y41825D01*
X75969Y41750D01*
G37*
G36*
X76213Y40930D02*
X75856Y41898D01*
X76161Y125188D01*
X76456Y125187D01*
X76456Y40973D01*
X76213Y40930D01*
G37*
G36*
X49599Y61987D02*
X45390Y62508D01*
X45407Y62785D01*
X49082Y62785D01*
X49691Y62176D01*
X49599Y61987D01*
G37*
G36*
X38754Y57817D02*
X36534Y60563D01*
X36742Y60750D01*
X38950Y58542D01*
X38950Y57886D01*
X38754Y57817D01*
G37*
G36*
X45584Y57816D02*
X45399Y57891D01*
X45399Y62804D01*
X49621Y62281D01*
X49682Y62110D01*
X45584Y57816D01*
G37*
G36*
X36589Y57016D02*
X36589Y60651D01*
X36786Y60721D01*
X39047Y57923D01*
X36589Y57016D01*
G37*
G36*
X39931Y56797D02*
X36606Y57091D01*
X36575Y57326D01*
X38840Y58162D01*
X40018Y56984D01*
X39931Y56797D01*
G37*
G36*
X39693Y56643D02*
X39693Y57100D01*
X44654Y57100D01*
X44658Y56810D01*
X39693Y56643D01*
G37*
G36*
X39988Y56627D02*
X36574Y57102D01*
X36606Y57388D01*
X39988Y57088D01*
X39988Y56627D01*
G37*
G36*
X44656Y56649D02*
X39695Y56649D01*
X39691Y56939D01*
X44656Y57106D01*
X44656Y56649D01*
G37*
G36*
X44553Y56622D02*
X44361Y56694D01*
X44361Y57014D01*
X45543Y58196D01*
X45751Y58001D01*
X44553Y56622D01*
G37*
G36*
X44517Y56589D02*
X44302Y56784D01*
X45437Y58090D01*
X49507Y62354D01*
X49720Y62152D01*
X44517Y56589D01*
G37*
G36*
X1254Y56064D02*
X1053Y56196D01*
X1741Y57933D01*
X2751Y57561D01*
X1254Y56064D01*
G37*
G36*
X1328Y56087D02*
X1090Y56129D01*
X1030Y58486D01*
X1214Y58565D01*
X1998Y57781D01*
X1328Y56087D01*
G37*
G36*
X38819Y55566D02*
X36557Y57175D01*
X36642Y57390D01*
X39952Y56930D01*
X40010Y56756D01*
X38819Y55566D01*
G37*
G36*
X45573Y55522D02*
X44303Y56793D01*
X49496Y62345D01*
X49708Y62182D01*
X45573Y55522D01*
G37*
G36*
X38469Y55287D02*
X36536Y57220D01*
X36712Y57427D01*
X39044Y55768D01*
X38469Y55287D01*
G37*
G36*
X38950Y55339D02*
X38374Y55339D01*
X38304Y55534D01*
X38780Y55932D01*
X38950Y55852D01*
X38950Y55339D01*
G37*
G36*
X38950Y50324D02*
X36365Y50632D01*
X36382Y50910D01*
X38950Y50910D01*
X38950Y50324D01*
G37*
G36*
X45646Y50325D02*
X45399Y50365D01*
X45399Y55800D01*
X49456Y62336D01*
X49695Y62223D01*
X45646Y50325D01*
G37*
G36*
X39898Y49271D02*
X36346Y50673D01*
X36410Y50924D01*
X38871Y50631D01*
X40030Y49472D01*
X39898Y49271D01*
G37*
G36*
X1088Y48598D02*
X1032Y58535D01*
X1325Y58540D01*
X1382Y56255D01*
X1382Y48598D01*
X1088Y48598D01*
G37*
G36*
X54351Y46634D02*
X54089Y46665D01*
X54089Y49430D01*
X54271Y49506D01*
X54878Y48899D01*
X54351Y46634D01*
G37*
G36*
X54035Y46583D02*
X54598Y49000D01*
X61311Y49000D01*
X61348Y48748D01*
X54035Y46583D01*
G37*
G36*
X58305Y46649D02*
X54109Y46649D01*
X54072Y46901D01*
X61262Y49030D01*
X61371Y48804D01*
X58305Y46649D01*
G37*
G36*
X59324Y45521D02*
X58030Y46816D01*
X61197Y49043D01*
X61372Y48879D01*
X59324Y45521D01*
G37*
G36*
X59336Y45556D02*
X59095Y45713D01*
X61066Y48945D01*
X62003Y49882D01*
X62210Y49709D01*
X59336Y45556D01*
G37*
G36*
X33688Y45100D02*
X33464Y45156D01*
X33464Y53770D01*
X33646Y53846D01*
X36703Y50790D01*
X33688Y45100D01*
G37*
G36*
X33598Y45084D02*
X33427Y45238D01*
X36452Y50948D01*
X39978Y49557D01*
X39997Y49380D01*
X33598Y45084D01*
G37*
G36*
X33541Y45086D02*
X33420Y45320D01*
X39796Y49600D01*
X44631Y49600D01*
X44676Y49359D01*
X33541Y45086D01*
G37*
G36*
X62160Y45095D02*
X59044Y45654D01*
X61953Y49855D01*
X62160Y49790D01*
X62160Y45095D01*
G37*
G36*
X3120Y44391D02*
X1048Y48795D01*
X1251Y48938D01*
X3351Y46838D01*
X3351Y44443D01*
X3120Y44391D01*
G37*
G36*
X19877Y43621D02*
X12876Y44416D01*
X12892Y44694D01*
X20272Y44694D01*
X19877Y43621D01*
G37*
G36*
X11912Y43372D02*
X11833Y43557D01*
X12978Y44701D01*
X19931Y43912D01*
X19920Y43638D01*
X11912Y43372D01*
G37*
G36*
X49439Y43224D02*
X45385Y50476D01*
X49413Y62312D01*
X49660Y62271D01*
X49660Y43282D01*
X49439Y43224D01*
G37*
G36*
X49484Y43198D02*
X44309Y49462D01*
X45580Y50733D01*
X49707Y43350D01*
X49484Y43198D01*
G37*
G36*
X49594Y43238D02*
X33480Y45138D01*
X33451Y45367D01*
X44555Y49629D01*
X49690Y43413D01*
X49594Y43238D01*
G37*
G36*
X64684Y42444D02*
X59115Y45693D01*
X59200Y45926D01*
X62084Y45408D01*
X64842Y42650D01*
X64684Y42444D01*
G37*
G36*
X19926Y42299D02*
X11854Y43395D01*
X11867Y43666D01*
X19926Y43934D01*
X19926Y42299D01*
G37*
G36*
X19910Y42311D02*
X4089Y43385D01*
X4098Y43671D01*
X12018Y43671D01*
X19939Y42595D01*
X19910Y42311D01*
G37*
G36*
X70910Y42289D02*
X64496Y42494D01*
X64501Y42785D01*
X70910Y42785D01*
X70910Y42289D01*
G37*
G36*
X70298Y41768D02*
X64488Y42509D01*
X64510Y42789D01*
X70864Y42585D01*
X70935Y42405D01*
X70298Y41768D01*
G37*
G36*
X20469Y41018D02*
X4079Y43397D01*
X4109Y43680D01*
X19884Y42609D01*
X20469Y41018D01*
G37*
G36*
X59149Y40894D02*
X59149Y45844D01*
X59297Y45929D01*
X64805Y42716D01*
X64781Y42523D01*
X59149Y40894D01*
G37*
G36*
X59175Y40933D02*
X59127Y41195D01*
X64634Y42788D01*
X70396Y42053D01*
X70389Y41787D01*
X59175Y40933D01*
G37*
G36*
X51921Y40893D02*
X33442Y45159D01*
X33490Y45434D01*
X49580Y43537D01*
X52029Y41088D01*
X51921Y40893D01*
G37*
G36*
X29006Y40613D02*
X28928Y40796D01*
X33565Y45433D01*
X52007Y41177D01*
X51979Y40916D01*
X29006Y40613D01*
G37*
G36*
X28957Y40613D02*
X28953Y40908D01*
X51845Y41210D01*
X52128Y41210D01*
X52130Y40917D01*
X28957Y40613D01*
G37*
G36*
X69879Y40504D02*
X59151Y40949D01*
X59146Y41227D01*
X70463Y42088D01*
X69879Y40504D01*
G37*
G36*
X21279Y40079D02*
X4071Y43406D01*
X4120Y43690D01*
X20315Y41339D01*
X21382Y40272D01*
X21279Y40079D01*
G37*
G36*
X24963Y40085D02*
X24870Y40275D01*
X25505Y40910D01*
X29242Y40910D01*
X29259Y40633D01*
X24963Y40085D01*
G37*
G36*
X24913Y40093D02*
X24891Y40374D01*
X29093Y40910D01*
X52126Y41212D01*
X52132Y40919D01*
X24913Y40093D01*
G37*
G36*
X53089Y39905D02*
X24903Y40098D01*
X24899Y40388D01*
X52040Y41212D01*
X53165Y40087D01*
X53089Y39905D01*
G37*
G36*
X58165Y39900D02*
X58082Y40086D01*
X59238Y41241D01*
X69925Y40798D01*
X69926Y40516D01*
X58165Y39900D01*
G37*
G36*
X22572Y39606D02*
X4068Y43408D01*
X4125Y43696D01*
X21240Y40388D01*
X22648Y39869D01*
X22572Y39606D01*
G37*
G36*
X23658Y39629D02*
X23613Y39874D01*
X25023Y40393D01*
X53138Y40199D01*
X53138Y39907D01*
X23658Y39629D01*
G37*
G36*
X23635Y39629D02*
X23632Y39924D01*
X52990Y40200D01*
X58405Y40200D01*
X58407Y39906D01*
X23635Y39629D01*
G37*
G36*
X69926Y39186D02*
X58110Y39914D01*
X58111Y40193D01*
X69926Y40812D01*
X69926Y39186D01*
G37*
G36*
X69920Y39194D02*
X23633Y39632D01*
X23633Y39925D01*
X58262Y40201D01*
X69931Y39482D01*
X69920Y39194D01*
G37*
G36*
X69924Y39194D02*
X22320Y39632D01*
X22321Y39926D01*
X23782Y39926D01*
X69927Y39489D01*
X69924Y39194D01*
G37*
G36*
X70460Y37920D02*
X22317Y39636D01*
X22324Y39927D01*
X69881Y39490D01*
X70460Y37920D01*
G37*
G36*
X71294Y36967D02*
X22314Y39639D01*
X22327Y39931D01*
X70308Y38221D01*
X71376Y37153D01*
X71294Y36967D01*
G37*
G36*
X72586Y36498D02*
X22312Y39640D01*
X22329Y39933D01*
X71230Y37266D01*
X72639Y36747D01*
X72586Y36498D01*
G37*
G36*
X65261Y32224D02*
X65131Y32487D01*
X73722Y36789D01*
X75130Y37307D01*
X75240Y37048D01*
X65261Y32224D01*
G37*
G36*
X65267Y32225D02*
X65131Y32475D01*
X72428Y36801D01*
X73898Y36801D01*
X73952Y36573D01*
X65267Y32225D01*
G37*
G36*
X65357Y32266D02*
X22305Y39656D01*
X22338Y39934D01*
X72586Y36794D01*
X72637Y36582D01*
X65357Y32266D01*
G37*
G36*
X74807Y32273D02*
X65211Y32273D01*
X65158Y32502D01*
X75062Y37290D01*
X75203Y37194D01*
X74807Y32273D01*
G37*
G36*
X74783Y32254D02*
X74512Y32296D01*
X74906Y37186D01*
X75978Y38258D01*
X76173Y38150D01*
X74783Y32254D01*
G37*
G36*
X74778Y32243D02*
X74493Y32312D01*
X75862Y38118D01*
X76218Y39084D01*
X76486Y39002D01*
X74778Y32243D01*
G37*
G36*
X16486Y32184D02*
X16405Y32351D01*
X22407Y39938D01*
X65487Y32543D01*
X65464Y32273D01*
X16486Y32184D01*
G37*
G36*
X16596Y32117D02*
X4058Y43489D01*
X4160Y43690D01*
X22732Y39874D01*
X16596Y32117D01*
G37*
G36*
X25921Y32185D02*
X16431Y32185D01*
X16431Y32480D01*
X65476Y32569D01*
X65477Y32273D01*
X25921Y32185D01*
G37*
G36*
X53587Y32185D02*
X25773Y32185D01*
X25773Y32479D01*
X65476Y32569D01*
X65477Y32274D01*
X53587Y32185D01*
G37*
G36*
X62931Y32185D02*
X53439Y32185D01*
X53438Y32479D01*
X65473Y32569D01*
X65479Y32279D01*
X62931Y32185D01*
G37*
G36*
X64308Y31191D02*
X62757Y32272D01*
X62817Y32476D01*
X65424Y32572D01*
X65504Y32388D01*
X64308Y31191D01*
G37*
G36*
X75671Y31212D02*
X74507Y32376D01*
X76199Y39070D01*
X76467Y39026D01*
X75848Y31277D01*
X75671Y31212D01*
G37*
G36*
X15537Y31081D02*
X4037Y43527D01*
X4236Y43727D01*
X16793Y32337D01*
X15537Y31081D01*
G37*
G36*
X15533Y31086D02*
X2996Y44567D01*
X3205Y44768D01*
X4348Y43625D01*
X15749Y31286D01*
X15533Y31086D01*
G37*
G36*
X26899Y31144D02*
X25746Y32298D01*
X25822Y32480D01*
X53731Y32480D01*
X53737Y32190D01*
X26899Y31144D01*
G37*
G36*
X52610Y31147D02*
X26813Y31147D01*
X26808Y31436D01*
X53681Y32484D01*
X53762Y32299D01*
X52610Y31147D01*
G37*
G36*
X63922Y31129D02*
X62728Y32323D01*
X62902Y32531D01*
X64452Y31450D01*
X64420Y31265D01*
X63922Y31129D01*
G37*
G36*
X64149Y23465D02*
X63814Y31406D01*
X64438Y31576D01*
X64438Y23472D01*
X64149Y23465D01*
G37*
G36*
X75850Y23466D02*
X75561Y23471D01*
X75561Y31389D01*
X76173Y39058D01*
X76462Y39041D01*
X75850Y23466D01*
G37*
G36*
X66898Y22273D02*
X65174Y22445D01*
X65188Y22726D01*
X74817Y22726D01*
X74819Y22434D01*
X66898Y22273D01*
G37*
G36*
X73103Y22273D02*
X66757Y22273D01*
X66754Y22565D01*
X74809Y22729D01*
X74826Y22445D01*
X73103Y22273D01*
G37*
G36*
X64311Y19620D02*
X64111Y19748D01*
X65230Y22736D01*
X67011Y22558D01*
X67074Y22382D01*
X64311Y19620D01*
G37*
G36*
X64386Y19641D02*
X64143Y19685D01*
X64143Y23715D01*
X64325Y23790D01*
X65500Y22615D01*
X64386Y19641D01*
G37*
G36*
X64147Y19658D02*
X63814Y31437D01*
X64107Y31447D01*
X64438Y23619D01*
X64438Y19663D01*
X64147Y19658D01*
G37*
G36*
X75688Y19620D02*
X72925Y22382D01*
X72988Y22558D01*
X74769Y22736D01*
X75888Y19748D01*
X75688Y19620D01*
G37*
G36*
X75613Y19641D02*
X74499Y22615D01*
X75674Y23790D01*
X75856Y23715D01*
X75856Y19685D01*
X75613Y19641D01*
G37*
G36*
X75851Y19658D02*
X75561Y19663D01*
X75561Y23619D01*
X76167Y39055D01*
X76461Y39044D01*
X75851Y19658D01*
G37*
G36*
X64146Y15042D02*
X63815Y31438D01*
X64109Y31446D01*
X64438Y19810D01*
X64438Y15045D01*
X64146Y15042D01*
G37*
G36*
X75852Y15041D02*
X75561Y15045D01*
X75561Y19810D01*
X76166Y39054D01*
X76460Y39045D01*
X75852Y15041D01*
G37*
G36*
X15439Y6039D02*
X3026Y44628D01*
X3231Y44748D01*
X15688Y31352D01*
X15688Y6078D01*
X15439Y6039D01*
G37*
G36*
X15448Y6019D02*
X1050Y48831D01*
X1309Y48935D01*
X3341Y44615D01*
X15726Y6110D01*
X15448Y6019D01*
G37*
G36*
X26991Y6031D02*
X26811Y6107D01*
X26811Y31442D01*
X52648Y31442D01*
X52723Y31258D01*
X26991Y6031D01*
G37*
G36*
X52696Y6057D02*
X26859Y6057D01*
X26784Y6241D01*
X52515Y31468D01*
X52696Y31392D01*
X52696Y6057D01*
G37*
G36*
X64108Y6054D02*
X63818Y6060D01*
X63818Y31441D01*
X64111Y31443D01*
X64439Y15190D01*
X64108Y6054D01*
G37*
G36*
X64049Y6033D02*
X63814Y6089D01*
X64147Y15293D01*
X64327Y15364D01*
X67081Y12610D01*
X64049Y6033D01*
G37*
G36*
X64035Y6009D02*
X63771Y6134D01*
X66809Y12726D01*
X67282Y12726D01*
X64035Y6009D01*
G37*
G36*
X67194Y5418D02*
X63750Y6097D01*
X66965Y12748D01*
X67194Y12696D01*
X67194Y5418D01*
G37*
G36*
X63119Y5301D02*
X63038Y5486D01*
X63917Y6365D01*
X67204Y5717D01*
X67184Y5455D01*
X63119Y5301D01*
G37*
G36*
X26110Y5302D02*
X26031Y5486D01*
X26897Y6352D01*
X52694Y6352D01*
X52698Y6061D01*
X26110Y5302D01*
G37*
G36*
X53400Y5305D02*
X26060Y5305D01*
X26056Y5596D01*
X52608Y6354D01*
X53475Y5487D01*
X53400Y5305D01*
G37*
G36*
X66963Y5305D02*
X63069Y5305D01*
X63063Y5594D01*
X67142Y5749D01*
X67222Y5564D01*
X66963Y5305D01*
G37*
G36*
X18251Y2977D02*
X16405Y5143D01*
X16484Y5314D01*
X18444Y5314D01*
X18444Y3048D01*
X18251Y2977D01*
G37*
G36*
X18285Y2944D02*
X15335Y6213D01*
X15543Y6411D01*
X16687Y5267D01*
X18504Y3136D01*
X18285Y2944D01*
G37*
G36*
X73098Y3003D02*
X72805Y3005D01*
X72805Y12726D01*
X73245Y12726D01*
X73098Y3003D01*
G37*
G36*
X73067Y2989D02*
X72803Y3021D01*
X72949Y12640D01*
X75682Y15374D01*
X75877Y15266D01*
X73067Y2989D01*
G37*
G36*
X1328Y1033D02*
X1033Y1033D01*
X1033Y58537D01*
X1327Y58538D01*
X1382Y48746D01*
X1328Y1033D01*
G37*
G36*
X1033Y972D02*
X1087Y48871D01*
X1335Y48911D01*
X15727Y6113D01*
X1033Y972D01*
G37*
G36*
X1066Y1019D02*
X1007Y1276D01*
X15585Y6376D01*
X18467Y3184D01*
X18403Y3015D01*
X1066Y1019D01*
G37*
G36*
X20366Y1033D02*
X1041Y1033D01*
X1025Y1311D01*
X18351Y3306D01*
X20442Y1215D01*
X20366Y1033D01*
G37*
G36*
X76421Y1033D02*
X70883Y1033D01*
X70807Y1215D01*
X72929Y3337D01*
X76481Y1251D01*
X76421Y1033D01*
G37*
G36*
X76309Y1009D02*
X72784Y3079D01*
X75593Y15350D01*
X75850Y15326D01*
X76460Y1099D01*
X76309Y1009D01*
G37*
G36*
X76167Y1030D02*
X75560Y15190D01*
X76165Y39051D01*
X76456Y39048D01*
X76456Y1036D01*
X76167Y1030D01*
G37*
M02*
